GeoramaExtraCondensed-Italic.ufo
<glyph name="exclam" format="2">
  <advance width="136.87"/>
  <unicode hex="0021"/>
  <outline>
    <contour>
      <point x="37.32" y="262.45" type="line"/>
      <point x="93.75999999999999" y="262.45" type="line"/>
      <point x="174.96" y="740.0" type="line"/>
      <point x="110.15" y="740.0" type="line"/>
    </contour>
    <contour>
      <point x="-6.75" y="27.669999999999998" type="curve" smooth="yes"/>
      <point x="-7.4399999999999995" y="6.34"/>
      <point x="0.38" y="-3.1"/>
      <point x="23.47" y="-3.1" type="curve" smooth="yes"/>
      <point x="60.86" y="-3.1"/>
      <point x="68.61" y="27.04"/>
      <point x="70.68" y="62.44" type="curve" smooth="yes"/>
      <point x="71.37" y="84.46000000000001"/>
      <point x="62.17" y="93.21000000000001"/>
      <point x="39.769999999999996" y="93.21000000000001" type="curve" smooth="yes"/>
      <point x="4.38" y="93.21000000000001"/>
      <point x="-4.68" y="63.69"/>
    </contour>
  </outline>
</glyph>
<glyph name="numbersign" format="2">
  <advance width="302.7"/>
  <unicode hex="0023"/>
  <outline>
    <contour>
      <point x="67.86" y="455.24" type="line"/>
      <point x="115.66" y="455.24" type="line"/>
      <point x="60.78" y="242.42" type="line"/>
      <point x="15.879999999999999" y="242.42" type="line"/>
      <point x="5.369999999999999" y="180.71" type="line"/>
      <point x="47.41" y="180.71" type="line"/>
      <point x="1.4700000000000006" y="0.0" type="line"/>
      <point x="50.99" y="0.0" type="line"/>
      <point x="96.24000000000001" y="180.71" type="line"/>
      <point x="150.53" y="180.71" type="line"/>
      <point x="105.28" y="0.0" type="line"/>
      <point x="153.8" y="0.0" type="line"/>
      <point x="199.05" y="180.71" type="line"/>
      <point x="249.4" y="180.71" type="line"/>
      <point x="259.22" y="242.42" type="line"/>
      <point x="212.42000000000002" y="242.42" type="line"/>
      <point x="267.3" y="455.24" type="line"/>
      <point x="311.2" y="455.24" type="line"/>
      <point x="321.33" y="517.57" type="line"/>
      <point x="280.67" y="517.57" type="line"/>
      <point x="326.85" y="700.0" type="line"/>
      <point x="278.02" y="700.0" type="line"/>
      <point x="231.84" y="517.57" type="line"/>
      <point x="177.55" y="517.57" type="line"/>
      <point x="223.73" y="700.0" type="line"/>
      <point x="175.21" y="700.0" type="line"/>
      <point x="129.03" y="517.57" type="line"/>
      <point x="77.99" y="517.57" type="line"/>
    </contour>
    <contour>
      <point x="164.18" y="455.24" type="line"/>
      <point x="218.47" y="455.24" type="line"/>
      <point x="163.9" y="242.42" type="line"/>
      <point x="109.61" y="242.42" type="line"/>
    </contour>
  </outline>
</glyph>
<glyph name="dollar" format="2">
  <advance width="302.7"/>
  <unicode hex="0024"/>
  <outline>
    <contour>
      <point x="311.08" y="689.18" type="line"/>
      <point x="297.22" y="698.04"/>
      <point x="275.26" y="705.9"/>
      <point x="248.92000000000002" y="708.76" type="curve"/>
      <point x="263.92" y="804.38" type="line"/>
      <point x="206.24" y="804.38" type="line"/>
      <point x="189.62" y="704.04" type="line"/>
      <point x="100.48" y="688.98"/>
      <point x="71.04" y="591.66"/>
      <point x="71.04" y="518.84" type="curve" smooth="yes"/>
      <point x="71.04" y="370.72"/>
      <point x="184.64" y="287.18"/>
      <point x="184.64" y="178.78" type="curve" smooth="yes"/>
      <point x="184.64" y="117.56"/>
      <point x="154.98" y="55.26"/>
      <point x="89.62" y="55.26" type="curve" smooth="yes"/>
      <point x="61.519999999999996" y="55.26"/>
      <point x="36.18" y="60.12"/>
      <point x="9.120000000000001" y="74.22" type="curve"/>
      <point x="-15.52" y="14.06" type="line"/>
      <point x="2.4399999999999995" y="2.96"/>
      <point x="29.54" y="-5.9"/>
      <point x="57.54" y="-8.14" type="curve"/>
      <point x="42.54" y="-105.0" type="line"/>
      <point x="100.22" y="-105.0" type="line"/>
      <point x="115.22" y="-6.52" type="line"/>
      <point x="213.07999999999998" y="7.300000000000001"/>
      <point x="248.66" y="104.82"/>
      <point x="248.66" y="182.54" type="curve" smooth="yes"/>
      <point x="248.66" y="330.28"/>
      <point x="137.54" y="409.34"/>
      <point x="137.54" y="518.98" type="curve" smooth="yes"/>
      <point x="137.54" y="573.44"/>
      <point x="162.3" y="643.64"/>
      <point x="226.14" y="643.64" type="curve" smooth="yes"/>
      <point x="248.42" y="643.64"/>
      <point x="265.62" y="639.64"/>
      <point x="287.44" y="629.16" type="curve"/>
    </contour>
  </outline>
</glyph>
<glyph name="ampersand" format="2">
  <advance width="374.65999999999997"/>
  <unicode hex="0026"/>
  <outline>
    <contour>
      <point x="138.65" y="-10.0" type="curve" smooth="yes"/>
      <point x="255.14" y="-10.0"/>
      <point x="345.27" y="156.76"/>
      <point x="309.01" y="294.31" type="curve"/>
      <point x="256.29" y="291.8" type="line"/>
      <point x="293.55" y="188.16"/>
      <point x="220.89" y="51.71"/>
      <point x="148.4" y="51.71" type="curve" smooth="yes"/>
      <point x="96.37" y="51.71"/>
      <point x="70.44" y="91.4"/>
      <point x="70.44" y="160.2" type="curve" smooth="yes"/>
      <point x="70.44" y="286.13"/>
      <point x="143.77" y="388.84"/>
      <point x="242.86" y="388.84" type="curve" smooth="yes"/>
      <point x="254.1" y="388.84" type="line"/>
      <point x="265.16" y="438.15" type="line"/>
      <point x="253.75" y="439.39" type="line" smooth="yes"/>
      <point x="204.81" y="441.25"/>
      <point x="181.32" y="476.95"/>
      <point x="181.32" y="539.18" type="curve" smooth="yes"/>
      <point x="181.32" y="602.89"/>
      <point x="218.57" y="650.46"/>
      <point x="263.48" y="650.46" type="curve" smooth="yes"/>
      <point x="287.31" y="650.46"/>
      <point x="304.69" y="645.01"/>
      <point x="327.76" y="626.87" type="curve"/>
      <point x="356.29" y="680.07" type="line"/>
      <point x="326.92" y="699.69"/>
      <point x="297.27" y="710.0"/>
      <point x="260.28" y="710.0" type="curve" smooth="yes"/>
      <point x="177.81" y="710.0"/>
      <point x="121.4" y="635.59"/>
      <point x="121.4" y="544.62" type="curve" smooth="yes"/>
      <point x="121.4" y="484.13"/>
      <point x="141.85" y="441.78"/>
      <point x="181.33" y="417.58" type="curve"/>
      <point x="82.01" y="390.34"/>
      <point x="9.280000000000001" y="285.91"/>
      <point x="9.280000000000001" y="147.11" type="curve" smooth="yes"/>
      <point x="9.280000000000001" y="52.5"/>
      <point x="53.37" y="-10.0"/>
    </contour>
    <contour>
      <point x="207.82" y="250.06" type="line"/>
      <point x="211.27" y="271.71"/>
      <point x="221.03" y="284.36"/>
      <point x="241.51" y="284.36" type="curve" smooth="yes"/>
      <point x="269.51" y="284.36"/>
      <point x="290.15999999999997" y="276.08"/>
      <point x="322.51" y="276.08" type="curve" smooth="yes"/>
      <point x="362.63" y="276.08"/>
      <point x="388.86" y="309.95"/>
      <point x="387.94" y="348.86" type="curve"/>
      <point x="346.21" y="355.07" type="line"/>
      <point x="340.76" y="326.12"/>
      <point x="325.66" y="319.43"/>
      <point x="299.36" y="319.43" type="curve" smooth="yes"/>
      <point x="279.08" y="319.43"/>
      <point x="254.66" y="327.71"/>
      <point x="233.0" y="327.71" type="curve" smooth="yes"/>
      <point x="188.16" y="327.71"/>
      <point x="170.37" y="296.25"/>
      <point x="164.16" y="260.23" type="curve"/>
    </contour>
  </outline>
</glyph>
<glyph name="quotesingle" format="2">
  <advance width="134.56"/>
  <unicode hex="0027"/>
  <outline>
    <contour>
      <point x="64.32" y="427.0" type="line"/>
      <point x="116.69" y="427.0" type="line"/>
      <point x="165.55" y="700.0" type="line"/>
      <point x="103.01" y="700.0" type="line"/>
    </contour>
  </outline>
</glyph>
<glyph name="parenleft" format="2">
  <advance width="185.87"/>
  <unicode hex="0028"/>
  <outline>
    <contour>
      <point x="16.18" y="-1.3999999999999986" type="curve" smooth="yes"/>
      <point x="16.18" y="-119.9"/>
      <point x="41.55" y="-198.48"/>
      <point x="92.49" y="-220.0" type="curve"/>
      <point x="109.83" y="-159.98" type="line"/>
      <point x="86.97" y="-143.74"/>
      <point x="69.21000000000001" y="-87.0"/>
      <point x="69.21000000000001" y="5.77" type="curve" smooth="yes"/>
      <point x="69.21000000000001" y="163.87"/>
      <point x="142.15" y="639.3"/>
      <point x="242.74" y="687.22" type="curve"/>
      <point x="245.66" y="749.31" type="line"/>
      <point x="90.15" y="693.42"/>
      <point x="16.18" y="223.56"/>
    </contour>
  </outline>
</glyph>
<glyph name="parenright" format="2">
  <advance width="185.87"/>
  <unicode hex="0029"/>
  <outline>
    <contour>
      <point x="167.38" y="531.4" type="curve" smooth="yes"/>
      <point x="167.38" y="649.9"/>
      <point x="142.7" y="728.48"/>
      <point x="91.76" y="750.0" type="curve"/>
      <point x="75.8" y="687.91" type="line"/>
      <point x="100.04" y="667.53"/>
      <point x="114.35" y="615.62"/>
      <point x="114.35" y="533.2" type="curve" smooth="yes"/>
      <point x="114.35" y="366.82"/>
      <point x="40.72" y="-111.37"/>
      <point x="-59.87" y="-158.6" type="curve"/>
      <point x="-62.1" y="-220.0" type="line"/>
      <point x="92.03" y="-159.97"/>
      <point x="167.38" y="307.82"/>
    </contour>
  </outline>
</glyph>
<glyph name="asterisk" format="2">
  <advance width="220.64"/>
  <unicode hex="002A"/>
  <outline>
    <contour>
      <point x="83.6" y="406.61" type="line"/>
      <point x="143.63" y="485.41" type="line"/>
      <point x="177.52" y="407.3" type="line"/>
      <point x="208.95" y="428.46" type="line"/>
      <point x="180.26" y="515.43" type="line"/>
      <point x="258.43" y="556.5" type="line"/>
      <point x="252.26" y="591.41" type="line"/>
      <point x="175.54" y="560.23" type="line"/>
      <point x="188.51" y="663.41" type="line"/>
      <point x="153.91" y="663.41" type="line"/>
      <point x="134.12" y="560.92" type="line"/>
      <point x="68.16" y="592.1" type="line"/>
      <point x="51.17" y="557.88" type="line"/>
      <point x="114.41" y="516.81" type="line"/>
      <point x="57.89" y="428.46" type="line"/>
    </contour>
  </outline>
</glyph>
<glyph name="plus" format="2">
  <advance width="354.57"/>
  <unicode hex="002B"/>
  <outline>
    <contour>
      <point x="121.25" y="100.21000000000001" type="line"/>
      <point x="179.0" y="100.21000000000001" type="line"/>
      <point x="206.11" y="270.32" type="line"/>
      <point x="314.09" y="270.32" type="line"/>
      <point x="323.91" y="333.03" type="line"/>
      <point x="215.93" y="333.03" type="line"/>
      <point x="243.04" y="503.83" type="line"/>
      <point x="185.29" y="503.83" type="line"/>
      <point x="158.18" y="333.03" type="line"/>
      <point x="49.51" y="333.03" type="line"/>
      <point x="39.69" y="270.32" type="line"/>
      <point x="148.36" y="270.32" type="line"/>
    </contour>
  </outline>
</glyph>
<glyph name="comma" format="2">
  <advance width="121.0"/>
  <unicode hex="002C"/>
  <outline>
    <contour>
      <point x="-4.48" y="57.870000000000005" type="line"/>
      <point x="-4.1" y="39.5"/>
      <point x="-5.34" y="21.990000000000002"/>
      <point x="-6.27" y="10.44" type="curve" smooth="yes"/>
      <point x="-9.06" y="-50.6"/>
      <point x="-43.37" y="-135.57"/>
      <point x="-82.24" y="-173.43" type="curve"/>
      <point x="-42.14" y="-194.94" type="line"/>
      <point x="26.759999999999998" y="-132.57"/>
      <point x="55.82" y="-31.11"/>
      <point x="55.82" y="28.63" type="curve" smooth="yes"/>
      <point x="55.82" y="39.94"/>
      <point x="55.51" y="50.25"/>
      <point x="54.13" y="63.010000000000005" type="curve"/>
    </contour>
  </outline>
</glyph>
<glyph name="hyphen" format="2">
  <advance width="207.78"/>
  <unicode hex="002D"/>
  <outline>
    <contour>
      <point x="15.96" y="247.11" type="line"/>
      <point x="182.65" y="247.11" type="line"/>
      <point x="194.4" y="314.15999999999997" type="line"/>
      <point x="27.71" y="314.15999999999997" type="line"/>
    </contour>
  </outline>
</glyph>
<glyph name="period" format="2">
  <advance width="121.0"/>
  <unicode hex="002E"/>
  <outline>
    <contour>
      <point x="-14.41" y="28.6" type="curve" smooth="yes"/>
      <point x="-15.1" y="6.96"/>
      <point x="-7.59" y="-2.17"/>
      <point x="15.81" y="-2.17" type="curve" smooth="yes"/>
      <point x="53.2" y="-2.17"/>
      <point x="60.64" y="27.97"/>
      <point x="62.71" y="63.99" type="curve" smooth="yes"/>
      <point x="63.4" y="85.7"/>
      <point x="54.51" y="94.14"/>
      <point x="32.11" y="94.14" type="curve" smooth="yes"/>
      <point x="-3.59" y="94.14"/>
      <point x="-12.34" y="64.62"/>
    </contour>
  </outline>
</glyph>
<glyph name="slash" format="2">
  <advance width="245.18"/>
  <unicode hex="002F"/>
  <outline>
    <contour>
      <point x="-72.51" y="-210.0" type="line"/>
      <point x="-17.31" y="-210.0" type="line"/>
      <point x="314.69" y="740.0" type="line"/>
      <point x="258.87" y="740.0" type="line"/>
    </contour>
  </outline>
</glyph>
<glyph name="zero" format="2">
  <advance width="302.7"/>
  <unicode hex="0030"/>
  <outline>
    <contour>
      <point x="108.52" y="-10.0" type="curve" smooth="yes"/>
      <point x="258.22" y="-10.0"/>
      <point x="314.84" y="351.7"/>
      <point x="314.84" y="552.12" type="curve" smooth="yes"/>
      <point x="314.84" y="669.18"/>
      <point x="284.68" y="710.0"/>
      <point x="217.42" y="710.0" type="curve" smooth="yes"/>
      <point x="67.72" y="710.0"/>
      <point x="11.1" y="349.54"/>
      <point x="11.1" y="149.12" type="curve" smooth="yes"/>
      <point x="11.1" y="32.06"/>
      <point x="41.26" y="-10.0"/>
    </contour>
    <contour>
      <point x="115.96000000000001" y="56.12" type="curve" smooth="yes"/>
      <point x="85.25999999999999" y="56.12"/>
      <point x="73.12" y="79.3"/>
      <point x="74.12" y="148.74" type="curve" smooth="yes"/>
      <point x="75.5" y="301.02"/>
      <point x="127.53999999999999" y="643.88"/>
      <point x="209.98" y="643.88" type="curve" smooth="yes"/>
      <point x="240.68" y="643.88"/>
      <point x="252.82" y="620.7"/>
      <point x="251.82" y="551.26" type="curve" smooth="yes"/>
      <point x="250.44" y="398.98"/>
      <point x="198.4" y="56.12"/>
    </contour>
  </outline>
</glyph>
<glyph name="one" format="2">
  <advance width="302.7"/>
  <unicode hex="0031"/>
  <outline>
    <contour>
      <point x="-2.5999999999999996" y="0.0" type="line"/>
      <point x="239.82" y="0.0" type="line"/>
      <point x="249.95" y="63.4" type="line"/>
      <point x="161.8" y="63.4" type="line"/>
      <point x="263.29" y="700.0" type="line"/>
      <point x="230.9" y="700.0" type="line"/>
      <point x="76.12" y="601.7" type="line"/>
      <point x="83.02" y="534.69" type="line"/>
      <point x="185.28" y="607.96" type="line"/>
      <point x="98.47" y="63.4" type="line"/>
      <point x="7.219999999999999" y="63.4" type="line"/>
    </contour>
  </outline>
</glyph>
<glyph name="two" format="2">
  <advance width="302.7"/>
  <unicode hex="0032"/>
  <outline>
    <contour>
      <point x="4.4" y="52.339999999999996" type="curve"/>
      <point x="-0.41999999999999993" y="0.0" type="line"/>
      <point x="227.54" y="0.0" type="line"/>
      <point x="236.74" y="57.44" type="line"/>
      <point x="72.28" y="57.44" type="line"/>
      <point x="209.92000000000002" y="289.2"/>
      <point x="296.36" y="454.9"/>
      <point x="296.36" y="588.16" type="curve" smooth="yes"/>
      <point x="296.36" y="662.56"/>
      <point x="265.3" y="710.0"/>
      <point x="206.14" y="710.0" type="curve" smooth="yes"/>
      <point x="159.84" y="710.0"/>
      <point x="120.3" y="692.14"/>
      <point x="84.48" y="655.76" type="curve"/>
      <point x="101.3" y="599.36" type="line"/>
      <point x="131.58" y="628.54"/>
      <point x="152.92" y="641.4"/>
      <point x="182.68" y="641.4" type="curve" smooth="yes"/>
      <point x="214.72" y="641.4"/>
      <point x="230.86" y="613.6"/>
      <point x="230.86" y="568.76" type="curve" smooth="yes"/>
      <point x="230.48" y="459.84"/>
      <point x="159.38" y="311.3"/>
    </contour>
  </outline>
</glyph>
<glyph name="three" format="2">
  <advance width="302.7"/>
  <unicode hex="0033"/>
  <outline>
    <contour>
      <point x="-21.04" y="34.55" type="line"/>
      <point x="1.7799999999999994" y="6.24"/>
      <point x="35.64" y="-10.0"/>
      <point x="82.25" y="-10.0" type="curve" smooth="yes"/>
      <point x="179.38" y="-10.0"/>
      <point x="254.05" y="93.46000000000001"/>
      <point x="254.05" y="248.53" type="curve" smooth="yes"/>
      <point x="254.05" y="319.21"/>
      <point x="229.85" y="357.35"/>
      <point x="202.92000000000002" y="370.38" type="curve"/>
      <point x="251.29" y="399.37"/>
      <point x="292.90999999999997" y="473.76"/>
      <point x="292.90999999999997" y="574.25" type="curve" smooth="yes"/>
      <point x="292.90999999999997" y="657.62"/>
      <point x="255.85" y="710.0"/>
      <point x="191.82999999999998" y="710.0" type="curve" smooth="yes"/>
      <point x="153.74" y="710.0"/>
      <point x="112.3" y="693.21"/>
      <point x="84.62" y="669.63" type="curve"/>
      <point x="100.27" y="615.57" type="line"/>
      <point x="119.79" y="631.47"/>
      <point x="142.1" y="640.47"/>
      <point x="168.27" y="640.47" type="curve" smooth="yes"/>
      <point x="203.79" y="640.47"/>
      <point x="226.48" y="601.7"/>
      <point x="226.48" y="547.69" type="curve" smooth="yes"/>
      <point x="226.48" y="470.84"/>
      <point x="189.58" y="391.02"/>
      <point x="143.09" y="391.02" type="curve" smooth="yes"/>
      <point x="108.16" y="391.02" type="line"/>
      <point x="99.27" y="337.06" type="line"/>
      <point x="142.58" y="337.06" type="line" smooth="yes"/>
      <point x="174.51" y="337.06"/>
      <point x="191.89" y="304.78"/>
      <point x="191.89" y="248.11" type="curve" smooth="yes"/>
      <point x="191.89" y="140.56"/>
      <point x="149.64" y="57.05"/>
      <point x="82.94" y="57.05" type="curve" smooth="yes"/>
      <point x="53.8" y="57.05"/>
      <point x="32.97" y="67.19"/>
      <point x="13.489999999999998" y="88.71000000000001" type="curve"/>
    </contour>
  </outline>
</glyph>
<glyph name="four" format="2">
  <advance width="302.7"/>
  <unicode hex="0034"/>
  <outline>
    <contour>
      <point x="7.66" y="157.59" type="line"/>
      <point x="149.97" y="157.59" type="line"/>
      <point x="125.24" y="0.0" type="line"/>
      <point x="191.05" y="0.0" type="line"/>
      <point x="215.78" y="157.59" type="line"/>
      <point x="267.68" y="157.59" type="line"/>
      <point x="276.88" y="216.96" type="line"/>
      <point x="225.29" y="216.96" type="line"/>
      <point x="301.98" y="699.31" type="line"/>
      <point x="232.25" y="702.76" type="line"/>
      <point x="12.719999999999999" y="214.89" type="line"/>
    </contour>
    <contour>
      <point x="55.97" y="216.96" type="line"/>
      <point x="220.21" y="578.74" type="line"/>
      <point x="161.96" y="216.96" type="line"/>
    </contour>
  </outline>
</glyph>
<glyph name="five" format="2">
  <advance width="302.7"/>
  <unicode hex="0035"/>
  <outline>
    <contour>
      <point x="-14.14" y="35.21" type="line"/>
      <point x="8.06" y="5.76"/>
      <point x="38.71" y="-10.0"/>
      <point x="81.87" y="-10.0" type="curve" smooth="yes"/>
      <point x="216.51" y="-10.0"/>
      <point x="262.15" y="155.39"/>
      <point x="262.15" y="264.51" type="curve" smooth="yes"/>
      <point x="262.15" y="348.74"/>
      <point x="229.95" y="393.88"/>
      <point x="170.47" y="395.74" type="curve" smooth="yes"/>
      <point x="128.77" y="396.36" type="line"/>
      <point x="177.92000000000002" y="632.57" type="line"/>
      <point x="302.64" y="632.57" type="line"/>
      <point x="312.77" y="700.0" type="line"/>
      <point x="135.64" y="700.0" type="line"/>
      <point x="59.1" y="346.13" type="line"/>
      <point x="66.86" y="334.51" type="line"/>
      <point x="132.2" y="334.51" type="line" smooth="yes"/>
      <point x="178.48" y="334.51"/>
      <point x="195.1" y="302.19"/>
      <point x="195.1" y="246.01" type="curve" smooth="yes"/>
      <point x="195.1" y="182.2"/>
      <point x="169.2" y="57.36"/>
      <point x="82.15" y="57.36" type="curve" smooth="yes"/>
      <point x="49.91" y="57.36"/>
      <point x="29.36" y="73.64"/>
      <point x="15.26" y="91.53999999999999" type="curve"/>
    </contour>
  </outline>
</glyph>
<glyph name="six" format="2">
  <advance width="302.7"/>
  <unicode hex="0036"/>
  <note>
14
</note>
  <outline>
    <contour>
      <point x="115.24000000000001" y="-10.0" type="curve" smooth="yes"/>
      <point x="211.6" y="-10.0"/>
      <point x="274.56" y="116.82"/>
      <point x="274.56" y="289.36" type="curve" smooth="yes"/>
      <point x="274.56" y="377.18"/>
      <point x="238.26" y="417.7"/>
      <point x="187.26" y="417.7" type="curve" smooth="yes"/>
      <point x="146.88" y="417.7"/>
      <point x="110.8" y="389.82"/>
      <point x="81.94" y="330.24" type="curve"/>
      <point x="73.84" y="236.52" type="line"/>
      <point x="93.36" y="307.34"/>
      <point x="126.96000000000001" y="359.64"/>
      <point x="165.32" y="359.64" type="curve" smooth="yes"/>
      <point x="195.5" y="359.64"/>
      <point x="210.54" y="329.32"/>
      <point x="210.54" y="271.48" type="curve" smooth="yes"/>
      <point x="210.54" y="158.0"/>
      <point x="168.7" y="50.78"/>
      <point x="119.34" y="50.78" type="curve" smooth="yes"/>
      <point x="91.4" y="50.78"/>
      <point x="76.36" y="82.0"/>
      <point x="76.36" y="139.16" type="curve" smooth="yes"/>
      <point x="76.36" y="259.92"/>
      <point x="98.02000000000001" y="387.16"/>
      <point x="130.2" y="500.5" type="curve" smooth="yes"/>
      <point x="156.24" y="590.22"/>
      <point x="193.52" y="645.74"/>
      <point x="248.96" y="645.74" type="curve" smooth="yes"/>
      <point x="271.2" y="645.74"/>
      <point x="288.2" y="636.5"/>
      <point x="307.34" y="622.36" type="curve"/>
      <point x="337.32" y="678.28" type="line"/>
      <point x="315.42" y="697.04"/>
      <point x="286.88" y="710.0"/>
      <point x="248.2" y="710.0" type="curve" smooth="yes"/>
      <point x="100.82" y="710.0"/>
      <point x="14.58" y="433.26"/>
      <point x="14.58" y="145.07999999999998" type="curve" smooth="yes"/>
      <point x="14.58" y="36.86"/>
      <point x="48.879999999999995" y="-10.0"/>
    </contour>
  </outline>
</glyph>
<glyph name="seven" format="2">
  <advance width="302.7"/>
  <unicode hex="0037"/>
  <note>
9
</note>
  <outline>
    <contour>
      <point x="42.79" y="0.0" type="curve"/>
      <point x="109.53" y="0.0" type="line"/>
      <point x="128.77" y="113.89"/>
      <point x="153.07999999999998" y="217.11"/>
      <point x="228.91" y="404.71" type="curve" smooth="yes"/>
      <point x="327.43" y="648.59" type="line"/>
      <point x="335.7" y="700.0" type="line"/>
      <point x="87.47" y="700.0" type="line"/>
      <point x="77.03" y="633.81" type="line"/>
      <point x="257.45" y="633.81" type="line"/>
      <point x="169.62" y="423.13" type="line" smooth="yes"/>
      <point x="99.48" y="255.11"/>
      <point x="64.79" y="138.45"/>
    </contour>
  </outline>
</glyph>
<glyph name="eight" format="2">
  <advance width="302.7"/>
  <unicode hex="0038"/>
  <outline>
    <contour>
      <point x="120.62" y="-10.0" type="curve" smooth="yes"/>
      <point x="220.4" y="-10.0"/>
      <point x="271.84" y="77.08"/>
      <point x="271.84" y="194.2" type="curve" smooth="yes"/>
      <point x="271.84" y="358.26"/>
      <point x="127.25999999999999" y="395.88"/>
      <point x="127.25999999999999" y="535.06" type="curve" smooth="yes"/>
      <point x="127.25999999999999" y="599.06"/>
      <point x="150.57999999999998" y="648.22"/>
      <point x="201.56" y="648.22" type="curve" smooth="yes"/>
      <point x="240.26" y="648.22"/>
      <point x="254.92" y="617.04"/>
      <point x="254.92" y="567.44" type="curve" smooth="yes"/>
      <point x="254.92" y="490.56"/>
      <point x="221.68" y="431.26"/>
      <point x="163.76" y="391.04" type="curve"/>
      <point x="196.46" y="354.0" type="line"/>
      <point x="271.02" y="403.14"/>
      <point x="314.84" y="482.32"/>
      <point x="314.84" y="581.08" type="curve" smooth="yes"/>
      <point x="314.84" y="655.32"/>
      <point x="282.15999999999997" y="710.0"/>
      <point x="203.18" y="710.0" type="curve" smooth="yes"/>
      <point x="106.58" y="710.0"/>
      <point x="64.24" y="627.76"/>
      <point x="64.24" y="525.34" type="curve" smooth="yes"/>
      <point x="64.24" y="355.02"/>
      <point x="208.82" y="329.46"/>
      <point x="208.82" y="182.28" type="curve" smooth="yes"/>
      <point x="208.82" y="108.64"/>
      <point x="179.5" y="49.92"/>
      <point x="124.1" y="49.92" type="curve" smooth="yes"/>
      <point x="80.64" y="49.92"/>
      <point x="60.36" y="80.47999999999999"/>
      <point x="60.36" y="137.98" type="curve" smooth="yes"/>
      <point x="60.36" y="226.1"/>
      <point x="92.74000000000001" y="301.3"/>
      <point x="159.42" y="339.52" type="curve"/>
      <point x="124.48" y="380.8" type="line"/>
      <point x="37.68" y="331.86"/>
      <point x="-4.28" y="233.96"/>
      <point x="-4.28" y="128.02" type="curve" smooth="yes"/>
      <point x="-4.28" y="42.3"/>
      <point x="31.54" y="-10.0"/>
    </contour>
  </outline>
</glyph>
<glyph name="nine" format="2">
  <advance width="302.7"/>
  <unicode hex="0039"/>
  <outline>
    <contour>
      <point x="210.94" y="710.0" type="curve" smooth="yes"/>
      <point x="114.58" y="710.0"/>
      <point x="51.0" y="583.18"/>
      <point x="51.0" y="410.64" type="curve" smooth="yes"/>
      <point x="51.0" y="322.82"/>
      <point x="85.44" y="282.92"/>
      <point x="135.82" y="282.92" type="curve" smooth="yes"/>
      <point x="176.82" y="282.92"/>
      <point x="215.38" y="308.32"/>
      <point x="243.62" y="375.96" type="curve"/>
      <point x="251.72" y="464.1" type="line"/>
      <point x="232.82" y="393.28"/>
      <point x="198.6" y="340.98"/>
      <point x="160.24" y="340.98" type="curve" smooth="yes"/>
      <point x="130.68" y="340.98"/>
      <point x="115.64" y="370.68"/>
      <point x="115.64" y="428.52" type="curve" smooth="yes"/>
      <point x="115.64" y="542.62"/>
      <point x="157.48" y="649.22"/>
      <point x="206.22" y="649.22" type="curve" smooth="yes"/>
      <point x="233.54" y="649.22"/>
      <point x="249.2" y="618.0"/>
      <point x="249.2" y="561.46" type="curve" smooth="yes"/>
      <point x="249.2" y="446.28"/>
      <point x="228.16" y="313.46"/>
      <point x="195.36" y="199.5" type="curve" smooth="yes"/>
      <point x="169.94" y="109.78"/>
      <point x="133.28" y="54.26"/>
      <point x="80.98" y="54.26" type="curve" smooth="yes"/>
      <point x="59.36" y="54.26"/>
      <point x="38.36" y="63.12"/>
      <point x="18.22" y="85.16" type="curve"/>
      <point x="-11.76" y="28.62" type="line"/>
      <point x="11.76" y="2.58"/>
      <point x="44.3" y="-10.0"/>
      <point x="84.22" y="-10.0" type="curve" smooth="yes"/>
      <point x="223.22" y="-10.0"/>
      <point x="310.98" y="266.74"/>
      <point x="310.98" y="555.54" type="curve" smooth="yes"/>
      <point x="310.98" y="663.76"/>
      <point x="276.68" y="710.0"/>
    </contour>
  </outline>
</glyph>
<glyph name="less" format="2">
  <advance width="353.71"/>
  <unicode hex="003C"/>
  <outline>
    <contour>
      <point x="291.53" y="94.89" type="line"/>
      <point x="300.42" y="154.09" type="line"/>
      <point x="93.58" y="296.13" type="line"/>
      <point x="345.95" y="439.17" type="line"/>
      <point x="354.84" y="499.44" type="line"/>
      <point x="43.14" y="330.28" type="line"/>
      <point x="32.63" y="264.74" type="line"/>
    </contour>
  </outline>
</glyph>
<glyph name="equal" format="2">
  <advance width="342.24"/>
  <unicode hex="003D"/>
  <outline>
    <contour>
      <point x="293.03" y="223.04" type="line"/>
      <point x="32.89" y="223.04" type="line"/>
      <point x="23.69" y="159.64" type="line"/>
      <point x="283.83" y="159.64" type="line"/>
    </contour>
    <contour>
      <point x="324.72" y="435.0" type="line"/>
      <point x="64.89" y="435.0" type="line"/>
      <point x="55.38" y="371.6" type="line"/>
      <point x="315.52" y="371.6" type="line"/>
    </contour>
  </outline>
</glyph>
<glyph name="greater" format="2">
  <advance width="353.71"/>
  <unicode hex="003E"/>
  <outline>
    <contour>
      <point x="318.12" y="262.67" type="line"/>
      <point x="328.63" y="328.21" type="line"/>
      <point x="69.35" y="498.06" type="line"/>
      <point x="60.46" y="439.17" type="line"/>
      <point x="268.3" y="296.82" type="line"/>
      <point x="15.62" y="154.78" type="line"/>
      <point x="6.04" y="93.51" type="line"/>
    </contour>
  </outline>
</glyph>
<glyph name="question" format="2">
  <advance width="259.4"/>
  <unicode hex="003F"/>
  <outline>
    <contour>
      <point x="84.38" y="262.76" type="line"/>
      <point x="140.82" y="262.76" type="line"/>
      <point x="152.82" y="338.9" type="line"/>
      <point x="233.06" y="416.22"/>
      <point x="294.02" y="482.9"/>
      <point x="294.02" y="615.26" type="curve" smooth="yes"/>
      <point x="294.02" y="701.84"/>
      <point x="253.82" y="750.0"/>
      <point x="189.36" y="750.0" type="curve" smooth="yes"/>
      <point x="150.78" y="750.0"/>
      <point x="109.1" y="729.62"/>
      <point x="75.38" y="696.38" type="curve"/>
      <point x="92.44" y="636.88" type="line"/>
      <point x="121.34" y="664.92"/>
      <point x="145.62" y="678.3"/>
      <point x="170.24" y="678.3" type="curve" smooth="yes"/>
      <point x="202.66" y="678.3"/>
      <point x="225.42" y="652.94"/>
      <point x="225.42" y="597.38" type="curve" smooth="yes"/>
      <point x="225.42" y="500.98"/>
      <point x="182.94" y="442.0"/>
      <point x="100.24" y="369.6" type="curve"/>
    </contour>
    <contour>
      <point x="40.38" y="27.36" type="curve" smooth="yes"/>
      <point x="40.0" y="5.72"/>
      <point x="47.2" y="-3.1"/>
      <point x="69.98" y="-3.1" type="curve" smooth="yes"/>
      <point x="107.68" y="-3.1"/>
      <point x="116.36" y="25.8"/>
      <point x="117.5" y="61.82" type="curve" smooth="yes"/>
      <point x="117.88" y="84.46000000000001"/>
      <point x="109.3" y="92.9"/>
      <point x="87.52" y="92.9" type="curve" smooth="yes"/>
      <point x="51.2" y="92.9"/>
      <point x="41.52" y="64.0"/>
    </contour>
  </outline>
</glyph>
<glyph name="at" format="2">
  <advance width="500.03999999999996"/>
  <unicode hex="0040"/>
  <outline>
    <contour>
      <point x="192.1" y="-124.0" type="curve" smooth="yes"/>
      <point x="240.0" y="-124.0"/>
      <point x="291.02" y="-102.1"/>
      <point x="322.36" y="-61.4" type="curve"/>
      <point x="307.12" y="-36.18" type="line"/>
      <point x="277.44" y="-70.5"/>
      <point x="238.48000000000002" y="-88.78"/>
      <point x="193.48000000000002" y="-88.78" type="curve" smooth="yes"/>
      <point x="103.5" y="-88.78"/>
      <point x="45.42" y="-25.54"/>
      <point x="45.42" y="117.78" type="curve" smooth="yes"/>
      <point x="45.42" y="398.66"/>
      <point x="163.56" y="674.4"/>
      <point x="330.36" y="674.4" type="curve" smooth="yes"/>
      <point x="419.74" y="674.4"/>
      <point x="470.52" y="629.66"/>
      <point x="470.52" y="497.54" type="curve" smooth="yes"/>
      <point x="470.52" y="333.56"/>
      <point x="415.36" y="103.28"/>
      <point x="350.3" y="103.28" type="curve" smooth="yes"/>
      <point x="315.34000000000003" y="103.28"/>
      <point x="321.76" y="162.88"/>
      <point x="330.62" y="201.84" type="curve" smooth="yes"/>
      <point x="405.62" y="524.1" type="line"/>
      <point x="373.18" y="540.06"/>
      <point x="345.02" y="547.78"/>
      <point x="308.52" y="547.78" type="curve" smooth="yes"/>
      <point x="198.18" y="547.78"/>
      <point x="118.66" y="309.82"/>
      <point x="118.66" y="144.12" type="curve" smooth="yes"/>
      <point x="118.66" y="85.72"/>
      <point x="142.48" y="57.9"/>
      <point x="179.64" y="57.9" type="curve" smooth="yes"/>
      <point x="215.84" y="57.9"/>
      <point x="248.32" y="86.0"/>
      <point x="273.65999999999997" y="139.18" type="curve"/>
      <point x="279.72" y="112.02"/>
      <point x="282.7" y="56.66"/>
      <point x="338.9" y="56.66" type="curve" smooth="yes"/>
      <point x="439.7" y="56.66"/>
      <point x="507.98" y="314.66"/>
      <point x="507.98" y="506.02" type="curve" smooth="yes"/>
      <point x="507.98" y="645.92"/>
      <point x="439.08" y="710.0"/>
      <point x="336.32" y="710.0" type="curve" smooth="yes"/>
      <point x="139.92" y="710.0"/>
      <point x="7.34" y="425.44"/>
      <point x="7.34" y="107.06" type="curve" smooth="yes"/>
      <point x="7.34" y="-42.5"/>
      <point x="73.28" y="-124.0"/>
    </contour>
    <contour>
      <point x="208.68" y="121.16" type="curve" smooth="yes"/>
      <point x="193.16" y="121.16"/>
      <point x="184.4" y="136.06"/>
      <point x="184.4" y="165.0" type="curve" smooth="yes"/>
      <point x="184.4" y="291.22"/>
      <point x="256.0" y="496.44"/>
      <point x="304.8" y="496.44" type="curve" smooth="yes"/>
      <point x="315.94" y="496.44"/>
      <point x="328.6" y="494.06"/>
      <point x="339.5" y="488.68" type="curve"/>
      <point x="277.98" y="227.76" type="line" smooth="yes"/>
      <point x="260.94" y="159.66"/>
      <point x="232.24" y="121.16"/>
    </contour>
  </outline>
</glyph>
<glyph name="A" format="2">
  <advance width="319.09"/>
  <unicode hex="0041"/>
  <anchor x="113.63" y="0.0" name="bottom"/>
  <anchor x="260.67" y="0.0" name="ogonek"/>
  <anchor x="221.46" y="700.0" name="top"/>
  <outline>
    <contour>
      <point x="-29.58" y="0.0" type="line"/>
      <point x="35.61" y="0.0" type="line"/>
      <point x="90.03999999999999" y="182.25" type="line"/>
      <point x="197.65" y="182.25" type="line"/>
      <point x="194.86" y="0.0" type="line"/>
      <point x="260.67" y="0.0" type="line"/>
      <point x="269.65999999999997" y="706.9" type="line"/>
      <point x="177.64" y="706.9" type="line"/>
    </contour>
    <contour>
      <point x="105.34" y="244.96" type="line"/>
      <point x="210.98" y="623.92" type="line"/>
      <point x="202.61" y="244.96" type="line"/>
    </contour>
  </outline>
</glyph>
<glyph name="B" format="2">
  <advance width="302.47"/>
  <unicode hex="0042"/>
  <outline>
    <contour>
      <point x="-7.27" y="-2.59" type="line"/>
      <point x="29.3" y="-8.07"/>
      <point x="53.33" y="-10.0"/>
      <point x="88.52" y="-10.0" type="curve" smooth="yes"/>
      <point x="230.23" y="-10.0"/>
      <point x="276.05" y="131.59"/>
      <point x="276.05" y="243.44" type="curve" smooth="yes"/>
      <point x="276.05" y="309.72"/>
      <point x="252.46" y="350.13"/>
      <point x="215.56" y="365.92" type="curve"/>
      <point x="286.43" y="400.02"/>
      <point x="314.88" y="508.25"/>
      <point x="314.88" y="585.98" type="curve" smooth="yes"/>
      <point x="314.88" y="665.63"/>
      <point x="278.68" y="710.0"/>
      <point x="197.35" y="710.0" type="curve" smooth="yes"/>
      <point x="176.25" y="710.0"/>
      <point x="143.85" y="707.69"/>
      <point x="103.49" y="701.21" type="curve"/>
    </contour>
    <contour>
      <point x="116.92" y="382.6" type="line"/>
      <point x="158.31" y="646.15" type="line"/>
      <point x="171.21" y="648.84"/>
      <point x="183.11" y="650.15"/>
      <point x="194.25" y="650.15" type="curve" smooth="yes"/>
      <point x="234.23" y="650.15"/>
      <point x="254.34" y="627.04"/>
      <point x="254.34" y="567.44" type="curve" smooth="yes"/>
      <point x="254.34" y="487.57"/>
      <point x="217.16" y="382.6"/>
      <point x="153.21" y="382.6" type="curve" smooth="yes"/>
    </contour>
    <contour>
      <point x="107.72" y="323.92" type="line"/>
      <point x="154.53" y="323.92" type="line" smooth="yes"/>
      <point x="189.16" y="323.92"/>
      <point x="213.34" y="292.29"/>
      <point x="213.34" y="234.24" type="curve" smooth="yes"/>
      <point x="213.34" y="144.71"/>
      <point x="182.3" y="50.54"/>
      <point x="97.89" y="50.54" type="curve" smooth="yes"/>
      <point x="87.99000000000001" y="50.54"/>
      <point x="78.16" y="51.23"/>
      <point x="64.64" y="53.54" type="curve"/>
    </contour>
  </outline>
</glyph>
<glyph name="C" format="2">
  <advance width="268.76"/>
  <unicode hex="0043"/>
  <anchor x="144.75" y="0.0" name="bottom"/>
  <anchor x="246.43" y="700.0" name="top"/>
  <outline>
    <contour>
      <point x="157.46" y="-10.0" type="curve" smooth="yes"/>
      <point x="183.87" y="-10.0"/>
      <point x="204.97" y="-7.0"/>
      <point x="222.31" y="-0.14000000000000012" type="curve"/>
      <point x="217.62" y="58.4" type="line"/>
      <point x="204.31" y="54.4"/>
      <point x="187.69" y="52.089999999999996"/>
      <point x="171.17000000000002" y="52.089999999999996" type="curve" smooth="yes"/>
      <point x="113.68" y="52.089999999999996"/>
      <point x="86.92" y="90.1"/>
      <point x="86.92" y="191.8" type="curve" smooth="yes"/>
      <point x="86.92" y="441.95"/>
      <point x="155.14" y="647.91"/>
      <point x="252.32" y="647.91" type="curve" smooth="yes"/>
      <point x="268.63" y="647.91"/>
      <point x="282.77" y="644.91"/>
      <point x="302.15" y="638.29" type="curve"/>
      <point x="323.1" y="694.73" type="line"/>
      <point x="305.07" y="705.14"/>
      <point x="278.56" y="710.0"/>
      <point x="250.98" y="710.0" type="curve" smooth="yes"/>
      <point x="114.86" y="710.0"/>
      <point x="22.66" y="491.3"/>
      <point x="22.66" y="181.19" type="curve" smooth="yes"/>
      <point x="22.66" y="48.51"/>
      <point x="66.06" y="-10.0"/>
    </contour>
  </outline>
</glyph>
<glyph name="D" format="2">
  <advance width="323.37"/>
  <unicode hex="0044"/>
  <anchor x="107.25" y="0.0" name="bottom"/>
  <anchor x="172.42248999999998" y="350.0" name="center"/>
  <anchor x="204.63" y="700.0" name="top"/>
  <outline>
    <contour>
      <point x="82.83" y="-10.0" type="curve" smooth="yes"/>
      <point x="233.26" y="-10.0"/>
      <point x="320.33" y="201.52"/>
      <point x="320.33" y="477.31" type="curve" smooth="yes"/>
      <point x="320.33" y="641.79"/>
      <point x="278.86" y="710.0"/>
      <point x="180.07999999999998" y="710.0" type="curve" smooth="yes"/>
      <point x="154.78" y="710.0"/>
      <point x="133.41" y="708.38"/>
      <point x="103.49" y="704.21" type="curve"/>
      <point x="-7.89" y="-2.59" type="line"/>
      <point x="20.72" y="-7.76"/>
      <point x="48.67" y="-10.0"/>
    </contour>
    <contour>
      <point x="92.27000000000001" y="47.92" type="curve" smooth="yes"/>
      <point x="81.75" y="47.92"/>
      <point x="73.61" y="48.92"/>
      <point x="63.33" y="50.61" type="curve"/>
      <point x="158.0" y="646.29" type="line"/>
      <point x="168.21" y="647.29"/>
      <point x="175.35" y="647.6"/>
      <point x="183.49" y="647.6" type="curve" smooth="yes"/>
      <point x="236.37" y="647.6"/>
      <point x="257.0" y="601.62"/>
      <point x="257.0" y="476.55" type="curve" smooth="yes"/>
      <point x="257.0" y="258.09"/>
      <point x="183.71" y="47.92"/>
    </contour>
  </outline>
</glyph>
<glyph name="E" format="2">
  <advance width="261.55"/>
  <unicode hex="0045"/>
  <anchor x="102.4" y="0.0" name="bottom"/>
  <anchor x="206.86" y="0.0" name="ogonek"/>
  <anchor x="208.64" y="700.0" name="top"/>
  <anchor x="85.71703" y="700.0" name="topleft"/>
  <outline>
    <contour>
      <point x="-7.2" y="0.0" type="line"/>
      <point x="206.86" y="0.0" type="line"/>
      <point x="216.68" y="62.089999999999996" type="line"/>
      <point x="65.64" y="62.089999999999996" type="line"/>
      <point x="107.78999999999999" y="329.2" type="line"/>
      <point x="233.35" y="329.2" type="line"/>
      <point x="243.17000000000002" y="388.19" type="line"/>
      <point x="117.3" y="388.19" type="line"/>
      <point x="156.0" y="636.36" type="line"/>
      <point x="298.04" y="636.36" type="line"/>
      <point x="309.17" y="700.0" type="line"/>
      <point x="102.8" y="700.0" type="line"/>
    </contour>
  </outline>
</glyph>
<glyph name="F" format="2">
  <advance width="248.03"/>
  <unicode hex="0046"/>
  <outline>
    <contour>
      <point x="-7.51" y="0.0" type="line"/>
      <point x="55.13" y="0.0" type="line"/>
      <point x="104.62" y="309.08" type="line"/>
      <point x="217.14" y="309.08" type="line"/>
      <point x="227.27" y="372.72" type="line"/>
      <point x="114.44" y="372.72" type="line"/>
      <point x="156.0" y="636.36" type="line"/>
      <point x="298.11" y="636.36" type="line"/>
      <point x="308.55" y="700.0" type="line"/>
      <point x="102.8" y="700.0" type="line"/>
    </contour>
  </outline>
</glyph>
<glyph name="G" format="2">
  <advance width="297.99"/>
  <unicode hex="0047"/>
  <anchor x="148.63" y="0.0" name="bottom"/>
  <anchor x="247.22" y="700.0" name="top"/>
  <outline>
    <contour>
      <point x="155.46" y="-10.0" type="curve" smooth="yes"/>
      <point x="179.52" y="-10.0"/>
      <point x="209.3" y="-4.83"/>
      <point x="228.74" y="7.23" type="curve"/>
      <point x="284.90999999999997" y="362.56" type="line"/>
      <point x="166.87" y="362.56" type="line"/>
      <point x="157.98" y="305.74" type="line"/>
      <point x="218.58" y="305.74" type="line"/>
      <point x="178.26" y="52.61" type="line"/>
      <point x="172.81" y="50.61"/>
      <point x="163.12" y="49.61"/>
      <point x="155.36" y="49.61" type="curve" smooth="yes"/>
      <point x="106.24000000000001" y="49.61"/>
      <point x="84.13" y="86.38"/>
      <point x="84.13" y="184.98" type="curve" smooth="yes"/>
      <point x="84.13" y="433.27"/>
      <point x="151.73" y="647.6"/>
      <point x="250.15" y="647.6" type="curve" smooth="yes"/>
      <point x="271.42" y="647.6"/>
      <point x="290.52" y="641.81"/>
      <point x="309.59" y="635.5" type="curve"/>
      <point x="329.92" y="694.11" type="line"/>
      <point x="308.86" y="704.07"/>
      <point x="279.8" y="710.0"/>
      <point x="250.67" y="710.0" type="curve" smooth="yes"/>
      <point x="100.53" y="710.0"/>
      <point x="22.35" y="459.99"/>
      <point x="22.35" y="181.5" type="curve" smooth="yes"/>
      <point x="22.35" y="49.75"/>
      <point x="66.37" y="-10.0"/>
    </contour>
  </outline>
</glyph>
<glyph name="H" format="2">
  <advance width="329.40999999999997"/>
  <unicode hex="0048"/>
  <anchor x="121.18763999999999" y="0.0" name="bottom"/>
  <anchor x="177.01248999999999" y="350.0" name="center"/>
  <anchor x="232.14703" y="700.0" name="top"/>
  <anchor x="85.71703" y="700.0" name="topleft"/>
  <outline>
    <contour>
      <point x="-7.51" y="0.0" type="line"/>
      <point x="56.51" y="0.0" type="line"/>
      <point x="100.03" y="276.12" type="line"/>
      <point x="229.8" y="276.12" type="line"/>
      <point x="186.59" y="0.0" type="line"/>
      <point x="249.61" y="0.0" type="line"/>
      <point x="360.61" y="700.0" type="line"/>
      <point x="297.28" y="700.0" type="line"/>
      <point x="239.62" y="337.28" type="line"/>
      <point x="109.16" y="337.28" type="line"/>
      <point x="166.82" y="700.0" type="line"/>
      <point x="102.8" y="700.0" type="line"/>
    </contour>
  </outline>
</glyph>
<glyph name="I" format="2">
  <advance width="135.62"/>
  <unicode hex="0049"/>
  <anchor x="23.94764" y="0.0" name="bottom"/>
  <anchor x="56.75868" y="3.1" name="ogonek"/>
  <anchor x="134.90703" y="700.0" name="top"/>
  <anchor x="85.71703" y="700.0" name="topleft"/>
  <outline>
    <contour>
      <point x="-7.51" y="0.0" type="line"/>
      <point x="55.82" y="0.0" type="line"/>
      <point x="166.82" y="700.0" type="line"/>
      <point x="102.8" y="700.0" type="line"/>
    </contour>
  </outline>
</glyph>
<glyph name="J" format="2">
  <advance width="223.52"/>
  <unicode hex="004A"/>
  <anchor x="34.58764" y="0.0" name="bottom"/>
  <anchor x="176.22" y="700.0" name="top"/>
  <outline>
    <contour>
      <point x="-39.0" y="5.369999999999999" type="line"/>
      <point x="-18.52" y="-3.66"/>
      <point x="3.3000000000000007" y="-10.0"/>
      <point x="30.63" y="-10.0" type="curve" smooth="yes"/>
      <point x="117.32" y="-10.0"/>
      <point x="154.03" y="48.269999999999996"/>
      <point x="167.75" y="134.97" type="curve" smooth="yes"/>
      <point x="257.40999999999997" y="700.0" type="line"/>
      <point x="88.13" y="700.0" type="line"/>
      <point x="78.62" y="640.39" type="line"/>
      <point x="184.57" y="640.39" type="line"/>
      <point x="107.14" y="155.53" type="line" smooth="yes"/>
      <point x="95.21" y="81.64"/>
      <point x="68.1" y="57.67"/>
      <point x="20.85" y="57.67" type="curve" smooth="yes"/>
      <point x="8.4" y="57.67"/>
      <point x="-7.529999999999999" y="61.29"/>
      <point x="-21.29" y="66.28999999999999" type="curve"/>
    </contour>
  </outline>
</glyph>
<glyph name="K" format="2">
  <advance width="303.04"/>
  <unicode hex="004B"/>
  <anchor x="124.75999999999999" y="0.0" name="bottom"/>
  <anchor x="215.38" y="700.0" name="top"/>
  <outline>
    <contour>
      <point x="-7.82" y="0.0" type="line"/>
      <point x="55.82" y="0.0" type="line"/>
      <point x="166.82" y="700.0" type="line"/>
      <point x="102.8" y="700.0" type="line"/>
    </contour>
    <contour>
      <point x="233.44" y="-9.62" type="curve" smooth="yes"/>
      <point x="243.4" y="-9.62"/>
      <point x="256.46" y="-6.140000000000001"/>
      <point x="263.08" y="-2.52" type="curve"/>
      <point x="267.14" y="72.52" type="line"/>
      <point x="264.52" y="72.14"/>
      <point x="260.9" y="71.14"/>
      <point x="256.9" y="71.14" type="curve" smooth="yes"/>
      <point x="242.8" y="71.14"/>
      <point x="228.5" y="80.38"/>
      <point x="208.88" y="143.18" type="curve" smooth="yes"/>
      <point x="115.16" y="444.14" type="line"/>
      <point x="94.66" y="328.94" type="line"/>
      <point x="170.42" y="79.66" type="line" smooth="yes"/>
      <point x="192.8" y="5.2"/>
      <point x="205.76" y="-9.62"/>
    </contour>
    <contour>
      <point x="149.8" y="286.32" type="line"/>
      <point x="216.64" y="370.06"/>
      <point x="302.68" y="513.48"/>
      <point x="351.76" y="690.98" type="curve"/>
      <point x="297.8" y="706.9" type="line"/>
      <point x="248.72" y="539.7"/>
      <point x="177.4" y="412.28"/>
      <point x="128.68" y="346.9" type="curve"/>
    </contour>
  </outline>
</glyph>
<glyph name="L" format="2">
  <advance width="237.27"/>
  <unicode hex="004C"/>
  <anchor x="93.28999999999999" y="0.0" name="bottom"/>
  <anchor x="122.66248999999999" y="350.0" name="center"/>
  <anchor x="134.12" y="700.0" name="top"/>
  <anchor x="225.94" y="700.0" name="topright"/>
  <outline>
    <contour>
      <point x="-8.2" y="0.0" type="line"/>
      <point x="186.03" y="0.0" type="line"/>
      <point x="195.85" y="62.089999999999996" type="line"/>
      <point x="64.95" y="62.089999999999996" type="line"/>
      <point x="166.13" y="700.0" type="line"/>
      <point x="102.8" y="700.0" type="line"/>
    </contour>
  </outline>
</glyph>
<glyph name="M" format="2">
  <advance width="369.83"/>
  <unicode hex="004D"/>
  <outline>
    <contour>
      <point x="-7.51" y="0.0" type="line"/>
      <point x="50.86" y="0.0" type="line"/>
      <point x="139.53" y="566.6800000000001" type="line"/>
      <point x="157.95" y="231.43" type="line"/>
      <point x="195.76" y="231.43" type="line"/>
      <point x="321.4" y="566.2" type="line"/>
      <point x="231.35" y="0.0" type="line"/>
      <point x="290.03" y="0.0" type="line"/>
      <point x="401.03" y="700.0" type="line"/>
      <point x="327.29" y="700.0" type="line"/>
      <point x="192.79" y="338.89" type="line"/>
      <point x="172.51" y="700.0" type="line"/>
      <point x="102.8" y="700.0" type="line"/>
    </contour>
  </outline>
</glyph>
<glyph name="N" format="2">
  <advance width="332.61"/>
  <unicode hex="004E"/>
  <anchor x="130.53" y="0.0" name="bottom"/>
  <anchor x="233.46" y="700.0" name="top"/>
  <outline>
    <contour>
      <point x="-7.51" y="0.0" type="line"/>
      <point x="50.55" y="0.0" type="line"/>
      <point x="135.5" y="540.54" type="line"/>
      <point x="187.1" y="0.0" type="line"/>
      <point x="252.81" y="0.0" type="line"/>
      <point x="363.81" y="700.0" type="line"/>
      <point x="305.75" y="700.0" type="line"/>
      <point x="219.32" y="150.68" type="line"/>
      <point x="169.89" y="700.0" type="line"/>
      <point x="102.8" y="700.0" type="line"/>
    </contour>
  </outline>
</glyph>
<glyph name="O" format="2">
  <advance width="334.44"/>
  <unicode hex="004F"/>
  <note>
8
</note>
  <anchor x="124.22" y="0.0" name="bottom"/>
  <anchor x="179.6" y="350.0" name="center"/>
  <anchor x="169.24" y="1.24" name="ogonek"/>
  <anchor x="238.36" y="700.0" name="top"/>
  <anchor x="88.62" y="700.0" name="topleft"/>
  <anchor x="298.34" y="700.0" name="topright"/>
  <outline>
    <contour>
      <point x="125.7" y="-10.0" type="curve" smooth="yes"/>
      <point x="277.28" y="-10.0"/>
      <point x="340.92" y="335.8"/>
      <point x="340.92" y="549.4" type="curve" smooth="yes"/>
      <point x="340.92" y="668.42"/>
      <point x="305.38" y="710.0"/>
      <point x="232.74" y="710.0" type="curve" smooth="yes"/>
      <point x="81.16" y="710.0"/>
      <point x="17.52" y="364.2"/>
      <point x="17.52" y="150.6" type="curve" smooth="yes"/>
      <point x="17.52" y="31.58"/>
      <point x="53.06" y="-10.0"/>
    </contour>
    <contour>
      <point x="131.66" y="55.12" type="curve" smooth="yes"/>
      <point x="96.68" y="55.12"/>
      <point x="81.78" y="75.06"/>
      <point x="81.78" y="149.36" type="curve" smooth="yes"/>
      <point x="81.78" y="316.65999999999997"/>
      <point x="142.7" y="644.88"/>
      <point x="226.78" y="644.88" type="curve" smooth="yes"/>
      <point x="261.76" y="644.88"/>
      <point x="276.66" y="624.94"/>
      <point x="276.66" y="550.64" type="curve" smooth="yes"/>
      <point x="276.66" y="383.34000000000003"/>
      <point x="215.74" y="55.12"/>
    </contour>
  </outline>
</glyph>
<glyph name="P" format="2">
  <advance width="294.22"/>
  <unicode hex="0050"/>
  <outline>
    <contour>
      <point x="-7.2" y="0.0" type="line"/>
      <point x="56.13" y="0.0" type="line"/>
      <point x="96.31" y="252.22" type="line"/>
      <point x="107.2" y="250.29"/>
      <point x="113.96000000000001" y="250.29"/>
      <point x="143.93" y="250.29" type="curve" smooth="yes"/>
      <point x="246.99" y="250.29"/>
      <point x="317.90999999999997" y="384.45"/>
      <point x="317.90999999999997" y="566.92" type="curve" smooth="yes"/>
      <point x="317.90999999999997" y="668.01"/>
      <point x="282.02" y="710.0"/>
      <point x="202.45" y="710.0" type="curve" smooth="yes"/>
      <point x="175.39" y="710.0"/>
      <point x="137.96" y="707.69"/>
      <point x="103.8" y="703.38" type="curve"/>
    </contour>
    <contour>
      <point x="158.62" y="645.15" type="line"/>
      <point x="169.45" y="647.84"/>
      <point x="180.28" y="648.84"/>
      <point x="193.56" y="648.84" type="curve" smooth="yes"/>
      <point x="237.09" y="648.84"/>
      <point x="255.82" y="625.32"/>
      <point x="255.82" y="555.41" type="curve" smooth="yes"/>
      <point x="255.82" y="426.11"/>
      <point x="206.71" y="311.45"/>
      <point x="140.82999999999998" y="311.45" type="curve" smooth="yes"/>
      <point x="129.62" y="311.45"/>
      <point x="118.03" y="312.14"/>
      <point x="105.82" y="313.45" type="curve"/>
    </contour>
  </outline>
</glyph>
<glyph name="Q" format="2">
  <advance width="333.51"/>
  <unicode hex="0051"/>
  <note>
14
</note>
  <outline>
    <contour>
      <point x="227.59" y="-174.11" type="curve" smooth="yes"/>
      <point x="241.82999999999998" y="-174.11"/>
      <point x="258.83" y="-172.8"/>
      <point x="274.21" y="-167.42" type="curve"/>
      <point x="277.65" y="-109.81" type="line"/>
      <point x="266.58" y="-113.5"/>
      <point x="252.51" y="-115.5"/>
      <point x="239.51" y="-115.5" type="curve" smooth="yes"/>
      <point x="197.82" y="-115.5"/>
      <point x="162.78" y="-93.67"/>
      <point x="163.16" y="5.89" type="curve"/>
      <point x="111.06" y="4.51" type="line"/>
      <point x="108.82" y="-134.04"/>
      <point x="166.32" y="-174.11"/>
    </contour>
    <component base="O"/>
  </outline>
</glyph>
<glyph name="R" format="2">
  <advance width="300.7"/>
  <unicode hex="0052"/>
  <anchor x="123.42" y="0.0" name="bottom"/>
  <anchor x="201.22" y="700.0" name="top"/>
  <outline>
    <contour>
      <point x="-7.82" y="0.0" type="line"/>
      <point x="55.82" y="0.0" type="line"/>
      <point x="98.86" y="274.0" type="line"/>
      <point x="105.24000000000001" y="274.0"/>
      <point x="114.14" y="273.0"/>
      <point x="138.82" y="273.0" type="curve"/>
      <point x="138.82" y="273.0" type="line"/>
      <point x="240.92000000000002" y="273.0"/>
      <point x="319.84" y="389.96"/>
      <point x="319.84" y="559.06" type="curve" smooth="yes"/>
      <point x="319.84" y="661.84"/>
      <point x="277.06" y="710.0"/>
      <point x="197.18" y="710.0" type="curve" smooth="yes"/>
      <point x="164.3" y="710.0"/>
      <point x="134.86" y="707.38"/>
      <point x="103.8" y="702.76" type="curve"/>
    </contour>
    <contour>
      <point x="226.96" y="-10.0" type="curve" smooth="yes"/>
      <point x="235.82" y="-10.0"/>
      <point x="250.88" y="-6.38"/>
      <point x="256.36" y="-3.14" type="curve"/>
      <point x="259.8" y="64.32" type="line"/>
      <point x="255.42000000000002" y="62.94"/>
      <point x="252.8" y="62.94"/>
      <point x="250.8" y="62.94" type="curve" smooth="yes"/>
      <point x="228.98" y="63.32"/>
      <point x="222.3" y="83.28"/>
      <point x="190.22" y="309.98" type="curve"/>
      <point x="136.5" y="294.44" type="line"/>
      <point x="180.78" y="4.38"/>
      <point x="186.52" y="-10.0"/>
    </contour>
    <contour>
      <point x="139.38" y="333.3" type="curve" smooth="yes"/>
      <point x="128.1" y="333.3"/>
      <point x="117.96000000000001" y="333.92"/>
      <point x="108.44" y="334.92" type="curve"/>
      <point x="158.62" y="646.46" type="line"/>
      <point x="172.52" y="649.46"/>
      <point x="184.04" y="650.46"/>
      <point x="194.56" y="650.46" type="curve" smooth="yes"/>
      <point x="239.54" y="650.46"/>
      <point x="256.82" y="619.42"/>
      <point x="256.82" y="560.82" type="curve" smooth="yes"/>
      <point x="256.82" y="427.32"/>
      <point x="203.88" y="333.3"/>
    </contour>
  </outline>
</glyph>
<glyph name="S" format="2">
  <advance width="273.57"/>
  <unicode hex="0053"/>
  <anchor x="85.69" y="0.0" name="bottom"/>
  <anchor x="213.63" y="700.0" name="top"/>
  <outline>
    <contour>
      <point x="300.74" y="689.18" type="line"/>
      <point x="281.09" y="701.9"/>
      <point x="250.79" y="710.0"/>
      <point x="215.7" y="710.0" type="curve" smooth="yes"/>
      <point x="124.03" y="710.0"/>
      <point x="61.01" y="637.18"/>
      <point x="61.01" y="515.74" type="curve" smooth="yes"/>
      <point x="61.01" y="381.03"/>
      <point x="173.99" y="287.8"/>
      <point x="173.99" y="177.85" type="curve" smooth="yes"/>
      <point x="173.99" y="105.75999999999999"/>
      <point x="134.74" y="52.78"/>
      <point x="75.25" y="52.78" type="curve" smooth="yes"/>
      <point x="45.629999999999995" y="52.78"/>
      <point x="24.46" y="58.33"/>
      <point x="-2.1500000000000004" y="71.43" type="curve"/>
      <point x="-25.55" y="14.06" type="line"/>
      <point x="-2.49" y="-1.52"/>
      <point x="34.5" y="-10.0"/>
      <point x="75.59" y="-10.0" type="curve" smooth="yes"/>
      <point x="170.85" y="-10.0"/>
      <point x="238.01" y="69.27"/>
      <point x="238.01" y="182.54" type="curve" smooth="yes"/>
      <point x="238.01" y="317.8"/>
      <point x="126.89" y="410.58"/>
      <point x="126.89" y="520.22" type="curve" smooth="yes"/>
      <point x="126.89" y="601.55"/>
      <point x="165.24" y="648.6"/>
      <point x="218.59" y="648.6" type="curve" smooth="yes"/>
      <point x="241.59" y="648.6"/>
      <point x="259.17" y="644.98"/>
      <point x="278.96" y="634.74" type="curve"/>
    </contour>
  </outline>
</glyph>
<glyph name="T" format="2">
  <advance width="264.78"/>
  <unicode hex="0054"/>
  <anchor x="88.52763999999999" y="0.0" name="bottom"/>
  <anchor x="144.35249" y="350.0" name="center"/>
  <anchor x="199.48703" y="700.0" name="top"/>
  <outline>
    <contour>
      <point x="316.34" y="639.77" type="line"/>
      <point x="326.15999999999997" y="700.0" type="line"/>
      <point x="72.93" y="700.0" type="line"/>
      <point x="63.11" y="639.77" type="line"/>
      <point x="157.87" y="639.77" type="line"/>
      <point x="56.38" y="0.0" type="line"/>
      <point x="119.71000000000001" y="0.0" type="line"/>
      <point x="221.2" y="639.77" type="line"/>
    </contour>
  </outline>
</glyph>
<glyph name="U" format="2">
  <advance width="322.1"/>
  <unicode hex="0055"/>
  <anchor x="117.18763999999999" y="0.0" name="bottom"/>
  <anchor x="158.14" y="0.0" name="ogonek"/>
  <anchor x="226.76703" y="700.0" name="top"/>
  <anchor x="346.69" y="700.0" name="topright"/>
  <outline>
    <contour>
      <point x="114.43" y="-10.0" type="curve" smooth="yes"/>
      <point x="202.48" y="-10.0"/>
      <point x="250.92000000000002" y="41.89"/>
      <point x="269.4" y="157.07999999999998" type="curve" smooth="yes"/>
      <point x="355.99" y="700.0" type="line"/>
      <point x="291.97" y="700.0" type="line"/>
      <point x="203.83" y="145.3" type="line" smooth="yes"/>
      <point x="194.24" y="82.07"/>
      <point x="169.61" y="50.54"/>
      <point x="126.25" y="50.54" type="curve" smooth="yes"/>
      <point x="85.27000000000001" y="50.54"/>
      <point x="66.09" y="80.62"/>
      <point x="74.61" y="131.5" type="curve" smooth="yes"/>
      <point x="163.75" y="700.0" type="line"/>
      <point x="100.42" y="700.0" type="line"/>
      <point x="12.45" y="139.82999999999998" type="line" smooth="yes"/>
      <point x="9.52" y="122.63"/>
      <point x="8.9" y="115.36"/>
      <point x="8.9" y="99.74" type="curve" smooth="yes"/>
      <point x="8.9" y="28.03"/>
      <point x="45.86" y="-10.0"/>
    </contour>
  </outline>
</glyph>
<glyph name="V" format="2">
  <advance width="306.8"/>
  <unicode hex="0056"/>
  <outline>
    <contour>
      <point x="149.42000000000002" y="0.0" type="line"/>
      <point x="299.29" y="421.44"/>
      <point x="343.01" y="544.46"/>
      <point x="351.69" y="665.27" type="curve" smooth="yes"/>
      <point x="352.0" y="677.41"/>
      <point x="351.62" y="687.17"/>
      <point x="349.55" y="700.0" type="curve"/>
      <point x="280.71" y="700.0" type="line"/>
      <point x="282.09" y="688.79"/>
      <point x="282.78" y="680.34"/>
      <point x="282.78" y="671.2" type="curve" smooth="yes"/>
      <point x="278.75" y="561.41"/>
      <point x="242.23" y="450.93"/>
      <point x="123.41" y="84.96000000000001" type="curve"/>
      <point x="145.22" y="700.0" type="line"/>
      <point x="72.21" y="700.0" type="line"/>
      <point x="64.8" y="0.0" type="line"/>
    </contour>
  </outline>
</glyph>
<glyph name="W" format="2">
  <advance width="489.76"/>
  <unicode hex="0057"/>
  <anchor x="198.38" y="0.0" name="bottom"/>
  <anchor x="316.9" y="700.0" name="top"/>
  <outline>
    <contour>
      <point x="336.15999999999997" y="-1.0" type="line"/>
      <point x="500.0" y="472.98"/>
      <point x="531.86" y="588.84"/>
      <point x="534.34" y="668.2" type="curve" smooth="yes"/>
      <point x="534.34" y="679.72"/>
      <point x="533.96" y="688.48"/>
      <point x="531.58" y="700.0" type="curve"/>
      <point x="464.22" y="700.0" type="line"/>
      <point x="465.6" y="689.48"/>
      <point x="466.98" y="680.72"/>
      <point x="466.98" y="671.2" type="curve" smooth="yes"/>
      <point x="465.12" y="576.2"/>
      <point x="441.88" y="493.88"/>
      <point x="312.12" y="97.5" type="curve"/>
      <point x="342.7" y="636.44" type="line"/>
      <point x="272.68" y="636.44" type="line"/>
      <point x="224.46" y="460.7"/>
      <point x="168.18" y="267.98"/>
      <point x="116.86" y="102.78" type="curve"/>
      <point x="142.5" y="700.0" type="line"/>
      <point x="73.9" y="700.0" type="line"/>
      <point x="56.32" y="-1.0" type="line"/>
      <point x="127.64" y="-1.0" type="line"/>
      <point x="187.54" y="182.88"/>
      <point x="240.62" y="351.6"/>
      <point x="288.12" y="515.64" type="curve"/>
      <point x="260.12" y="-1.0" type="line"/>
    </contour>
  </outline>
</glyph>
<glyph name="X" format="2">
  <advance width="323.5"/>
  <unicode hex="0058"/>
  <outline>
    <contour>
      <point x="218.0" y="-4.140000000000001" type="line"/>
      <point x="284.12" y="-1.0" type="line"/>
      <point x="214.18" y="331.5" type="line"/>
      <point x="290.92" y="476.88"/>
      <point x="358.94" y="598.26"/>
      <point x="358.94" y="700.0" type="curve"/>
      <point x="292.82" y="700.0" type="line"/>
      <point x="292.44" y="602.26"/>
      <point x="252.9" y="529.74"/>
      <point x="186.86" y="402.38" type="curve"/>
      <point x="127.36" y="704.76" type="line"/>
      <point x="65.1" y="701.24" type="line"/>
      <point x="133.42" y="365.26" type="line"/>
      <point x="55.14" y="226.2"/>
      <point x="-14.68" y="109.38"/>
      <point x="-13.54" y="0.0" type="curve"/>
      <point x="53.44" y="0.0" type="line"/>
      <point x="52.3" y="93.18"/>
      <point x="96.9" y="184.34"/>
      <point x="158.64" y="296.86" type="curve"/>
    </contour>
  </outline>
</glyph>
<glyph name="Y" format="2">
  <advance width="296.32"/>
  <unicode hex="0059"/>
  <anchor x="103.9" y="0.0" name="bottom"/>
  <anchor x="214.21" y="700.0" name="top"/>
  <anchor x="92.69" y="700.0" name="topleft"/>
  <outline>
    <contour>
      <point x="69.72" y="0.0" type="line"/>
      <point x="132.12" y="0.0" type="line"/>
      <point x="177.85" y="281.83" type="line"/>
      <point x="247.29" y="393.36"/>
      <point x="309.05" y="514.87"/>
      <point x="346.21" y="660.03" type="curve" smooth="yes"/>
      <point x="349.21" y="673.48"/>
      <point x="351.83" y="687.24"/>
      <point x="354.14" y="700.69" type="curve"/>
      <point x="283.44" y="703.45" type="line"/>
      <point x="281.75" y="691.0"/>
      <point x="279.75" y="678.24"/>
      <point x="277.06" y="665.79" type="curve" smooth="yes"/>
      <point x="252.68" y="546.54"/>
      <point x="211.91" y="444.16"/>
      <point x="158.9" y="352.06" type="curve"/>
      <point x="143.53" y="702.76" type="line"/>
      <point x="71.9" y="700.69" type="line"/>
      <point x="114.07" y="281.83" type="line"/>
    </contour>
  </outline>
</glyph>
<glyph name="Z" format="2">
  <advance width="275.15999999999997"/>
  <unicode hex="005A"/>
  <anchor x="96.46000000000001" y="0.0" name="bottom"/>
  <anchor x="147.32" y="350.0" name="center"/>
  <anchor x="206.46" y="700.0" name="top"/>
  <outline>
    <contour>
      <point x="-31.62" y="0.0" type="line"/>
      <point x="222.68" y="0.0" type="line"/>
      <point x="233.12" y="61.16" type="line"/>
      <point x="42.98" y="61.16" type="line"/>
      <point x="316.2" y="639.12" type="line"/>
      <point x="325.64" y="700.0" type="line"/>
      <point x="94.9" y="700.0" type="line"/>
      <point x="85.08" y="638.84" type="line"/>
      <point x="252.04" y="638.84" type="line"/>
      <point x="-21.8" y="59.64" type="line"/>
    </contour>
  </outline>
</glyph>
<glyph name="bracketleft" format="2">
  <advance width="185.87"/>
  <unicode hex="005B"/>
  <outline>
    <contour>
      <point x="26.38" y="-151.7" type="line"/>
      <point x="159.6" y="681.7" type="line"/>
      <point x="242.74" y="681.7" type="line"/>
      <point x="252.56" y="740.0" type="line"/>
      <point x="114.39" y="740.0" type="line"/>
      <point x="-37.78" y="-210.0" type="line"/>
      <point x="99.39" y="-210.0" type="line"/>
      <point x="109.52" y="-151.7" type="line"/>
    </contour>
  </outline>
</glyph>
<glyph name="backslash" format="2">
  <advance width="291.88"/>
  <unicode hex="005C"/>
  <outline>
    <contour>
      <point x="127.65" y="740.0" type="line"/>
      <point x="73.07" y="740.0" type="line"/>
      <point x="201.85" y="-210.0" type="line"/>
      <point x="256.12" y="-210.0" type="line"/>
    </contour>
  </outline>
</glyph>
<glyph name="bracketright" format="2">
  <advance width="185.87"/>
  <unicode hex="005D"/>
  <outline>
    <contour>
      <point x="-59.18" y="-151.7" type="line"/>
      <point x="-69.0" y="-210.0" type="line"/>
      <point x="67.47999999999999" y="-210.0" type="line"/>
      <point x="220.65" y="740.0" type="line"/>
      <point x="83.17" y="740.0" type="line"/>
      <point x="73.04" y="681.7" type="line"/>
      <point x="156.18" y="681.7" type="line"/>
      <point x="22.65" y="-151.7" type="line"/>
    </contour>
  </outline>
</glyph>
<glyph name="asciicircum" format="2">
  <advance width="354.19"/>
  <unicode hex="005E"/>
  <outline>
    <contour>
      <point x="37.72" y="267.53" type="line"/>
      <point x="85.55" y="267.53" type="line"/>
      <point x="233.38" y="634.68" type="line"/>
      <point x="267.23" y="267.53" type="line"/>
      <point x="314.75" y="267.53" type="line"/>
      <point x="273.35" y="706.9" type="line"/>
      <point x="212.74" y="706.9" type="line"/>
    </contour>
  </outline>
</glyph>
<glyph name="underscore" format="2">
  <advance width="549.24"/>
  <unicode hex="005F"/>
  <outline>
    <contour>
      <point x="-68.72" y="-158.63" type="line"/>
      <point x="479.9" y="-158.63" type="line"/>
      <point x="490.96" y="-92.75" type="line"/>
      <point x="-57.66" y="-92.75" type="line"/>
    </contour>
  </outline>
</glyph>
<glyph name="a" format="2">
  <advance width="298.5"/>
  <unicode hex="0061"/>
  <note>
15
</note>
  <anchor x="112.87" y="0.0" name="bottom"/>
  <anchor x="266.54" y="4.34" name="ogonek"/>
  <anchor x="199.22" y="536.2" name="top"/>
  <outline>
    <contour>
      <point x="214.14" y="-10.0" type="curve" smooth="yes"/>
      <point x="233.1" y="-10.0"/>
      <point x="252.99" y="-4.140000000000001"/>
      <point x="266.54" y="4.34" type="curve"/>
      <point x="269.90999999999997" y="58.64" type="line"/>
      <point x="260.7" y="54.88"/>
      <point x="253.25" y="52.81"/>
      <point x="245.73" y="52.81" type="curve" smooth="yes"/>
      <point x="232.59" y="52.81"/>
      <point x="227.82999999999998" y="59.57"/>
      <point x="227.82999999999998" y="73.71000000000001" type="curve" smooth="yes"/>
      <point x="227.82999999999998" y="80.78"/>
      <point x="231.51999999999998" y="105.75"/>
      <point x="298.32" y="524.0" type="curve"/>
      <point x="273.09" y="536.79"/>
      <point x="242.31" y="546.2"/>
      <point x="209.36" y="546.2" type="curve" smooth="yes"/>
      <point x="90.27" y="546.2"/>
      <point x="13.280000000000001" y="386.05"/>
      <point x="13.280000000000001" y="140.27" type="curve" smooth="yes"/>
      <point x="13.280000000000001" y="42.34"/>
      <point x="42.93" y="-10.0"/>
      <point x="97.96" y="-10.0" type="curve" smooth="yes"/>
      <point x="126.37" y="-10.0"/>
      <point x="147.16" y="1.24"/>
      <point x="165.26" y="19.13" type="curve"/>
      <point x="173.91" y="0.62"/>
      <point x="189.7" y="-10.0"/>
    </contour>
    <contour>
      <point x="163.19" y="68.61" type="line"/>
      <point x="151.91" y="59.71"/>
      <point x="136.49" y="53.88"/>
      <point x="121.75999999999999" y="53.88" type="curve" smooth="yes"/>
      <point x="95.06" y="53.88"/>
      <point x="79.71000000000001" y="86.1"/>
      <point x="79.71000000000001" y="149.09" type="curve" smooth="yes"/>
      <point x="79.71000000000001" y="349.82"/>
      <point x="135.38" y="486.42"/>
      <point x="202.47" y="486.42" type="curve" smooth="yes"/>
      <point x="212.75" y="486.42"/>
      <point x="220.58" y="484.35"/>
      <point x="227.72" y="479.9" type="curve"/>
    </contour>
  </outline>
</glyph>
<glyph name="b" format="2">
  <advance width="299.23"/>
  <unicode hex="0062"/>
  <note>
12
</note>
  <outline>
    <contour>
      <point x="175.65" y="740.0" type="line"/>
      <point x="112.32" y="740.0" type="line"/>
      <point x="-3.0600000000000005" y="8.65" type="line"/>
      <point x="20.490000000000002" y="-2.2800000000000002"/>
      <point x="47.1" y="-10.0"/>
      <point x="83.53" y="-10.0" type="curve" smooth="yes"/>
      <point x="223.02" y="-10.0"/>
      <point x="286.19" y="201.39"/>
      <point x="285.57" y="390.66" type="curve" smooth="yes"/>
      <point x="285.26" y="499.48"/>
      <point x="257.54" y="546.2"/>
      <point x="202.13" y="546.2" type="curve" smooth="yes"/>
      <point x="181.13" y="546.2"/>
      <point x="161.89" y="539.2"/>
      <point x="141.57999999999998" y="526.72" type="curve"/>
    </contour>
    <contour>
      <point x="176.57" y="482.01" type="curve" smooth="yes"/>
      <point x="210.79" y="482.01"/>
      <point x="221.0" y="440.65"/>
      <point x="221.0" y="385.8" type="curve" smooth="yes"/>
      <point x="221.0" y="223.3"/>
      <point x="172.3" y="49.54"/>
      <point x="95.17" y="49.54" type="curve" smooth="yes"/>
      <point x="85.58" y="49.54"/>
      <point x="75.68" y="51.61"/>
      <point x="67.85" y="56.06" type="curve"/>
      <point x="132.38" y="467.28" type="line"/>
      <point x="143.66" y="475.49"/>
      <point x="164.22" y="482.01"/>
    </contour>
  </outline>
</glyph>
<glyph name="c" format="2">
  <advance width="232.26"/>
  <unicode hex="0063"/>
  <note>
10
</note>
  <anchor x="109.88" y="0.0" name="bottom"/>
  <anchor x="194.84" y="536.2" name="top"/>
  <outline>
    <contour>
      <point x="117.8" y="-10.0" type="curve" smooth="yes"/>
      <point x="143.0" y="-10.0"/>
      <point x="169.92000000000002" y="-5.140000000000001"/>
      <point x="188.88" y="2.34" type="curve"/>
      <point x="180.92000000000002" y="58.64" type="line"/>
      <point x="168.68" y="55.26"/>
      <point x="150.3" y="52.88"/>
      <point x="135.44" y="52.88" type="curve" smooth="yes"/>
      <point x="95.16" y="52.88"/>
      <point x="77.02000000000001" y="89.36"/>
      <point x="77.02000000000001" y="154.96" type="curve" smooth="yes"/>
      <point x="77.02000000000001" y="319.28"/>
      <point x="132.24" y="482.56"/>
      <point x="201.8" y="482.56" type="curve" smooth="yes"/>
      <point x="218.04" y="482.56"/>
      <point x="228.52" y="480.94"/>
      <point x="244.0" y="475.32" type="curve"/>
      <point x="266.5" y="536.1" type="line"/>
      <point x="246.4" y="542.96"/>
      <point x="227.1" y="546.2"/>
      <point x="204.18" y="546.2" type="curve" smooth="yes"/>
      <point x="85.52" y="546.2"/>
      <point x="12.52" y="362.46"/>
      <point x="12.52" y="137.32" type="curve" smooth="yes"/>
      <point x="12.52" y="42.92"/>
      <point x="50.06" y="-10.0"/>
    </contour>
  </outline>
</glyph>
<glyph name="d" format="2">
  <advance width="296.88"/>
  <unicode hex="0064"/>
  <note>
17
</note>
  <anchor x="112.55" y="0.0" name="bottom"/>
  <anchor x="154.15" y="340.55" name="center"/>
  <anchor x="210.07999999999998" y="740.0" name="top"/>
  <anchor x="381.13" y="740.0" name="topright"/>
  <outline>
    <contour>
      <point x="211.82999999999998" y="-10.0" type="curve" smooth="yes"/>
      <point x="228.79" y="-10.0"/>
      <point x="248.99" y="-5.140000000000001"/>
      <point x="264.23" y="4.34" type="curve"/>
      <point x="267.6" y="58.64" type="line"/>
      <point x="259.46" y="55.57"/>
      <point x="250.94" y="52.81"/>
      <point x="242.73" y="52.81" type="curve" smooth="yes"/>
      <point x="230.97" y="52.81"/>
      <point x="225.82999999999998" y="58.88"/>
      <point x="225.82999999999998" y="72.47" type="curve" smooth="yes"/>
      <point x="225.82999999999998" y="83.57"/>
      <point x="259.63" y="290.81"/>
      <point x="330.7" y="740.0" type="curve"/>
      <point x="267.68" y="740.0" type="line"/>
      <point x="234.99" y="535.72" type="line"/>
      <point x="218.68" y="542.58"/>
      <point x="204.13" y="546.2"/>
      <point x="187.58" y="546.2" type="curve" smooth="yes"/>
      <point x="83.2" y="546.2"/>
      <point x="12.52" y="366.46"/>
      <point x="12.52" y="134.91" type="curve" smooth="yes"/>
      <point x="12.52" y="37.58"/>
      <point x="41.24" y="-10.0"/>
      <point x="96.51" y="-10.0" type="curve" smooth="yes"/>
      <point x="123.53999999999999" y="-10.0"/>
      <point x="147.4" y="4.79"/>
      <point x="162.95" y="21.89" type="curve"/>
      <point x="172.29" y="0.24"/>
      <point x="186.7" y="-10.0"/>
    </contour>
    <contour>
      <point x="119.45" y="54.57" type="curve" smooth="yes"/>
      <point x="91.44" y="54.57"/>
      <point x="76.71000000000001" y="85.58"/>
      <point x="76.71000000000001" y="132.46" type="curve" smooth="yes"/>
      <point x="76.71000000000001" y="312.12"/>
      <point x="123.55" y="486.42"/>
      <point x="198.02" y="486.42" type="curve" smooth="yes"/>
      <point x="207.61" y="486.42"/>
      <point x="214.82" y="484.35"/>
      <point x="226.1" y="480.59000000000003" type="curve"/>
      <point x="161.57" y="70.68" type="line"/>
      <point x="150.29" y="60.4"/>
      <point x="136.63" y="54.57"/>
    </contour>
  </outline>
</glyph>
<glyph name="e" format="2">
  <advance width="273.02"/>
  <unicode hex="0065"/>
  <note>
14 points
</note>
  <anchor x="131.32" y="0.0" name="bottom"/>
  <anchor x="193.28" y="0.0" name="ogonek"/>
  <anchor x="198.12" y="537.58" name="top"/>
  <outline>
    <contour>
      <point x="66.28" y="276.88" type="curve"/>
      <point x="55.22" y="222.92000000000002" type="line"/>
      <point x="85.56" y="226.44"/>
      <point x="117.66" y="235.82"/>
      <point x="147.14" y="250.2" type="curve" smooth="yes"/>
      <point x="228.96" y="289.72"/>
      <point x="288.06" y="367.06"/>
      <point x="288.06" y="457.12" type="curve" smooth="yes"/>
      <point x="288.06" y="509.52"/>
      <point x="263.0" y="546.2"/>
      <point x="206.88" y="546.2" type="curve" smooth="yes"/>
      <point x="87.56" y="546.2"/>
      <point x="16.28" y="383.52"/>
      <point x="16.28" y="174.16" type="curve" smooth="yes"/>
      <point x="16.28" y="55.34"/>
      <point x="54.82" y="-10.0"/>
      <point x="132.7" y="-10.0" type="curve" smooth="yes"/>
      <point x="163.52" y="-10.0"/>
      <point x="201.34" y="-1.76"/>
      <point x="228.4" y="15.2" type="curve"/>
      <point x="214.96" y="74.22" type="line"/>
      <point x="187.24" y="60.36"/>
      <point x="163.14" y="54.74"/>
      <point x="139.9" y="54.74" type="curve" smooth="yes"/>
      <point x="99.34" y="54.74"/>
      <point x="76.44" y="97.0"/>
      <point x="76.44" y="184.46" type="curve" smooth="yes"/>
      <point x="76.44" y="361.18"/>
      <point x="133.56" y="487.04"/>
      <point x="197.06" y="487.04" type="curve" smooth="yes"/>
      <point x="216.86" y="487.04"/>
      <point x="229.76" y="474.24"/>
      <point x="229.76" y="443.2" type="curve" smooth="yes"/>
      <point x="229.76" y="385.74"/>
      <point x="191.68" y="333.24"/>
      <point x="136.6" y="301.44" type="curve" smooth="yes"/>
      <point x="114.94" y="288.92"/>
      <point x="91.42" y="280.4"/>
    </contour>
  </outline>
</glyph>
<glyph name="f" format="2">
  <advance width="189.14"/>
  <unicode hex="0066"/>
  <outline>
    <contour>
      <point x="-64.12" y="-220.0" type="curve" smooth="yes"/>
      <point x="14.0" y="-220.0"/>
      <point x="52.13" y="-162.04"/>
      <point x="69.92" y="-48.989999999999995" type="curve" smooth="yes"/>
      <point x="147.17000000000002" y="438.34" type="line"/>
      <point x="216.77" y="438.34" type="line"/>
      <point x="226.28" y="497.95" type="line"/>
      <point x="156.68" y="497.95" type="line"/>
      <point x="178.17000000000002" y="635.34"/>
      <point x="204.73" y="685.12"/>
      <point x="253.71" y="685.12" type="curve" smooth="yes"/>
      <point x="265.78" y="685.12"/>
      <point x="279.85" y="682.12"/>
      <point x="292.16" y="678.5" type="curve"/>
      <point x="311.87" y="736.18" type="line"/>
      <point x="291.84" y="744.59"/>
      <point x="272.88" y="750.0"/>
      <point x="249.1" y="750.0" type="curve" smooth="yes"/>
      <point x="169.31" y="750.0"/>
      <point x="120.56" y="676.69"/>
      <point x="93.35" y="497.95" type="curve"/>
      <point x="41.24" y="491.64" type="line"/>
      <point x="32.42" y="438.34" type="line"/>
      <point x="83.84" y="438.34" type="line"/>
      <point x="7.59" y="-44.92" type="line" smooth="yes"/>
      <point x="-3.55" y="-114.52000000000001"/>
      <point x="-23.38" y="-156.19"/>
      <point x="-69.29" y="-156.19" type="curve" smooth="yes"/>
      <point x="-81.12" y="-156.19"/>
      <point x="-91.81" y="-154.81"/>
      <point x="-107.19" y="-149.81" type="curve"/>
      <point x="-124.52" y="-209.59" type="line"/>
      <point x="-105.25" y="-216.76"/>
      <point x="-85.91" y="-220.0"/>
    </contour>
  </outline>
</glyph>
<glyph name="g" format="2">
  <advance width="295.64"/>
  <unicode hex="0067"/>
  <note>
16
</note>
  <anchor x="65.94" y="-213.1" name="bottom"/>
  <anchor x="195.84" y="536.2" name="top"/>
  <outline>
    <contour>
      <point x="-15.06" y="-203.08" type="line"/>
      <point x="11.96" y="-214.9"/>
      <point x="41.36" y="-220.0"/>
      <point x="65.32" y="-220.0" type="curve" smooth="yes"/>
      <point x="142.54" y="-220.0"/>
      <point x="186.32" y="-168.18"/>
      <point x="205.42000000000002" y="-47.44" type="curve" smooth="yes"/>
      <point x="298.32" y="528.1" type="line"/>
      <point x="275.98" y="538.34"/>
      <point x="244.1" y="546.2"/>
      <point x="214.07999999999998" y="546.2" type="curve" smooth="yes"/>
      <point x="76.24" y="546.2"/>
      <point x="12.280000000000001" y="353.7"/>
      <point x="12.280000000000001" y="140.34" type="curve" smooth="yes"/>
      <point x="12.280000000000001" y="52.3"/>
      <point x="37.9" y="-4.42"/>
      <point x="91.72" y="-4.42" type="curve" smooth="yes"/>
      <point x="110.72" y="-4.42"/>
      <point x="132.82" y="1.58"/>
      <point x="153.3" y="16.2" type="curve"/>
      <point x="144.4" y="-46.3" type="line" smooth="yes"/>
      <point x="132.12" y="-129.18"/>
      <point x="107.12" y="-157.74"/>
      <point x="65.8" y="-157.74" type="curve" smooth="yes"/>
      <point x="48.32" y="-157.74"/>
      <point x="23.54" y="-152.64"/>
      <point x="3.8200000000000003" y="-145.16" type="curve"/>
    </contour>
    <contour>
      <point x="227.1" y="482.76" type="curve"/>
      <point x="161.88" y="72.16" type="line"/>
      <point x="151.98" y="62.88"/>
      <point x="133.8" y="56.36"/>
      <point x="120.75999999999999" y="56.36" type="curve" smooth="yes"/>
      <point x="93.44" y="56.36"/>
      <point x="77.78" y="88.1"/>
      <point x="77.78" y="145.48" type="curve" smooth="yes"/>
      <point x="77.78" y="313.92"/>
      <point x="126.28" y="488.9"/>
      <point x="201.3" y="488.9" type="curve" smooth="yes"/>
      <point x="208.06" y="488.9"/>
      <point x="217.58" y="486.52"/>
    </contour>
  </outline>
</glyph>
<glyph name="h" format="2">
  <advance width="301.54"/>
  <unicode hex="0068"/>
  <note>
16
</note>
  <anchor x="109.22" y="0.0" name="bottom"/>
  <anchor x="166.15" y="370.0" name="center"/>
  <anchor x="226.6" y="740.0" name="top"/>
  <outline>
    <contour>
      <point x="230.25" y="73.47" type="curve" smooth="yes"/>
      <point x="230.25" y="97.34"/>
      <point x="290.67" y="443.76"/>
      <point x="290.67" y="470.38" type="curve" smooth="yes"/>
      <point x="290.67" y="515.58"/>
      <point x="270.64" y="546.2"/>
      <point x="223.54" y="546.2" type="curve" smooth="yes"/>
      <point x="195.75" y="546.2"/>
      <point x="166.61" y="536.2"/>
      <point x="140.34" y="517.93" type="curve"/>
      <point x="175.65" y="740.0" type="line"/>
      <point x="112.32" y="740.0" type="line"/>
      <point x="-4.99" y="0.0" type="line"/>
      <point x="58.339999999999996" y="0.0" type="line"/>
      <point x="131.69" y="462.52" type="line"/>
      <point x="147.35" y="474.42"/>
      <point x="172.36" y="482.63"/>
      <point x="187.02" y="482.63" type="curve" smooth="yes"/>
      <point x="216.1" y="482.63"/>
      <point x="223.24" y="464.83"/>
      <point x="223.24" y="442.27" type="curve" smooth="yes"/>
      <point x="223.24" y="421.06"/>
      <point x="164.51" y="81.74"/>
      <point x="164.51" y="44.43" type="curve" smooth="yes"/>
      <point x="164.51" y="12.3"/>
      <point x="187.47" y="-10.0"/>
      <point x="219.87" y="-10.0" type="curve" smooth="yes"/>
      <point x="235.45" y="-10.0"/>
      <point x="251.03" y="-6.21"/>
      <point x="267.2" y="3.2699999999999996" type="curve"/>
      <point x="271.26" y="58.26" type="line"/>
      <point x="262.05" y="54.5"/>
      <point x="255.98" y="53.81"/>
      <point x="251.22" y="53.81" type="curve" smooth="yes"/>
      <point x="235.94" y="53.81"/>
      <point x="230.25" y="60.64"/>
    </contour>
  </outline>
</glyph>
<glyph name="i" format="2">
  <advance width="141.66"/>
  <unicode hex="0069"/>
  <note>
Ajuster pts sur points
8
</note>
  <anchor x="26.64" y="0.0" name="bottom"/>
  <anchor x="58.65" y="0.0" name="ogonek"/>
  <anchor x="111.57" y="536.2" name="top"/>
  <outline>
    <contour>
      <point x="-3.99" y="0.0" type="line"/>
      <point x="58.65" y="0.0" type="line"/>
      <point x="143.57999999999998" y="536.2" type="line"/>
      <point x="80.25" y="536.2" type="line"/>
    </contour>
    <contour>
      <point x="144.67" y="734.8" type="curve" smooth="yes"/>
      <point x="110.21" y="734.8"/>
      <point x="100.6" y="710.79"/>
      <point x="98.53" y="672.84" type="curve" smooth="yes"/>
      <point x="97.84" y="650.89"/>
      <point x="109.35" y="642.83"/>
      <point x="128.68" y="642.83" type="curve" smooth="yes"/>
      <point x="163.45" y="642.83"/>
      <point x="172.75" y="667.46"/>
      <point x="174.82" y="705.1" type="curve" smooth="yes"/>
      <point x="175.51" y="727.05"/>
      <point x="163.69" y="734.8"/>
    </contour>
  </outline>
</glyph>
<glyph name="j" format="2">
  <advance width="148.18"/>
  <unicode hex="006A"/>
  <note>
idem /i
12
</note>
  <outline>
    <contour>
      <point x="151.19" y="734.8" type="curve" smooth="yes"/>
      <point x="116.73" y="734.8"/>
      <point x="107.12" y="710.79"/>
      <point x="105.05" y="672.84" type="curve" smooth="yes"/>
      <point x="104.36" y="650.89"/>
      <point x="116.18" y="642.83"/>
      <point x="135.51" y="642.83" type="curve" smooth="yes"/>
      <point x="169.97" y="642.83"/>
      <point x="179.27" y="667.46"/>
      <point x="181.34" y="705.1" type="curve" smooth="yes"/>
      <point x="182.03" y="727.05"/>
      <point x="170.21" y="734.8"/>
    </contour>
    <contour>
      <point x="150.41" y="536.2" type="line"/>
      <point x="86.77" y="536.2" type="line"/>
      <point x="-5.0600000000000005" y="-43.06" type="line" smooth="yes"/>
      <point x="-16.2" y="-112.66"/>
      <point x="-35.72" y="-156.19"/>
      <point x="-81.63" y="-156.19" type="curve" smooth="yes"/>
      <point x="-94.46000000000001" y="-156.19"/>
      <point x="-105.15" y="-154.81"/>
      <point x="-120.22" y="-149.81" type="curve"/>
      <point x="-136.0" y="-210.21" type="line"/>
      <point x="-116.73" y="-217.38"/>
      <point x="-95.22" y="-220.0"/>
      <point x="-74.98" y="-220.0" type="curve" smooth="yes"/>
      <point x="3.8299999999999983" y="-220.0"/>
      <point x="39.48" y="-163.04"/>
      <point x="57.58" y="-47.44" type="curve" smooth="yes"/>
    </contour>
  </outline>
</glyph>
<glyph name="k" format="2">
  <advance width="287.54"/>
  <unicode hex="006B"/>
  <anchor x="120.84" y="0.0" name="bottom"/>
  <anchor x="144.64" y="740.0" name="top"/>
  <outline>
    <contour>
      <point x="-4.68" y="0.0" type="line"/>
      <point x="58.96" y="0.0" type="line"/>
      <point x="175.96" y="740.0" type="line"/>
      <point x="112.32" y="740.0" type="line"/>
    </contour>
    <contour>
      <point x="230.32" y="-10.0" type="curve" smooth="yes"/>
      <point x="239.42" y="-10.0"/>
      <point x="248.52" y="-9.0"/>
      <point x="258.62" y="-4.76" type="curve"/>
      <point x="264.92" y="60.839999999999996" type="line"/>
      <point x="258.3" y="59.46"/>
      <point x="253.3" y="59.08"/>
      <point x="248.68" y="59.7" type="curve" smooth="yes"/>
      <point x="223.92000000000002" y="62.8"/>
      <point x="203.54" y="89.97999999999999"/>
      <point x="163.06" y="197.57999999999998" type="curve" smooth="yes"/>
      <point x="104.72" y="354.08" type="line"/>
      <point x="86.52" y="257.44" type="line"/>
      <point x="137.7" y="114.98" type="line" smooth="yes"/>
      <point x="171.07999999999998" y="22.72"/>
      <point x="192.84" y="-10.0"/>
    </contour>
    <contour>
      <point x="141.46" y="239.42" type="line"/>
      <point x="213.94" y="307.72"/>
      <point x="279.94" y="420.3"/>
      <point x="315.36" y="536.34" type="curve"/>
      <point x="256.82" y="545.82" type="line"/>
      <point x="221.5" y="427.64"/>
      <point x="170.74" y="350.18"/>
      <point x="111.03999999999999" y="290.04" type="curve"/>
    </contour>
  </outline>
</glyph>
<glyph name="l" format="2">
  <advance width="147.04"/>
  <unicode hex="006C"/>
  <anchor x="59.82" y="0.0" name="bottom"/>
  <anchor x="87.19" y="370.0" name="center"/>
  <anchor x="143.64" y="740.0" name="top"/>
  <anchor x="226.07999999999998" y="740.0" name="topright"/>
  <outline>
    <contour>
      <point x="112.32" y="740.0" type="line"/>
      <point x="6.73" y="73.08" type="line" smooth="yes"/>
      <point x="5.42" y="63.84"/>
      <point x="4.42" y="53.980000000000004"/>
      <point x="4.42" y="46.05" type="curve" smooth="yes"/>
      <point x="4.42" y="11.129999999999999"/>
      <point x="21.31" y="-10.0"/>
      <point x="60.61" y="-10.0" type="curve" smooth="yes"/>
      <point x="77.57" y="-10.0"/>
      <point x="99.46000000000001" y="-4.83"/>
      <point x="114.01" y="3.2699999999999996" type="curve"/>
      <point x="118.07" y="58.26" type="line"/>
      <point x="106.78999999999999" y="54.5"/>
      <point x="97.96000000000001" y="53.12"/>
      <point x="91.82" y="53.12" type="curve" smooth="yes"/>
      <point x="75.85" y="53.12"/>
      <point x="70.78" y="59.5"/>
      <point x="70.78" y="71.19" type="curve" smooth="yes"/>
      <point x="70.78" y="80.33"/>
      <point x="73.16" y="92.16"/>
      <point x="76.22999999999999" y="112.27000000000001" type="curve" smooth="yes"/>
      <point x="175.65" y="740.0" type="line"/>
    </contour>
  </outline>
</glyph>
<glyph name="m" format="2">
  <advance width="450.14"/>
  <unicode hex="006D"/>
  <note>
24&gt;23 points
un point de trop dans la jointure avec 2e jambage
</note>
  <outline>
    <contour>
      <point x="367.54" y="-10.0" type="curve" smooth="yes"/>
      <point x="383.12" y="-10.0"/>
      <point x="400.56" y="-6.21"/>
      <point x="415.8" y="3.2699999999999996" type="curve"/>
      <point x="419.86" y="58.26" type="line"/>
      <point x="410.65" y="54.5"/>
      <point x="404.58" y="53.81"/>
      <point x="399.82" y="53.81" type="curve" smooth="yes"/>
      <point x="384.54" y="53.81"/>
      <point x="378.15999999999997" y="61.57"/>
      <point x="378.15999999999997" y="75.33" type="curve" smooth="yes"/>
      <point x="378.15999999999997" y="104.78"/>
      <point x="438.58" y="445.93"/>
      <point x="438.58" y="472.24" type="curve" smooth="yes"/>
      <point x="438.58" y="514.96"/>
      <point x="419.55" y="546.2"/>
      <point x="372.14" y="546.2" type="curve" smooth="yes"/>
      <point x="347.73" y="546.2"/>
      <point x="313.18" y="537.89"/>
      <point x="277.84" y="509.93" type="curve"/>
      <point x="267.84" y="532.65"/>
      <point x="246.29" y="546.2"/>
      <point x="217.95" y="546.2" type="curve" smooth="yes"/>
      <point x="192.23" y="546.2"/>
      <point x="162.82" y="535.82"/>
      <point x="134.31" y="515.38" type="curve"/>
      <point x="138.24" y="536.2" type="line"/>
      <point x="79.56" y="536.2" type="line"/>
      <point x="-5.369999999999999" y="0.0" type="line"/>
      <point x="57.96" y="0.0" type="line"/>
      <point x="131.0" y="463.21" type="line"/>
      <point x="146.35" y="474.8"/>
      <point x="167.15" y="482.63"/>
      <point x="184.88" y="482.63" type="curve" smooth="yes"/>
      <point x="208.44" y="482.63"/>
      <point x="218.72" y="466.9"/>
      <point x="218.72" y="445.03" type="curve" smooth="yes"/>
      <point x="218.72" y="419.4"/>
      <point x="157.19" y="50.22"/>
      <point x="148.82" y="0.0" type="curve"/>
      <point x="212.53" y="0.0" type="line"/>
      <point x="218.73" y="37.51"/>
      <point x="274.99" y="384.45"/>
      <point x="281.19" y="444.04" type="curve" smooth="yes"/>
      <point x="281.5" y="449.66"/>
      <point x="281.43" y="456.52"/>
      <point x="281.05" y="461.14" type="curve"/>
      <point x="296.71" y="473.04"/>
      <point x="317.89" y="482.63"/>
      <point x="338.07" y="482.63" type="curve" smooth="yes"/>
      <point x="363.01" y="482.63"/>
      <point x="370.84" y="464.83"/>
      <point x="370.84" y="442.27" type="curve" smooth="yes"/>
      <point x="370.84" y="418.99"/>
      <point x="312.11" y="84.53"/>
      <point x="312.11" y="45.36" type="curve" smooth="yes"/>
      <point x="312.11" y="10.44"/>
      <point x="335.14" y="-10.0"/>
    </contour>
  </outline>
</glyph>
<glyph name="n" format="2">
  <advance width="300.15999999999997"/>
  <unicode hex="006E"/>
  <note>
16
</note>
  <anchor x="118.15" y="0.0" name="bottom"/>
  <anchor x="189.39" y="536.2" name="top"/>
  <outline>
    <contour>
      <point x="79.56" y="536.2" type="line"/>
      <point x="-5.369999999999999" y="0.0" type="line"/>
      <point x="57.96" y="0.0" type="line"/>
      <point x="131.31" y="462.52" type="line"/>
      <point x="146.97" y="474.42"/>
      <point x="170.98" y="483.32"/>
      <point x="185.95" y="483.32" type="curve" smooth="yes"/>
      <point x="215.03" y="483.32"/>
      <point x="222.86" y="464.83"/>
      <point x="222.86" y="442.27" type="curve" smooth="yes"/>
      <point x="222.86" y="417.65"/>
      <point x="164.13" y="84.53"/>
      <point x="164.13" y="42.879999999999995" type="curve" smooth="yes"/>
      <point x="164.13" y="12.61"/>
      <point x="185.78" y="-10.0"/>
      <point x="218.18" y="-10.0" type="curve" smooth="yes"/>
      <point x="233.76" y="-10.0"/>
      <point x="250.57999999999998" y="-6.21"/>
      <point x="265.82" y="3.2699999999999996" type="curve"/>
      <point x="269.88" y="58.26" type="line"/>
      <point x="260.67" y="54.5"/>
      <point x="254.6" y="53.81"/>
      <point x="249.84" y="53.81" type="curve" smooth="yes"/>
      <point x="234.56" y="53.81"/>
      <point x="229.56" y="60.64"/>
      <point x="229.56" y="73.47" type="curve" smooth="yes"/>
      <point x="229.56" y="97.34"/>
      <point x="290.29" y="443.76"/>
      <point x="290.29" y="470.38" type="curve" smooth="yes"/>
      <point x="290.29" y="515.58"/>
      <point x="269.57" y="546.2"/>
      <point x="222.47" y="546.2" type="curve" smooth="yes"/>
      <point x="194.68" y="546.2"/>
      <point x="161.82" y="535.13"/>
      <point x="134.0" y="514.69" type="curve"/>
      <point x="137.62" y="536.2" type="line"/>
    </contour>
  </outline>
</glyph>
<glyph name="o" format="2">
  <advance width="293.02"/>
  <unicode hex="006F"/>
  <note>
8
</note>
  <anchor x="104.08" y="0.0" name="bottom"/>
  <anchor x="146.7" y="268.1" name="center"/>
  <anchor x="148.62" y="0.76" name="ogonek"/>
  <anchor x="186.98" y="536.2" name="top"/>
  <anchor x="246.38" y="526.2" name="topright"/>
  <outline>
    <contour>
      <point x="111.03999999999999" y="-10.0" type="curve" smooth="yes"/>
      <point x="237.92000000000002" y="-10.0"/>
      <point x="279.5" y="274.22"/>
      <point x="279.5" y="419.98" type="curve" smooth="yes"/>
      <point x="279.5" y="516.8"/>
      <point x="249.54" y="545.82"/>
      <point x="179.6" y="545.82" type="curve" smooth="yes"/>
      <point x="52.72" y="545.82"/>
      <point x="11.14" y="261.6"/>
      <point x="11.14" y="116.46000000000001" type="curve" smooth="yes"/>
      <point x="11.14" y="19.64"/>
      <point x="41.72" y="-10.0"/>
    </contour>
    <contour>
      <point x="112.28" y="51.02" type="curve" smooth="yes"/>
      <point x="87.96000000000001" y="51.02"/>
      <point x="72.53999999999999" y="60.92"/>
      <point x="72.53999999999999" y="115.7" type="curve" smooth="yes"/>
      <point x="72.53999999999999" y="190.48"/>
      <point x="107.06" y="484.8"/>
      <point x="178.98" y="484.8" type="curve" smooth="yes"/>
      <point x="203.3" y="484.8"/>
      <point x="218.72" y="475.52"/>
      <point x="218.72" y="420.74" type="curve" smooth="yes"/>
      <point x="218.72" y="345.34"/>
      <point x="184.2" y="51.02"/>
    </contour>
  </outline>
</glyph>
<glyph name="p" format="2">
  <advance width="299.54"/>
  <unicode hex="0070"/>
  <note>
14 point
</note>
  <outline>
    <contour>
      <point x="-37.68" y="-210.0" type="line"/>
      <point x="24.65" y="-210.0" type="line"/>
      <point x="57.65" y="-3.0" type="line"/>
      <point x="70.72" y="-7.07"/>
      <point x="84.34" y="-9.38"/>
      <point x="102.44" y="-9.38" type="curve" smooth="yes"/>
      <point x="219.12" y="-9.38"/>
      <point x="285.57" y="189.21"/>
      <point x="285.57" y="389.11" type="curve" smooth="yes"/>
      <point x="285.57" y="497.24"/>
      <point x="260.09" y="546.2"/>
      <point x="203.68" y="546.2" type="curve" smooth="yes"/>
      <point x="176.48" y="546.2"/>
      <point x="156.62" y="534.24"/>
      <point x="139.41" y="522.69" type="curve"/>
      <point x="136.48" y="543.1" type="line"/>
      <point x="80.94" y="543.1" type="line"/>
    </contour>
    <contour>
      <point x="95.17" y="49.54" type="curve" smooth="yes"/>
      <point x="85.58" y="49.54"/>
      <point x="75.68" y="50.92"/>
      <point x="67.16" y="55.37" type="curve"/>
      <point x="132.38" y="467.59000000000003" type="line"/>
      <point x="143.35" y="474.8"/>
      <point x="163.6" y="482.01"/>
      <point x="176.57" y="482.01" type="curve" smooth="yes"/>
      <point x="206.03" y="482.01"/>
      <point x="221.0" y="452.1"/>
      <point x="221.0" y="382.7" type="curve" smooth="yes"/>
      <point x="221.0" y="220.91"/>
      <point x="170.47" y="49.54"/>
    </contour>
  </outline>
</glyph>
<glyph name="q" format="2">
  <advance width="295.57"/>
  <unicode hex="0071"/>
  <note>
12
</note>
  <outline>
    <contour>
      <point x="297.94" y="527.55" type="line"/>
      <point x="274.22" y="537.1"/>
      <point x="240.89" y="546.2"/>
      <point x="205.7" y="546.2" type="curve" smooth="yes"/>
      <point x="61.120000000000005" y="546.2"/>
      <point x="11.9" y="301.01"/>
      <point x="11.9" y="129.33" type="curve" smooth="yes"/>
      <point x="11.9" y="32.13"/>
      <point x="45.45" y="-10.0"/>
      <point x="95.06" y="-10.0" type="curve" smooth="yes"/>
      <point x="118.82" y="-10.0"/>
      <point x="137.99" y="0.0"/>
      <point x="152.3" y="11.24" type="curve"/>
      <point x="115.92" y="-210.0" type="line"/>
      <point x="180.01" y="-210.0" type="line"/>
    </contour>
    <contour>
      <point x="226.72" y="480.59000000000003" type="curve"/>
      <point x="161.5" y="69.99000000000001" type="line"/>
      <point x="150.22" y="59.71"/>
      <point x="133.11" y="53.88"/>
      <point x="120.07" y="53.88" type="curve" smooth="yes"/>
      <point x="89.99000000000001" y="53.88"/>
      <point x="76.64" y="91.1"/>
      <point x="76.64" y="130.46" type="curve" smooth="yes"/>
      <point x="76.64" y="276.66"/>
      <point x="113.2" y="486.42"/>
      <point x="198.33" y="486.42" type="curve" smooth="yes"/>
      <point x="205.85" y="486.42"/>
      <point x="216.13" y="484.35"/>
    </contour>
  </outline>
</glyph>
<glyph name="r" format="2">
  <advance width="203.38"/>
  <unicode hex="0072"/>
  <anchor x="25.64" y="0.0" name="bottom"/>
  <anchor x="170.15" y="536.2" name="top"/>
  <outline>
    <contour>
      <point x="137.62" y="536.2" type="line"/>
      <point x="79.56" y="536.2" type="line"/>
      <point x="-5.369999999999999" y="0.0" type="line"/>
      <point x="57.03" y="0.0" type="line"/>
      <point x="126.07" y="434.66" type="line"/>
      <point x="152.8" y="462.98"/>
      <point x="174.84" y="473.95"/>
      <point x="197.81" y="473.95" type="curve" smooth="yes"/>
      <point x="207.95" y="473.95"/>
      <point x="220.5" y="472.26"/>
      <point x="232.19" y="468.26" type="curve"/>
      <point x="253.76" y="538.58" type="line"/>
      <point x="240.82999999999998" y="544.51"/>
      <point x="228.45" y="546.2"/>
      <point x="214.45" y="546.2" type="curve" smooth="yes"/>
      <point x="186.93" y="546.2"/>
      <point x="157.41" y="529.82"/>
      <point x="131.31" y="499.48" type="curve"/>
    </contour>
  </outline>
</glyph>
<glyph name="s" format="2">
  <advance width="248.68"/>
  <unicode hex="0073"/>
  <anchor x="75.56" y="0.0" name="bottom"/>
  <anchor x="179.22" y="536.2" name="top"/>
  <outline>
    <contour>
      <point x="-20.96" y="11.2" type="line"/>
      <point x="3.86" y="-2.52"/>
      <point x="34.06" y="-10.0"/>
      <point x="72.94" y="-10.0" type="curve" smooth="yes"/>
      <point x="168.0" y="-10.0"/>
      <point x="217.26" y="64.22"/>
      <point x="217.26" y="154.26" type="curve" smooth="yes"/>
      <point x="217.26" y="271.9"/>
      <point x="106.38" y="312.58"/>
      <point x="106.38" y="396.66" type="curve" smooth="yes"/>
      <point x="106.38" y="443.26"/>
      <point x="132.56" y="483.18"/>
      <point x="179.64" y="483.18" type="curve" smooth="yes"/>
      <point x="203.12" y="483.18"/>
      <point x="225.94" y="475.56"/>
      <point x="245.52" y="466.7" type="curve"/>
      <point x="265.06" y="527.1" type="line"/>
      <point x="247.72" y="537.96"/>
      <point x="217.04" y="546.2"/>
      <point x="184.5" y="546.2" type="curve" smooth="yes"/>
      <point x="87.28" y="546.2"/>
      <point x="44.6" y="465.48"/>
      <point x="44.6" y="389.98" type="curve" smooth="yes"/>
      <point x="44.6" y="262.48"/>
      <point x="155.1" y="232.94"/>
      <point x="155.1" y="147.06" type="curve" smooth="yes"/>
      <point x="155.1" y="99.18"/>
      <point x="127.16" y="51.78"/>
      <point x="75.32" y="51.78" type="curve" smooth="yes"/>
      <point x="50.6" y="51.78"/>
      <point x="22.54" y="58.26"/>
      <point x="0.4399999999999995" y="69.5" type="curve"/>
    </contour>
  </outline>
</glyph>
<glyph name="t" format="2">
  <advance width="190.28"/>
  <unicode hex="0074"/>
  <anchor x="87.51" y="0.0" name="bottom"/>
  <anchor x="87.74" y="315.02" name="center"/>
  <anchor x="143.91" y="661.59" name="top"/>
  <anchor x="242.14" y="747.75" name="topright"/>
  <outline>
    <contour>
      <point x="156.45" y="58.33" type="line"/>
      <point x="145.69" y="55.64"/>
      <point x="135.86" y="53.95"/>
      <point x="127.41" y="53.95" type="curve" smooth="yes"/>
      <point x="96.68" y="53.95"/>
      <point x="84.09" y="70.4"/>
      <point x="84.09" y="102.96000000000001" type="curve" smooth="yes"/>
      <point x="84.09" y="113.41"/>
      <point x="85.78" y="124.86"/>
      <point x="87.47" y="138.69" type="curve" smooth="yes"/>
      <point x="141.55" y="476.59000000000003" type="line"/>
      <point x="227.12" y="476.59000000000003" type="line"/>
      <point x="237.25" y="536.2" type="line"/>
      <point x="151.68" y="536.2" type="line"/>
      <point x="171.13" y="661.59" type="line"/>
      <point x="118.07" y="661.59" type="line"/>
      <point x="88.66" y="536.2" type="line"/>
      <point x="42.93" y="530.2" type="line"/>
      <point x="33.8" y="476.9" type="line"/>
      <point x="78.53" y="476.9" type="line"/>
      <point x="23.52" y="132.18" type="line" smooth="yes"/>
      <point x="19.9" y="110.84"/>
      <point x="17.66" y="86.16"/>
      <point x="17.66" y="69.37" type="curve" smooth="yes"/>
      <point x="17.66" y="14.969999999999999"/>
      <point x="45.06" y="-10.0"/>
      <point x="94.03" y="-10.0" type="curve" smooth="yes"/>
      <point x="114.4" y="-10.0"/>
      <point x="134.6" y="-6.140000000000001"/>
      <point x="153.7" y="2.58" type="curve"/>
    </contour>
  </outline>
</glyph>
<glyph name="u" format="2">
  <advance width="299.54"/>
  <unicode hex="0075"/>
  <note>
15
</note>
  <anchor x="109.39" y="0.0" name="bottom"/>
  <anchor x="265.51" y="4.65" name="ogonek"/>
  <anchor x="189.49236000000002" y="536.2" name="top"/>
  <anchor x="290.23" y="536.2" name="topright"/>
  <outline>
    <contour>
      <point x="75.72" y="-10.0" type="curve" smooth="yes"/>
      <point x="106.75" y="-10.0"/>
      <point x="132.75" y="2.17"/>
      <point x="163.92" y="28.060000000000002" type="curve"/>
      <point x="169.4" y="3.96"/>
      <point x="188.98" y="-10.0"/>
      <point x="215.11" y="-10.0" type="curve" smooth="yes"/>
      <point x="229.31" y="-10.0"/>
      <point x="251.65" y="-4.140000000000001"/>
      <point x="265.51" y="4.65" type="curve"/>
      <point x="268.88" y="58.64" type="line"/>
      <point x="259.67" y="54.88"/>
      <point x="250.15" y="52.81"/>
      <point x="244.7" y="52.81" type="curve" smooth="yes"/>
      <point x="230.8" y="52.81"/>
      <point x="227.11" y="61.26"/>
      <point x="227.11" y="72.25999999999999" type="curve" smooth="yes"/>
      <point x="227.11" y="81.4"/>
      <point x="229.49" y="98.37"/>
      <point x="299.53" y="536.2" type="curve"/>
      <point x="237.13" y="536.2" type="line"/>
      <point x="164.16" y="75.82" type="line"/>
      <point x="143.67" y="59.78"/>
      <point x="124.11" y="52.26"/>
      <point x="106.07" y="52.26" type="curve" smooth="yes"/>
      <point x="83.58" y="52.26"/>
      <point x="71.3" y="69.61"/>
      <point x="71.92" y="91.34" type="curve" smooth="yes"/>
      <point x="77.5" y="136.95999999999998"/>
      <point x="85.32" y="185.74"/>
      <point x="140.2" y="536.2" type="curve"/>
      <point x="77.49" y="536.2" type="line"/>
      <point x="30.42" y="231.98"/>
      <point x="5.8" y="109.36"/>
      <point x="5.8" y="60.54" type="curve" smooth="yes"/>
      <point x="5.8" y="18.58"/>
      <point x="31.66" y="-10.0"/>
    </contour>
  </outline>
</glyph>
<glyph name="v" format="2">
  <advance width="273.74"/>
  <unicode hex="0076"/>
  <outline>
    <contour>
      <point x="133.15" y="-2.76" type="line"/>
      <point x="234.92000000000002" y="298.54"/>
      <point x="290.39" y="405.88"/>
      <point x="291.94" y="536.2" type="curve"/>
      <point x="227.06" y="536.2" type="line"/>
      <point x="224.99" y="422.42"/>
      <point x="199.1" y="363.83"/>
      <point x="103.59" y="73.22999999999999" type="curve"/>
      <point x="115.92" y="536.2" type="line"/>
      <point x="49.49" y="536.2" type="line"/>
      <point x="52.25" y="-2.76" type="line"/>
    </contour>
  </outline>
</glyph>
<glyph name="w" format="2">
  <advance width="453.40999999999997"/>
  <unicode hex="0077"/>
  <note>
15
</note>
  <anchor x="192.21" y="0.0" name="bottom"/>
  <anchor x="258.45" y="536.2" name="top"/>
  <outline>
    <contour>
      <point x="327.55" y="0.0" type="line"/>
      <point x="428.97" y="329.09000000000003"/>
      <point x="463.09000000000003" y="403.25"/>
      <point x="469.61" y="536.2" type="curve"/>
      <point x="405.66" y="536.2" type="line"/>
      <point x="396.52" y="411.03"/>
      <point x="377.25" y="351.13"/>
      <point x="300.47" y="78.78" type="curve"/>
      <point x="296.83" y="495.49" type="line"/>
      <point x="225.23" y="495.49" type="line"/>
      <point x="187.88" y="355.69"/>
      <point x="151.22" y="216.2"/>
      <point x="113.87" y="76.4" type="curve"/>
      <point x="111.4" y="536.2" type="line"/>
      <point x="45.35" y="536.2" type="line"/>
      <point x="61.91" y="0.0" type="line"/>
      <point x="140.64" y="0.0" type="line"/>
      <point x="175.51" y="131.05"/>
      <point x="210.76" y="262.79"/>
      <point x="245.63" y="393.84000000000003" type="curve"/>
      <point x="251.92" y="0.0" type="line"/>
    </contour>
  </outline>
</glyph>
<glyph name="x" format="2">
  <advance width="282.48"/>
  <unicode hex="0078"/>
  <outline>
    <contour>
      <point x="229.01" y="536.2" type="line"/>
      <point x="229.01" y="470.27"/>
      <point x="207.25" y="399.6"/>
      <point x="148.86" y="307.49" type="curve"/>
      <point x="123.43" y="538.96" type="line"/>
      <point x="55.28" y="536.2" type="line"/>
      <point x="92.63" y="270.41" type="line"/>
      <point x="25.93" y="169.61"/>
      <point x="-14.17" y="80.3"/>
      <point x="-17.58" y="0.0" type="curve"/>
      <point x="49.64" y="0.0" type="line"/>
      <point x="52.5" y="71.14"/>
      <point x="83.53999999999999" y="145.11"/>
      <point x="135.38" y="227.88" type="curve"/>
      <point x="162.29" y="-1.38" type="line"/>
      <point x="231.37" y="0.69" type="line"/>
      <point x="191.61" y="265.65" type="line"/>
      <point x="266.06" y="371.85"/>
      <point x="295.75" y="477.12"/>
      <point x="295.75" y="536.2" type="curve"/>
    </contour>
  </outline>
</glyph>
<glyph name="y" format="2">
  <advance width="272.98"/>
  <unicode hex="0079"/>
  <anchor x="74.7" y="-210.0" name="bottom"/>
  <anchor x="167.66" y="536.2" name="top"/>
  <outline>
    <contour>
      <point x="231.54" y="543.1" type="line"/>
      <point x="208.22" y="351.76"/>
      <point x="164.42" y="212.02"/>
      <point x="114.66" y="70.64" type="curve"/>
      <point x="105.3" y="543.1" type="line"/>
      <point x="42.9" y="541.72" type="line"/>
      <point x="56.120000000000005" y="0.0" type="line"/>
      <point x="80.96" y="0.0" type="line"/>
      <point x="54.44" y="-71.8"/>
      <point x="22.82" y="-138.7"/>
      <point x="-14.0" y="-210.0" type="curve"/>
      <point x="49.5" y="-216.9" type="line"/>
      <point x="169.62" y="39.16"/>
      <point x="259.76" y="283.02"/>
      <point x="294.18" y="540.34" type="curve"/>
    </contour>
  </outline>
</glyph>
<glyph name="z" format="2">
  <advance width="261.99"/>
  <unicode hex="007A"/>
  <anchor x="101.36" y="0.0" name="bottom"/>
  <anchor x="127.77" y="275.0" name="center"/>
  <anchor x="177.98" y="536.2" name="top"/>
  <outline>
    <contour>
      <point x="-19.1" y="0.0" type="line"/>
      <point x="216.03" y="0.0" type="line"/>
      <point x="225.54" y="61.47" type="line"/>
      <point x="57.15" y="61.47" type="line"/>
      <point x="275.38" y="476.66" type="line"/>
      <point x="286.37" y="536.2" type="line"/>
      <point x="70.04" y="536.2" type="line"/>
      <point x="60.22" y="474.11" type="line"/>
      <point x="209.19" y="474.11" type="line"/>
      <point x="-10.9" y="55.82" type="line"/>
    </contour>
  </outline>
</glyph>
<glyph name="braceleft" format="2">
  <advance width="201.74"/>
  <unicode hex="007B"/>
  <outline>
    <contour>
      <point x="0.9399999999999995" y="-113.22" type="curve" smooth="yes"/>
      <point x="0.9399999999999995" y="-174.62"/>
      <point x="26.0" y="-210.0"/>
      <point x="67.27" y="-210.0" type="curve" smooth="yes"/>
      <point x="101.08" y="-210.0" type="line"/>
      <point x="111.21000000000001" y="-150.32" type="line"/>
      <point x="91.97" y="-150.32" type="line" smooth="yes"/>
      <point x="69.07" y="-150.32"/>
      <point x="58.620000000000005" y="-128.28"/>
      <point x="58.620000000000005" y="-94.86" type="curve" smooth="yes"/>
      <point x="58.620000000000005" y="10.02"/>
      <point x="125.56" y="101.21"/>
      <point x="125.56" y="199.26" type="curve" smooth="yes"/>
      <point x="125.56" y="228.6"/>
      <point x="120.77" y="256.32"/>
      <point x="98.22" y="271.21" type="curve"/>
      <point x="143.56" y="287.92"/>
      <point x="162.28" y="362.65"/>
      <point x="162.28" y="417.61" type="curve" smooth="yes"/>
      <point x="162.28" y="461.24"/>
      <point x="159.97" y="488.69"/>
      <point x="159.97" y="544.05" type="curve" smooth="yes"/>
      <point x="159.97" y="607.86"/>
      <point x="177.01" y="680.32"/>
      <point x="227.19" y="680.32" type="curve" smooth="yes"/>
      <point x="243.05" y="680.32" type="line"/>
      <point x="252.56" y="740.0" type="line"/>
      <point x="222.2" y="740.0" type="line" smooth="yes"/>
      <point x="132.87" y="740.0"/>
      <point x="104.15" y="634.25"/>
      <point x="104.15" y="534.74" type="curve" smooth="yes"/>
      <point x="104.15" y="481.04"/>
      <point x="107.39" y="452.21"/>
      <point x="107.39" y="419.21" type="curve" smooth="yes"/>
      <point x="107.39" y="372.72"/>
      <point x="99.94" y="302.98"/>
      <point x="60.66" y="302.98" type="curve" smooth="yes"/>
      <point x="47.35" y="302.98" type="line"/>
      <point x="37.53" y="241.2" type="line"/>
      <point x="49.46" y="241.2" type="line" smooth="yes"/>
      <point x="68.6" y="241.2"/>
      <point x="72.91" y="223.54"/>
      <point x="72.91" y="201.02" type="curve" smooth="yes"/>
      <point x="72.91" y="99.55"/>
      <point x="0.9399999999999995" y="10.62"/>
    </contour>
  </outline>
</glyph>
<glyph name="bar" format="2">
  <advance width="123.36"/>
  <unicode hex="007C"/>
  <outline>
    <contour>
      <point x="171.59" y="790.31" type="line"/>
      <point x="115.46000000000001" y="790.31" type="line"/>
      <point x="-43.54" y="-210.0" type="line"/>
      <point x="12.899999999999999" y="-210.0" type="line"/>
    </contour>
  </outline>
</glyph>
<glyph name="braceright" format="2">
  <advance width="201.74"/>
  <unicode hex="007D"/>
  <outline>
    <contour>
      <point x="197.8" y="643.22" type="curve" smooth="yes"/>
      <point x="197.8" y="704.93"/>
      <point x="172.43" y="740.31"/>
      <point x="131.16" y="740.31" type="curve" smooth="yes"/>
      <point x="97.35" y="740.31" type="line"/>
      <point x="87.22" y="680.63" type="line"/>
      <point x="103.36" y="680.63" type="line" smooth="yes"/>
      <point x="126.57" y="680.63"/>
      <point x="137.33" y="658.28"/>
      <point x="137.33" y="624.86" type="curve" smooth="yes"/>
      <point x="137.33" y="519.36"/>
      <point x="70.39" y="440.58"/>
      <point x="70.39" y="336.02" type="curve" smooth="yes"/>
      <point x="70.39" y="307.61"/>
      <point x="74.87" y="279.89"/>
      <point x="98.04" y="265.31" type="curve"/>
      <point x="52.7" y="248.29"/>
      <point x="33.67" y="174.18"/>
      <point x="33.67" y="118.91" type="curve" smooth="yes"/>
      <point x="33.67" y="75.28"/>
      <point x="35.980000000000004" y="41.62"/>
      <point x="35.980000000000004" y="-13.120000000000001" type="curve" smooth="yes"/>
      <point x="35.980000000000004" y="-76.93"/>
      <point x="19.25" y="-150.01"/>
      <point x="-30.93" y="-150.01" type="curve" smooth="yes"/>
      <point x="-44.31" y="-150.01" type="line"/>
      <point x="-53.82" y="-210.0" type="line"/>
      <point x="-23.77" y="-210.0" type="line" smooth="yes"/>
      <point x="65.56" y="-210.0"/>
      <point x="94.28" y="-100.22"/>
      <point x="94.28" y="-10.63" type="curve" smooth="yes"/>
      <point x="94.28" y="51.44"/>
      <point x="91.03999999999999" y="87.72"/>
      <point x="91.03999999999999" y="118.55" type="curve" smooth="yes"/>
      <point x="91.03999999999999" y="164.42"/>
      <point x="99.11" y="233.54"/>
      <point x="137.77" y="233.54" type="curve" smooth="yes"/>
      <point x="151.07999999999998" y="233.54" type="line"/>
      <point x="160.9" y="295.01" type="line"/>
      <point x="148.97" y="295.01" type="line" smooth="yes"/>
      <point x="129.82999999999998" y="295.01"/>
      <point x="125.52" y="312.67"/>
      <point x="125.52" y="335.19" type="curve" smooth="yes"/>
      <point x="125.52" y="436.97"/>
      <point x="197.8" y="515.04"/>
    </contour>
  </outline>
</glyph>
<glyph name="asciitilde" format="2">
  <advance width="358.64"/>
  <unicode hex="007E"/>
  <outline>
    <contour>
      <point x="300.64" y="247.35" type="curve"/>
      <point x="310.84" y="312.96" type="line"/>
      <point x="289.36" y="287.58"/>
      <point x="272.26" y="277.51"/>
      <point x="251.4" y="277.51" type="curve" smooth="yes"/>
      <point x="196.54" y="277.51"/>
      <point x="186.4" y="380.84"/>
      <point x="128.16" y="380.84" type="curve" smooth="yes"/>
      <point x="101.51" y="380.84"/>
      <point x="80.14" y="366.88"/>
      <point x="66.17" y="348.84" type="curve"/>
      <point x="55.97" y="283.23" type="line"/>
      <point x="71.32" y="303.34"/>
      <point x="92.69" y="318.68"/>
      <point x="117.27" y="318.68" type="curve" smooth="yes"/>
      <point x="169.3" y="318.68"/>
      <point x="180.13" y="215.35"/>
      <point x="241.2" y="215.35" type="curve" smooth="yes"/>
      <point x="264.13" y="215.35"/>
      <point x="280.54" y="224.04"/>
    </contour>
  </outline>
</glyph>
<glyph name="cent" format="2">
  <advance width="302.7"/>
  <unicode hex="00A2"/>
  <outline>
    <contour>
      <point x="95.1" y="-105.31" type="line"/>
      <point x="152.47" y="-105.31" type="line"/>
      <point x="167.78" y="-7.52" type="line"/>
      <point x="185.95" y="-5.59"/>
      <point x="203.5" y="-2.3499999999999996"/>
      <point x="216.88" y="3.58" type="curve"/>
      <point x="214.81" y="69.18" type="line"/>
      <point x="199.88" y="64.49000000000001"/>
      <point x="180.88" y="61.25"/>
      <point x="169.02" y="61.25" type="curve" smooth="yes"/>
      <point x="127.84" y="61.25"/>
      <point x="115.63" y="97.6"/>
      <point x="115.63" y="155.27" type="curve" smooth="yes"/>
      <point x="115.63" y="325.09"/>
      <point x="166.1" y="473.26"/>
      <point x="233.82999999999998" y="473.26" type="curve" smooth="yes"/>
      <point x="246.07" y="473.26"/>
      <point x="259.0" y="470.57"/>
      <point x="271.69" y="466.26" type="curve"/>
      <point x="293.88" y="535.41" type="line"/>
      <point x="282.88" y="539.03"/>
      <point x="271.71" y="542.34"/>
      <point x="259.23" y="543.96" type="curve"/>
      <point x="275.23" y="640.89" type="line"/>
      <point x="217.86" y="640.89" type="line"/>
      <point x="201.24" y="539.62" type="line"/>
      <point x="108.25" y="513.78"/>
      <point x="48.269999999999996" y="331.58"/>
      <point x="48.269999999999996" y="128.95" type="curve" smooth="yes"/>
      <point x="48.269999999999996" y="41.43"/>
      <point x="75.79" y="7.23"/>
      <point x="110.03" y="-4.04" type="curve"/>
    </contour>
  </outline>
</glyph>
<glyph name="sterling" format="2">
  <advance width="302.7"/>
  <unicode hex="00A3"/>
  <outline>
    <contour>
      <point x="16.14" y="0.0" type="line"/>
      <point x="217.88" y="0.0" type="line"/>
      <point x="227.7" y="63.4" type="line"/>
      <point x="100.03999999999999" y="63.4" type="line"/>
      <point x="146.84" y="130.62"/>
      <point x="180.88" y="197.07999999999998"/>
      <point x="180.88" y="297.1" type="curve" smooth="yes"/>
      <point x="180.88" y="354.28"/>
      <point x="167.12" y="405.52"/>
      <point x="167.12" y="462.08" type="curve" smooth="yes"/>
      <point x="167.12" y="592.08"/>
      <point x="217.57999999999998" y="641.02"/>
      <point x="257.44" y="641.02" type="curve" smooth="yes"/>
      <point x="275.34" y="641.02"/>
      <point x="290.1" y="637.26"/>
      <point x="306.1" y="627.88" type="curve"/>
      <point x="327.88" y="688.04" type="line"/>
      <point x="309.54" y="701.76"/>
      <point x="283.1" y="710.0"/>
      <point x="258.52" y="710.0" type="curve" smooth="yes"/>
      <point x="163.1" y="710.0"/>
      <point x="105.72" y="617.3"/>
      <point x="105.72" y="473.04" type="curve" smooth="yes"/>
      <point x="105.72" y="393.24"/>
      <point x="121.58" y="356.32"/>
      <point x="121.58" y="286.76" type="curve" smooth="yes"/>
      <point x="121.58" y="183.64"/>
      <point x="75.48" y="115.36"/>
      <point x="21.72" y="50.379999999999995" type="curve"/>
    </contour>
    <contour>
      <point x="60.14" y="342.44" type="line"/>
      <point x="259.82" y="342.44" type="line"/>
      <point x="266.54" y="389.96" type="line"/>
      <point x="67.48" y="389.96" type="line"/>
    </contour>
  </outline>
</glyph>
<glyph name="currency" format="2">
  <advance width="377.86"/>
  <unicode hex="00A4"/>
  <outline>
    <contour>
      <point x="43.010000000000005" y="108.35" type="line"/>
      <point x="114.95" y="176.22" type="line"/>
      <point x="129.16" y="161.8"/>
      <point x="149.2" y="154.21"/>
      <point x="173.0" y="154.21" type="curve" smooth="yes"/>
      <point x="196.18" y="154.21"/>
      <point x="218.67" y="161.8"/>
      <point x="237.71" y="175.91" type="curve"/>
      <point x="288.44" y="108.35" type="line"/>
      <point x="336.06" y="153.04" type="line"/>
      <point x="287.43" y="217.19" type="line"/>
      <point x="307.92" y="240.85"/>
      <point x="321.58" y="272.79"/>
      <point x="322.2" y="306.8" type="curve" smooth="yes"/>
      <point x="322.82" y="327.08"/>
      <point x="318.68" y="345.6"/>
      <point x="310.78" y="362.05" type="curve"/>
      <point x="379.31" y="426.2" type="line"/>
      <point x="345.99" y="470.89" type="line"/>
      <point x="274.67" y="404.26" type="line"/>
      <point x="259.77" y="418.37"/>
      <point x="239.73" y="426.96"/>
      <point x="216.24" y="426.96" type="curve" smooth="yes"/>
      <point x="192.13" y="426.96"/>
      <point x="169.02" y="418.06"/>
      <point x="149.36" y="403.95" type="curve"/>
      <point x="100.56" y="470.89" type="line"/>
      <point x="53.7" y="426.2" type="line"/>
      <point x="101.19" y="361.19" type="line"/>
      <point x="81.32" y="337.77"/>
      <point x="68.66" y="307.45"/>
      <point x="68.04" y="274.37" type="curve" smooth="yes"/>
      <point x="67.42" y="253.4"/>
      <point x="71.25" y="234.19"/>
      <point x="79.15" y="218.05" type="curve"/>
      <point x="10.45" y="153.04" type="line"/>
    </contour>
    <contour>
      <point x="181.65" y="203.66" type="curve" smooth="yes"/>
      <point x="141.88" y="203.66"/>
      <point x="114.56" y="234.36"/>
      <point x="115.49" y="276.13" type="curve" smooth="yes"/>
      <point x="116.42" y="331.08"/>
      <point x="161.23" y="377.2"/>
      <point x="208.59" y="377.2" type="curve" smooth="yes"/>
      <point x="249.05" y="377.2"/>
      <point x="275.37" y="345.57"/>
      <point x="274.44" y="303.73" type="curve" smooth="yes"/>
      <point x="273.51" y="248.85"/>
      <point x="229.7" y="203.66"/>
    </contour>
  </outline>
</glyph>
<glyph name="yen" format="2">
  <advance width="302.7"/>
  <unicode hex="00A5"/>
  <outline>
    <contour>
      <point x="63.56" y="334.62" type="line"/>
      <point x="130.76" y="334.62" type="line"/>
      <point x="116.2" y="244.74" type="line"/>
      <point x="50.38" y="244.74" type="line"/>
      <point x="42.04" y="197.84" type="line"/>
      <point x="108.86" y="197.84" type="line"/>
      <point x="77.72" y="0.0" type="line"/>
      <point x="140.36" y="0.0" type="line"/>
      <point x="171.5" y="197.84" type="line"/>
      <point x="241.46" y="197.84" type="line"/>
      <point x="248.8" y="244.74" type="line"/>
      <point x="178.84" y="244.74" type="line"/>
      <point x="193.4" y="334.62" type="line"/>
      <point x="262.98" y="334.62" type="line"/>
      <point x="270.7" y="381.52" type="line"/>
      <point x="202.12" y="381.52" type="line"/>
      <point x="335.24" y="701.0" type="line"/>
      <point x="268.26" y="705.52" type="line"/>
      <point x="180.14" y="440.94" type="line"/>
      <point x="169.44" y="701.38" type="line"/>
      <point x="102.46000000000001" y="700.0" type="line"/>
      <point x="138.1" y="381.52" type="line"/>
      <point x="71.28" y="381.52" type="line"/>
    </contour>
  </outline>
</glyph>
<glyph name="brokenbar" format="2">
  <advance width="125.6"/>
  <unicode hex="00A6"/>
  <outline>
    <contour>
      <point x="108.83" y="391.0" type="line"/>
      <point x="173.45" y="790.31" type="line"/>
      <point x="117.32" y="790.31" type="line"/>
      <point x="52.7" y="391.0" type="line"/>
    </contour>
    <contour>
      <point x="20.77" y="190.31" type="line"/>
      <point x="-42.85" y="-210.0" type="line"/>
      <point x="13.280000000000001" y="-210.0" type="line"/>
      <point x="77.21000000000001" y="190.31" type="line"/>
    </contour>
  </outline>
</glyph>
<glyph name="section" format="2">
  <advance width="346.28"/>
  <unicode hex="00A7"/>
  <outline>
    <contour>
      <point x="0.96" y="-116.92" type="curve"/>
      <point x="-28.3" y="-185.0" type="line"/>
      <point x="-0.0600000000000005" y="-209.45"/>
      <point x="36.06" y="-220.0"/>
      <point x="67.51" y="-220.0" type="curve" smooth="yes"/>
      <point x="206.93" y="-220.0"/>
      <point x="301.66" y="-33.81"/>
      <point x="301.66" y="150.41" type="curve" smooth="yes"/>
      <point x="301.66" y="311.09"/>
      <point x="221.89" y="417.92"/>
      <point x="221.89" y="559.11" type="curve" smooth="yes"/>
      <point x="221.89" y="624.4"/>
      <point x="247.93" y="674.13"/>
      <point x="288.83" y="674.13" type="curve" smooth="yes"/>
      <point x="299.14" y="674.13"/>
      <point x="308.28" y="670.51"/>
      <point x="320.97" y="663.51" type="curve"/>
      <point x="349.33" y="733.42" type="line"/>
      <point x="331.15999999999997" y="744.45"/>
      <point x="300.52" y="749.31"/>
      <point x="280.42" y="749.31" type="curve" smooth="yes"/>
      <point x="131.66" y="749.31"/>
      <point x="44.31" y="582.5"/>
      <point x="44.31" y="393.25" type="curve" smooth="yes"/>
      <point x="44.31" y="211.88"/>
      <point x="123.39" y="83.33"/>
      <point x="123.39" y="-46.379999999999995" type="curve" smooth="yes"/>
      <point x="123.39" y="-102.25999999999999"/>
      <point x="97.9" y="-145.82"/>
      <point x="57.79" y="-145.82" type="curve" smooth="yes"/>
      <point x="38.41" y="-145.82"/>
      <point x="16.96" y="-135.99"/>
    </contour>
    <contour>
      <point x="230.77" y="698.27" type="curve"/>
      <point x="194.3" y="664.59"/>
      <point x="176.37" y="606.22"/>
      <point x="176.37" y="552.88" type="curve" smooth="yes"/>
      <point x="176.37" y="393.68"/>
      <point x="253.59" y="298.24"/>
      <point x="253.59" y="131.31" type="curve" smooth="yes"/>
      <point x="253.59" y="-4.74"/>
      <point x="183.03" y="-149.85"/>
      <point x="102.49" y="-168.44" type="curve"/>
      <point x="151.95" y="-134.75"/>
      <point x="170.22" y="-80.87"/>
      <point x="170.22" y="-24.189999999999998" type="curve" smooth="yes"/>
      <point x="170.22" y="110.96000000000001"/>
      <point x="92.38" y="242.7"/>
      <point x="92.38" y="393.86" type="curve" smooth="yes"/>
      <point x="92.38" y="537.44"/>
      <point x="140.94" y="658.17"/>
    </contour>
  </outline>
</glyph>
<glyph name="copyright" format="2">
  <advance width="398.77"/>
  <unicode hex="00A9"/>
  <outline>
    <contour>
      <point x="162.48000000000002" y="-10.0" type="curve" smooth="yes"/>
      <point x="311.96" y="-10.0"/>
      <point x="391.05" y="293.64"/>
      <point x="391.05" y="538.47" type="curve" smooth="yes"/>
      <point x="391.05" y="658.4"/>
      <point x="341.8" y="712.07"/>
      <point x="260.67" y="712.07" type="curve" smooth="yes"/>
      <point x="110.5" y="712.07"/>
      <point x="31.41" y="408.43"/>
      <point x="31.41" y="163.6" type="curve" smooth="yes"/>
      <point x="31.41" y="43.67"/>
      <point x="80.66" y="-10.0"/>
    </contour>
    <contour>
      <point x="193.35" y="149.26" type="curve" smooth="yes"/>
      <point x="205.62" y="149.26"/>
      <point x="225.26999999999998" y="152.5"/>
      <point x="236.44" y="157.29" type="curve"/>
      <point x="236.44" y="199.47" type="line"/>
      <point x="229.51" y="196.85"/>
      <point x="214.06" y="195.23"/>
      <point x="207.2" y="195.23" type="curve" smooth="yes"/>
      <point x="182.89" y="195.23"/>
      <point x="171.1" y="221.16"/>
      <point x="171.1" y="264.64" type="curve" smooth="yes"/>
      <point x="171.1" y="372.89"/>
      <point x="205.62" y="490.01"/>
      <point x="250.93" y="490.01" type="curve" smooth="yes"/>
      <point x="260.31" y="490.01"/>
      <point x="267.93" y="489.39"/>
      <point x="275.62" y="485.77" type="curve"/>
      <point x="290.3" y="532.91" type="line"/>
      <point x="281.68" y="537.15"/>
      <point x="269.2" y="540.01"/>
      <point x="252.0" y="540.01" type="curve" smooth="yes"/>
      <point x="185.53" y="540.01"/>
      <point x="123.96000000000001" y="416.18"/>
      <point x="123.96000000000001" y="264.64" type="curve" smooth="yes"/>
      <point x="123.96000000000001" y="186.87"/>
      <point x="147.95" y="149.26"/>
    </contour>
    <contour>
      <point x="164.03" y="18.54" type="curve" smooth="yes"/>
      <point x="100.03" y="18.54"/>
      <point x="61.57" y="62.56"/>
      <point x="61.57" y="166.74" type="curve" smooth="yes"/>
      <point x="61.57" y="387.54"/>
      <point x="130.46" y="683.53"/>
      <point x="258.43" y="683.53" type="curve" smooth="yes"/>
      <point x="322.43" y="683.53"/>
      <point x="360.89" y="639.51"/>
      <point x="360.89" y="535.33" type="curve" smooth="yes"/>
      <point x="360.89" y="314.53"/>
      <point x="292.0" y="18.54"/>
    </contour>
  </outline>
</glyph>
<glyph name="ordfeminine" format="2">
  <advance width="217.8"/>
  <unicode hex="00AA"/>
  <outline>
    <contour>
      <point x="33.18" y="283.09" type="line"/>
      <point x="194.25" y="283.09" type="line"/>
      <point x="200.35" y="320.79" type="line"/>
      <point x="39.28" y="320.79" type="line"/>
    </contour>
    <component base="a.superior" xOffset="9.38"/>
  </outline>
</glyph>
<glyph name="logicalnot" format="2">
  <advance width="353.88"/>
  <unicode hex="00AC"/>
  <outline>
    <contour>
      <point x="55.35" y="358.41" type="line"/>
      <point x="264.0" y="358.41" type="line"/>
      <point x="235.96" y="177.62" type="line"/>
      <point x="296.19" y="177.62" type="line"/>
      <point x="334.05" y="417.33" type="line"/>
      <point x="65.17" y="417.33" type="line"/>
    </contour>
  </outline>
</glyph>
<glyph name="registered" format="2">
  <advance width="379.4"/>
  <unicode hex="00AE"/>
  <outline>
    <contour>
      <point x="187.35" y="208.0" type="curve" smooth="yes"/>
      <point x="306.73" y="208.0"/>
      <point x="401.99" y="447.73"/>
      <point x="401.99" y="716.95" type="curve" smooth="yes"/>
      <point x="401.99" y="834.54"/>
      <point x="360.39" y="894.38"/>
      <point x="279.74" y="894.38" type="curve" smooth="yes"/>
      <point x="160.36" y="894.38"/>
      <point x="65.1" y="654.65"/>
      <point x="65.1" y="385.43" type="curve" smooth="yes"/>
      <point x="65.1" y="267.84"/>
      <point x="106.7" y="208.0"/>
    </contour>
    <contour>
      <point x="188.59" y="234.23" type="curve" smooth="yes"/>
      <point x="125.45" y="234.23"/>
      <point x="92.33" y="286.04"/>
      <point x="92.33" y="385.88" type="curve" smooth="yes"/>
      <point x="92.33" y="635.31"/>
      <point x="175.39" y="868.15"/>
      <point x="278.5" y="868.15" type="curve" smooth="yes"/>
      <point x="341.64" y="868.15"/>
      <point x="374.76" y="816.34"/>
      <point x="374.76" y="716.5" type="curve" smooth="yes"/>
      <point x="374.76" y="467.07"/>
      <point x="291.7" y="234.23"/>
    </contour>
    <contour>
      <point x="144.52" y="387.61" type="line"/>
      <point x="187.56" y="387.61" type="line"/>
      <point x="208.94" y="519.44" type="line"/>
      <point x="216.46" y="518.06"/>
      <point x="223.98" y="516.68"/>
      <point x="233.88" y="517.37" type="curve"/>
      <point x="239.47" y="521.92" type="line"/>
      <point x="290.07" y="533.65"/>
      <point x="319.57" y="587.78"/>
      <point x="319.57" y="653.62" type="curve" smooth="yes"/>
      <point x="319.57" y="714.99"/>
      <point x="296.89" y="739.6"/>
      <point x="256.25" y="739.6" type="curve" smooth="yes"/>
      <point x="233.5" y="739.6"/>
      <point x="216.92000000000002" y="737.29"/>
      <point x="199.03" y="733.29" type="curve"/>
    </contour>
    <contour>
      <point x="229.94" y="554.07" type="curve" smooth="yes"/>
      <point x="223.11" y="554.07"/>
      <point x="218.04" y="555.76"/>
      <point x="214.35" y="556.76" type="curve"/>
      <point x="236.35" y="696.42" type="line"/>
      <point x="243.11" y="698.11"/>
      <point x="248.49" y="699.11"/>
      <point x="255.63" y="699.11" type="curve" smooth="yes"/>
      <point x="270.46" y="699.11"/>
      <point x="277.53" y="684.04"/>
      <point x="277.53" y="655.0" type="curve" smooth="yes"/>
      <point x="277.53" y="595.34"/>
      <point x="256.53" y="554.07"/>
    </contour>
    <contour>
      <point x="272.24" y="383.68" type="curve" smooth="yes"/>
      <point x="276.79" y="383.68"/>
      <point x="284.75" y="385.3"/>
      <point x="288.61" y="387.23" type="curve"/>
      <point x="293.02" y="434.37" type="line"/>
      <point x="291.02" y="432.99"/>
      <point x="289.02" y="432.99"/>
      <point x="287.71" y="432.99" type="curve" smooth="yes"/>
      <point x="272.99" y="432.99"/>
      <point x="269.40999999999997" y="458.89"/>
      <point x="263.40999999999997" y="540.91" type="curve"/>
      <point x="227.95" y="531.4" type="line"/>
      <point x="237.53" y="394.82"/>
      <point x="247.28" y="383.68"/>
    </contour>
  </outline>
</glyph>
<glyph name="degree" format="2">
  <advance width="230.59"/>
  <unicode hex="00B0"/>
  <outline>
    <contour>
      <point x="146.82" y="474.12" type="curve" smooth="yes"/>
      <point x="218.04" y="474.12"/>
      <point x="257.28" y="556.89"/>
      <point x="257.28" y="631.09" type="curve" smooth="yes"/>
      <point x="257.28" y="683.22"/>
      <point x="235.8" y="722.42"/>
      <point x="186.02" y="722.42" type="curve" smooth="yes"/>
      <point x="113.73" y="722.42"/>
      <point x="75.25" y="638.2"/>
      <point x="75.25" y="564.0" type="curve" smooth="yes"/>
      <point x="75.25" y="512.01"/>
      <point x="97.59" y="474.12"/>
    </contour>
    <contour>
      <point x="154.78" y="526.98" type="curve" smooth="yes"/>
      <point x="130.67" y="526.98"/>
      <point x="120.53" y="546.64"/>
      <point x="120.53" y="574.68" type="curve" smooth="yes"/>
      <point x="120.53" y="620.45"/>
      <point x="140.95" y="668.32"/>
      <point x="177.44" y="668.32" type="curve" smooth="yes"/>
      <point x="201.86" y="668.32"/>
      <point x="212.0" y="647.28"/>
      <point x="212.0" y="619.55" type="curve" smooth="yes"/>
      <point x="212.0" y="573.4"/>
      <point x="191.27" y="526.98"/>
    </contour>
  </outline>
</glyph>
<glyph name="plusminus" format="2">
  <advance width="355.26"/>
  <unicode hex="00B1"/>
  <outline>
    <contour>
      <point x="279.61" y="51.06" type="line"/>
      <point x="289.43" y="113.77" type="line"/>
      <point x="180.76" y="113.77" type="line"/>
      <point x="207.56" y="281.02" type="line"/>
      <point x="315.54" y="281.02" type="line"/>
      <point x="325.36" y="343.73" type="line"/>
      <point x="217.38" y="343.73" type="line"/>
      <point x="244.49" y="497.97" type="line"/>
      <point x="186.74" y="497.97" type="line"/>
      <point x="160.32" y="343.73" type="line"/>
      <point x="50.96" y="343.73" type="line"/>
      <point x="41.14" y="281.02" type="line"/>
      <point x="149.81" y="281.02" type="line"/>
      <point x="123.01" y="113.77" type="line"/>
      <point x="15.030000000000001" y="113.77" type="line"/>
      <point x="5.21" y="51.06" type="line"/>
    </contour>
  </outline>
</glyph>
<glyph name="uni00B2" format="2">
  <advance width="211.88"/>
  <unicode hex="00B2"/>
  <outline>
    <contour>
      <point x="49.42" y="367.93" type="line"/>
      <point x="187.53" y="367.93" type="line"/>
      <point x="193.56" y="404.77" type="line"/>
      <point x="100.42" y="404.77" type="line"/>
      <point x="163.28" y="504.92"/>
      <point x="227.73" y="611.56"/>
      <point x="227.73" y="705.25" type="curve" smooth="yes"/>
      <point x="227.73" y="746.59"/>
      <point x="209.15" y="773.31"/>
      <point x="172.78" y="773.31" type="curve" smooth="yes"/>
      <point x="145.65" y="773.31"/>
      <point x="120.76" y="762.07"/>
      <point x="99.04" y="740.0" type="curve"/>
      <point x="111.21" y="699.86" type="line"/>
      <point x="130.04" y="717.52"/>
      <point x="140.28" y="722.83"/>
      <point x="155.59" y="722.83" type="curve" smooth="yes"/>
      <point x="172.66" y="722.83"/>
      <point x="180.42" y="707.0"/>
      <point x="180.42" y="682.96" type="curve" smooth="yes"/>
      <point x="179.73" y="607.53"/>
      <point x="104.08" y="480.35"/>
      <point x="52.76" y="400.53" type="curve"/>
    </contour>
  </outline>
</glyph>
<glyph name="uni00B3" format="2">
  <advance width="222.74"/>
  <unicode hex="00B3"/>
  <outline>
    <contour>
      <point x="47.04" y="392.31" type="line"/>
      <point x="61.38" y="374.24"/>
      <point x="80.24" y="364.62"/>
      <point x="108.06" y="364.62" type="curve" smooth="yes"/>
      <point x="170.3" y="364.62"/>
      <point x="211.8" y="433.77"/>
      <point x="211.8" y="518.49" type="curve" smooth="yes"/>
      <point x="211.8" y="550.69"/>
      <point x="200.84" y="571.07"/>
      <point x="185.29" y="579.93" type="curve"/>
      <point x="214.18" y="598.96"/>
      <point x="236.66" y="647.59"/>
      <point x="236.66" y="701.21" type="curve" smooth="yes"/>
      <point x="236.66" y="751.14"/>
      <point x="210.07999999999998" y="774.62"/>
      <point x="174.02" y="774.62" type="curve" smooth="yes"/>
      <point x="153.34" y="774.62"/>
      <point x="129.45" y="767.83"/>
      <point x="108.04" y="749.9" type="curve"/>
      <point x="120.59" y="716.51" type="line"/>
      <point x="133.04" y="726.34"/>
      <point x="148.28" y="730.65"/>
      <point x="159.45" y="730.65" type="curve" smooth="yes"/>
      <point x="178.62" y="730.65"/>
      <point x="191.45" y="715.58"/>
      <point x="191.45" y="684.71" type="curve" smooth="yes"/>
      <point x="191.45" y="639.11"/>
      <point x="171.07" y="593.75"/>
      <point x="146.24" y="593.75" type="curve" smooth="yes"/>
      <point x="123.24" y="593.75" type="line"/>
      <point x="117.52" y="559.84" type="line"/>
      <point x="144.83" y="559.84" type="line" smooth="yes"/>
      <point x="161.38" y="559.84"/>
      <point x="171.0" y="543.77"/>
      <point x="171.0" y="516.04" type="curve" smooth="yes"/>
      <point x="171.0" y="466.82"/>
      <point x="152.93" y="407.04"/>
      <point x="108.75" y="407.04" type="curve" smooth="yes"/>
      <point x="93.06" y="407.04"/>
      <point x="81.68" y="412.8"/>
      <point x="71.2" y="426.25" type="curve"/>
    </contour>
  </outline>
</glyph>
<glyph name="uni00B5" format="2">
  <advance width="301.92"/>
  <unicode hex="00B5"/>
  <outline>
    <contour>
      <point x="-37.3" y="-210.0" type="line"/>
      <point x="24.72" y="-210.0" type="line"/>
      <point x="59.48" y="8.63" type="line"/>
      <point x="66.0" y="-4.48"/>
      <point x="78.42" y="-10.0"/>
      <point x="93.91" y="-10.0" type="curve" smooth="yes"/>
      <point x="117.81" y="-10.0"/>
      <point x="142.57" y="0.0"/>
      <point x="169.09" y="24.34" type="curve"/>
      <point x="174.57" y="3.34"/>
      <point x="192.91" y="-10.0"/>
      <point x="217.49" y="-10.0" type="curve" smooth="yes"/>
      <point x="231.69" y="-10.0"/>
      <point x="254.03" y="-4.140000000000001"/>
      <point x="267.89" y="4.65" type="curve"/>
      <point x="271.26" y="58.64" type="line"/>
      <point x="262.05" y="54.88"/>
      <point x="252.53" y="52.81"/>
      <point x="247.07999999999998" y="52.81" type="curve" smooth="yes"/>
      <point x="233.18" y="52.81"/>
      <point x="229.49" y="61.26"/>
      <point x="229.49" y="72.25999999999999" type="curve" smooth="yes"/>
      <point x="229.49" y="81.4"/>
      <point x="231.87" y="98.37"/>
      <point x="301.90999999999997" y="536.2" type="curve"/>
      <point x="239.51" y="536.2" type="line"/>
      <point x="166.54" y="75.82" type="line"/>
      <point x="146.05" y="59.78"/>
      <point x="120.97" y="52.26"/>
      <point x="107.07" y="52.26" type="curve" smooth="yes"/>
      <point x="84.58" y="52.26"/>
      <point x="72.99000000000001" y="66.16"/>
      <point x="73.61" y="87.89" type="curve" smooth="yes"/>
      <point x="80.74000000000001" y="136.26999999999998"/>
      <point x="102.19" y="279.58"/>
      <point x="142.57999999999998" y="536.2" type="curve"/>
      <point x="79.87" y="536.2" type="line"/>
    </contour>
  </outline>
</glyph>
<glyph name="paragraph" format="2">
  <advance width="402.15"/>
  <unicode hex="00B6"/>
  <outline>
    <contour>
      <point x="236.18" y="-210.0" type="line"/>
      <point x="287.04" y="-210.0" type="line"/>
      <point x="437.97" y="740.0" type="line"/>
      <point x="387.11" y="740.0" type="line"/>
    </contour>
    <contour>
      <point x="162.69" y="251.42000000000002" type="line"/>
      <point x="122.09" y="262.32"/>
      <point x="101.25999999999999" y="309.64"/>
      <point x="101.25999999999999" y="381.17" type="curve" smooth="yes"/>
      <point x="101.25999999999999" y="525.84"/>
      <point x="157.66" y="672.6"/>
      <point x="258.96" y="677.36" type="curve"/>
      <point x="118.47" y="-210.0" type="line"/>
      <point x="169.32999999999998" y="-210.0" type="line"/>
      <point x="320.26" y="740.0" type="line"/>
      <point x="287.04" y="740.0" type="line" smooth="yes"/>
      <point x="132.09" y="740.0"/>
      <point x="44.2" y="561.91"/>
      <point x="44.2" y="376.83" type="curve" smooth="yes"/>
      <point x="44.2" y="285.45"/>
      <point x="75.85" y="219.9"/>
      <point x="147.46" y="200.73" type="curve"/>
    </contour>
  </outline>
</glyph>
<glyph name="periodcentered" format="2">
  <advance width="121.0"/>
  <unicode hex="00B7"/>
  <outline>
    <contour>
      <point x="26.490000000000002" y="287.31" type="curve" smooth="yes"/>
      <point x="25.11" y="261.53"/>
      <point x="32.62" y="251.71"/>
      <point x="56.71" y="251.71" type="curve" smooth="yes"/>
      <point x="91.34" y="251.71"/>
      <point x="99.47" y="281.85"/>
      <point x="100.85" y="313.04" type="curve" smooth="yes"/>
      <point x="102.22999999999999" y="337.51"/>
      <point x="95.41" y="348.02"/>
      <point x="71.63" y="348.02" type="curve" smooth="yes"/>
      <point x="37.31" y="348.02"/>
      <point x="27.87" y="318.5"/>
    </contour>
  </outline>
</glyph>
<glyph name="uni00B9" format="2">
  <advance width="209.65"/>
  <unicode hex="00B9"/>
  <outline>
    <contour>
      <point x="41.97" y="370.0" type="line"/>
      <point x="200.3" y="370.0" type="line"/>
      <point x="206.95" y="409.94" type="line"/>
      <point x="152.15" y="409.94" type="line"/>
      <point x="211.29" y="769.38" type="line"/>
      <point x="187.89" y="769.38" type="line"/>
      <point x="95.59" y="713.09" type="line"/>
      <point x="101.11" y="670.88" type="line"/>
      <point x="157.98" y="710.62" type="line"/>
      <point x="109.11" y="409.94" type="line"/>
      <point x="48.69" y="409.94" type="line"/>
    </contour>
  </outline>
</glyph>
<glyph name="ordmasculine" format="2">
  <advance width="207.67"/>
  <unicode hex="00BA"/>
  <outline>
    <contour>
      <point x="33.87" y="283.09" type="line"/>
      <point x="174.01" y="283.09" type="line"/>
      <point x="179.42" y="320.79" type="line"/>
      <point x="39.28" y="320.79" type="line"/>
    </contour>
    <component base="o.superior" xOffset="14.9"/>
  </outline>
</glyph>
<glyph name="AE" format="2">
  <advance width="433.05"/>
  <unicode hex="00C6"/>
  <anchor x="184.35764" y="0.0" name="bottom"/>
  <anchor x="301.05" y="700.0" name="top"/>
  <outline>
    <contour>
      <point x="164.61" y="0.0" type="line"/>
      <point x="378.36" y="0.0" type="line"/>
      <point x="388.18" y="62.089999999999996" type="line"/>
      <point x="237.76" y="62.089999999999996" type="line"/>
      <point x="277.15" y="315.4" type="line"/>
      <point x="402.78" y="315.4" type="line"/>
      <point x="412.6" y="374.39" type="line"/>
      <point x="286.65999999999997" y="374.39" type="line"/>
      <point x="328.12" y="636.36" type="line"/>
      <point x="469.54" y="636.36" type="line"/>
      <point x="480.67" y="700.0" type="line"/>
      <point x="229.13" y="700.0" type="line"/>
      <point x="-38.48" y="0.0" type="line"/>
      <point x="26.85" y="0.0" type="line"/>
      <point x="128.75" y="260.22" type="line"/>
      <point x="205.14" y="260.22" type="line"/>
    </contour>
    <contour>
      <point x="147.6" y="322.93" type="line"/>
      <point x="265.65" y="645.14" type="line"/>
      <point x="214.96" y="322.93" type="line"/>
    </contour>
  </outline>
</glyph>
<glyph name="multiply" format="2">
  <advance width="339.84"/>
  <unicode hex="00D7"/>
  <outline>
    <contour>
      <point x="60.8" y="103.35" type="line"/>
      <point x="166.37" y="254.22" type="line"/>
      <point x="224.34" y="103.35" type="line"/>
      <point x="273.65" y="144.59" type="line"/>
      <point x="212.54" y="304.43" type="line"/>
      <point x="325.7" y="465.65" type="line"/>
      <point x="288.62" y="506.89" type="line"/>
      <point x="181.67" y="354.64" type="line"/>
      <point x="123.7" y="506.89" type="line"/>
      <point x="74.08" y="465.65" type="line"/>
      <point x="134.81" y="305.12" type="line"/>
      <point x="23.41" y="144.59" type="line"/>
    </contour>
  </outline>
</glyph>
<glyph name="Oslash" format="2">
  <advance width="334.44"/>
  <unicode hex="00D8"/>
  <anchor x="229.6" y="700.0" name="top"/>
  <outline>
    <contour>
      <point x="361.26" y="710.0" type="line"/>
      <point x="314.36" y="710.0" type="line"/>
      <point x="285.68" y="647.36" type="line"/>
      <point x="282.44" y="647.98" type="line"/>
      <point x="48.879999999999995" y="109.88" type="line"/>
      <point x="46.26" y="111.12" type="line"/>
      <point x="-7.300000000000001" y="-6.9" type="line"/>
      <point x="39.6" y="-6.9" type="line"/>
      <point x="66.8" y="53.78" type="line"/>
      <point x="70.03999999999999" y="53.16" type="line"/>
      <point x="305.08" y="593.84" type="line"/>
      <point x="307.7" y="592.6" type="line"/>
    </contour>
    <contour>
      <point x="128.18" y="-10.0" type="curve" smooth="yes"/>
      <point x="272.94" y="-10.0"/>
      <point x="338.44" y="328.98"/>
      <point x="338.44" y="547.54" type="curve" smooth="yes"/>
      <point x="338.44" y="665.32"/>
      <point x="304.76" y="710.0"/>
      <point x="226.54" y="710.0" type="curve" smooth="yes"/>
      <point x="84.88" y="710.0"/>
      <point x="16.28" y="371.02"/>
      <point x="16.28" y="153.07999999999998" type="curve" smooth="yes"/>
      <point x="16.28" y="34.68"/>
      <point x="49.96" y="-10.0"/>
    </contour>
    <contour>
      <point x="132.28" y="52.64" type="curve" smooth="yes"/>
      <point x="94.2" y="52.64"/>
      <point x="77.44" y="76.3"/>
      <point x="77.44" y="150.6" type="curve" smooth="yes"/>
      <point x="77.44" y="318.52"/>
      <point x="137.74" y="647.36"/>
      <point x="223.68" y="647.36" type="curve" smooth="yes"/>
      <point x="261.14" y="647.36"/>
      <point x="277.9" y="624.32"/>
      <point x="277.9" y="550.64" type="curve" smooth="yes"/>
      <point x="277.9" y="385.2"/>
      <point x="216.98" y="52.64"/>
    </contour>
  </outline>
</glyph>
<glyph name="Thorn" format="2">
  <advance width="294.53"/>
  <unicode hex="00DE"/>
  <outline>
    <contour>
      <point x="-7.51" y="0.0" type="line"/>
      <point x="55.82" y="0.0" type="line"/>
      <point x="80.24000000000001" y="152.9" type="line"/>
      <point x="94.50999999999999" y="150.97"/>
      <point x="110.62" y="150.97"/>
      <point x="127.86" y="150.97" type="curve" smooth="yes"/>
      <point x="229.85" y="150.97"/>
      <point x="302.46" y="282.61"/>
      <point x="302.46" y="466.36" type="curve" smooth="yes"/>
      <point x="302.46" y="564.52"/>
      <point x="268.88" y="610.68"/>
      <point x="186.38" y="610.68" type="curve" smooth="yes"/>
      <point x="175.48" y="610.68"/>
      <point x="163.57999999999998" y="609.99"/>
      <point x="151.99" y="608.61" type="curve"/>
      <point x="166.44" y="700.0" type="line"/>
      <point x="103.11" y="700.0" type="line"/>
    </contour>
    <contour>
      <point x="124.31" y="212.13" type="curve" smooth="yes"/>
      <point x="106.50999999999999" y="212.13"/>
      <point x="98.37" y="212.82"/>
      <point x="90.99000000000001" y="214.13" type="curve"/>
      <point x="142.55" y="545.83" type="line"/>
      <point x="155.45" y="548.52"/>
      <point x="166.97" y="549.52"/>
      <point x="177.49" y="549.52" type="curve" smooth="yes"/>
      <point x="219.71" y="549.52"/>
      <point x="240.37" y="528.86"/>
      <point x="240.37" y="460.43" type="curve" smooth="yes"/>
      <point x="240.37" y="319.38"/>
      <point x="193.43" y="212.13"/>
    </contour>
  </outline>
</glyph>
<glyph name="germandbls" format="2">
  <advance width="369.25"/>
  <unicode hex="00DF"/>
  <outline>
    <contour>
      <point x="6.9" y="-44.92" type="line" smooth="yes"/>
      <point x="-4.24" y="-114.52000000000001"/>
      <point x="-22.69" y="-157.57"/>
      <point x="-68.6" y="-157.57" type="curve" smooth="yes"/>
      <point x="-81.43" y="-157.57"/>
      <point x="-91.5" y="-156.19"/>
      <point x="-107.19" y="-151.19" type="curve"/>
      <point x="-124.52" y="-209.59" type="line"/>
      <point x="-105.25" y="-216.76"/>
      <point x="-85.91" y="-220.0"/>
      <point x="-64.12" y="-220.0" type="curve" smooth="yes"/>
      <point x="14.690000000000001" y="-220.0"/>
      <point x="51.44" y="-162.04"/>
      <point x="69.22999999999999" y="-48.989999999999995" type="curve" smooth="yes"/>
      <point x="161.03" y="534.81" type="line" smooth="yes"/>
      <point x="175.93" y="628.59"/>
      <point x="207.93" y="686.05"/>
      <point x="264.69" y="686.05" type="curve" smooth="yes"/>
      <point x="296.1" y="686.05"/>
      <point x="314.17" y="672.98"/>
      <point x="314.17" y="636.97" type="curve" smooth="yes"/>
      <point x="314.17" y="600.34"/>
      <point x="302.03" y="575.85"/>
      <point x="258.17" y="534.91" type="curve" smooth="yes"/>
      <point x="208.0" y="487.9"/>
      <point x="182.11" y="446.11"/>
      <point x="182.11" y="378.36" type="curve" smooth="yes"/>
      <point x="182.11" y="323.58"/>
      <point x="209.62" y="282.99"/>
      <point x="246.2" y="238.22" type="curve" smooth="yes"/>
      <point x="275.54" y="202.28"/>
      <point x="283.61" y="180.41"/>
      <point x="283.61" y="149.78" type="curve" smooth="yes"/>
      <point x="283.61" y="95.75999999999999"/>
      <point x="248.74" y="53.71"/>
      <point x="200.63" y="53.71" type="curve" smooth="yes"/>
      <point x="174.84" y="53.71"/>
      <point x="150.81" y="59.71"/>
      <point x="129.4" y="69.4" type="curve"/>
      <point x="111.41" y="11.79" type="line"/>
      <point x="133.13" y="-1.1400000000000001"/>
      <point x="164.4" y="-10.0"/>
      <point x="201.18" y="-10.0" type="curve" smooth="yes"/>
      <point x="292.74" y="-10.0"/>
      <point x="349.11" y="57.79"/>
      <point x="349.11" y="157.81" type="curve" smooth="yes"/>
      <point x="349.11" y="210.52"/>
      <point x="329.74" y="243.38"/>
      <point x="292.85" y="289.22" type="curve" smooth="yes"/>
      <point x="256.96" y="335.06"/>
      <point x="243.82" y="355.93"/>
      <point x="243.82" y="388.18" type="curve" smooth="yes"/>
      <point x="243.82" y="425.33"/>
      <point x="258.72" y="452.58"/>
      <point x="306.13" y="496.42" type="curve" smooth="yes"/>
      <point x="356.85" y="543.64"/>
      <point x="381.46" y="580.05"/>
      <point x="381.46" y="645.0" type="curve" smooth="yes"/>
      <point x="381.46" y="715.74"/>
      <point x="339.1" y="750.0"/>
      <point x="269.72" y="750.0" type="curve" smooth="yes"/>
      <point x="170.89" y="750.0"/>
      <point x="119.87" y="677.73"/>
      <point x="99.56" y="543.49" type="curve" smooth="yes"/>
      <point x="92.66" y="497.95" type="line"/>
      <point x="43.31" y="491.64" type="line"/>
      <point x="34.49" y="438.34" type="line"/>
      <point x="82.46000000000001" y="438.34" type="line"/>
    </contour>
  </outline>
</glyph>
<glyph name="ae" format="2">
  <advance width="457.18"/>
  <unicode hex="00E6"/>
  <anchor x="198.8" y="0.0" name="bottom"/>
  <anchor x="275.14" y="536.2" name="top"/>
  <outline>
    <contour>
      <point x="97.96" y="-10.0" type="curve" smooth="yes"/>
      <point x="122.2" y="-10.0"/>
      <point x="140.44" y="-2.62"/>
      <point x="158.16" y="17.68" type="curve"/>
      <point x="153.92" y="-6.140000000000001" type="line"/>
      <point x="212.84" y="-6.140000000000001" type="line"/>
      <point x="227.4" y="85.08" type="line"/>
      <point x="239.84" y="26.740000000000002"/>
      <point x="276.7" y="-9.38"/>
      <point x="325.78" y="-9.38" type="curve" smooth="yes"/>
      <point x="357.26" y="-9.38"/>
      <point x="388.98" y="-1.76"/>
      <point x="412.94" y="15.2" type="curve"/>
      <point x="402.22" y="73.36" type="line"/>
      <point x="374.5" y="59.5"/>
      <point x="350.78" y="53.5"/>
      <point x="327.54" y="53.5" type="curve" smooth="yes"/>
      <point x="282.84" y="53.5"/>
      <point x="252.32" y="103.58"/>
      <point x="252.32" y="184.84" type="curve" smooth="yes"/>
      <point x="252.32" y="349.3"/>
      <point x="301.82" y="487.04"/>
      <point x="371.56" y="487.04" type="curve" smooth="yes"/>
      <point x="397.26" y="487.04"/>
      <point x="407.78" y="471.1"/>
      <point x="407.78" y="439.06" type="curve" smooth="yes"/>
      <point x="407.78" y="385.36"/>
      <point x="371.08" y="331.14"/>
      <point x="316.62" y="299.96" type="curve" smooth="yes"/>
      <point x="292.96" y="286.06"/>
      <point x="265.92" y="276.92"/>
      <point x="235.64" y="273.4" type="curve"/>
      <point x="225.96" y="222.54" type="line"/>
      <point x="260.06" y="226.06"/>
      <point x="296.3" y="234.82"/>
      <point x="327.15999999999997" y="250.58" type="curve" smooth="yes"/>
      <point x="408.98" y="290.34"/>
      <point x="466.7" y="365.3"/>
      <point x="466.7" y="451.6" type="curve" smooth="yes"/>
      <point x="466.7" y="509.52"/>
      <point x="441.22" y="546.2"/>
      <point x="392.15999999999997" y="546.2" type="curve" smooth="yes"/>
      <point x="351.12" y="546.2"/>
      <point x="315.08" y="519.02"/>
      <point x="284.94" y="467.14" type="curve"/>
      <point x="298.22" y="546.2" type="line"/>
      <point x="241.54" y="546.2" type="line"/>
      <point x="238.92" y="531.48" type="line"/>
      <point x="227.3" y="542.58"/>
      <point x="211.44" y="546.2"/>
      <point x="196.72" y="546.2" type="curve" smooth="yes"/>
      <point x="89.76" y="546.2"/>
      <point x="13.280000000000001" y="380.1"/>
      <point x="13.280000000000001" y="140.58" type="curve" smooth="yes"/>
      <point x="13.280000000000001" y="43.34"/>
      <point x="43.62" y="-10.0"/>
    </contour>
    <contour>
      <point x="121.14" y="45.82" type="curve" smooth="yes"/>
      <point x="94.82" y="45.82"/>
      <point x="78.78" y="80.8"/>
      <point x="78.78" y="140.72" type="curve" smooth="yes"/>
      <point x="78.78" y="314.62"/>
      <point x="128.86" y="486.42"/>
      <point x="202.16" y="486.42" type="curve" smooth="yes"/>
      <point x="212.3" y="486.42"/>
      <point x="223.2" y="484.04"/>
      <point x="230.34" y="476.14" type="curve"/>
      <point x="165.5" y="61.86" type="line"/>
      <point x="153.6" y="52.339999999999996"/>
      <point x="137.18" y="45.82"/>
    </contour>
  </outline>
</glyph>
<glyph name="eth" format="2">
  <advance width="291.3"/>
  <unicode hex="00F0"/>
  <outline>
    <contour>
      <point x="245.24" y="460.24" type="curve"/>
      <point x="257.68" y="513.1" type="line"/>
      <point x="241.58" y="527.86"/>
      <point x="215.72" y="535.24"/>
      <point x="189.72" y="535.24" type="curve" smooth="yes"/>
      <point x="60.38" y="535.24"/>
      <point x="9.280000000000001" y="300.6"/>
      <point x="9.280000000000001" y="129.07999999999998" type="curve" smooth="yes"/>
      <point x="9.280000000000001" y="31.68"/>
      <point x="42.82" y="-10.0"/>
      <point x="110.08" y="-10.0" type="curve" smooth="yes"/>
      <point x="202.64" y="-10.0"/>
      <point x="239.6" y="65.48"/>
      <point x="278.22" y="316.06" type="curve" smooth="yes"/>
      <point x="291.74" y="404.7"/>
      <point x="300.5" y="475.16"/>
      <point x="300.5" y="529.96" type="curve" smooth="yes"/>
      <point x="300.5" y="657.56"/>
      <point x="259.48" y="723.64"/>
      <point x="158.44" y="723.64" type="curve" smooth="yes"/>
      <point x="135.14" y="723.64"/>
      <point x="108.8" y="717.92"/>
      <point x="86.08" y="711.68" type="curve"/>
      <point x="90.94" y="659.96" type="line"/>
      <point x="107.94" y="663.96"/>
      <point x="126.42" y="667.58"/>
      <point x="146.66" y="667.58" type="curve" smooth="yes"/>
      <point x="210.62" y="667.58"/>
      <point x="238.48" y="634.92"/>
      <point x="238.48" y="540.12" type="curve" smooth="yes"/>
      <point x="238.48" y="490.56"/>
      <point x="232.58" y="420.2"/>
      <point x="218.06" y="329.32" type="curve" smooth="yes"/>
      <point x="182.06" y="99.84"/>
      <point x="157.4" y="41.72"/>
      <point x="115.42" y="41.72" type="curve" smooth="yes"/>
      <point x="85.58" y="41.72"/>
      <point x="69.44" y="63.28"/>
      <point x="69.44" y="115.92" type="curve" smooth="yes"/>
      <point x="69.44" y="240.54"/>
      <point x="106.86" y="481.66"/>
      <point x="197.16" y="481.66" type="curve" smooth="yes"/>
      <point x="212.82" y="481.66"/>
      <point x="231.48" y="477.66"/>
    </contour>
    <contour>
      <point x="133.12" y="562.28" type="line"/>
      <point x="245.98" y="643.56" type="line"/>
      <point x="246.12" y="646.66" type="line"/>
      <point x="358.4" y="726.54" type="line"/>
      <point x="303.26" y="726.54" type="line"/>
      <point x="225.48" y="671.58" type="line"/>
      <point x="226.58" y="669.1" type="line"/>
      <point x="76.98" y="562.28" type="line"/>
    </contour>
  </outline>
</glyph>
<glyph name="divide" format="2">
  <advance width="354.88"/>
  <unicode hex="00F7"/>
  <outline>
    <contour>
      <point x="115.7" y="107.42" type="curve" smooth="yes"/>
      <point x="114.7" y="88.88"/>
      <point x="122.52" y="80.68"/>
      <point x="145.3" y="80.68" type="curve" smooth="yes"/>
      <point x="174.94" y="80.68"/>
      <point x="185.48" y="93.46000000000001"/>
      <point x="187.86" y="132.57999999999998" type="curve" smooth="yes"/>
      <point x="188.86" y="152.12"/>
      <point x="179.66" y="159.32"/>
      <point x="158.5" y="159.32" type="curve" smooth="yes"/>
      <point x="128.38" y="159.32"/>
      <point x="118.08" y="141.57999999999998"/>
    </contour>
    <contour>
      <point x="174.12" y="470.84" type="curve" smooth="yes"/>
      <point x="173.12" y="452.3"/>
      <point x="180.94" y="444.72"/>
      <point x="203.1" y="444.72" type="curve" smooth="yes"/>
      <point x="232.74" y="444.72"/>
      <point x="243.9" y="457.5"/>
      <point x="246.28" y="496.0" type="curve" smooth="yes"/>
      <point x="247.28" y="515.54"/>
      <point x="238.07999999999998" y="522.74"/>
      <point x="216.92" y="522.74" type="curve" smooth="yes"/>
      <point x="185.56" y="522.74"/>
      <point x="176.5" y="503.76"/>
    </contour>
    <contour>
      <point x="40.0" y="270.32" type="line"/>
      <point x="314.4" y="270.32" type="line"/>
      <point x="324.22" y="333.72" type="line"/>
      <point x="49.82" y="333.72" type="line"/>
    </contour>
  </outline>
</glyph>
<glyph name="oslash" format="2">
  <advance width="293.02"/>
  <unicode hex="00F8"/>
  <anchor x="187.6" y="536.2" name="top"/>
  <outline>
    <contour>
      <point x="271.76" y="545.82" type="line"/>
      <point x="236.74" y="481.32" type="line"/>
      <point x="233.5" y="481.94" type="line"/>
      <point x="42.84" y="106.25999999999999" type="line"/>
      <point x="40.84" y="107.5" type="line"/>
      <point x="-23.4" y="-10.0" type="line"/>
      <point x="21.64" y="-10.0" type="line"/>
      <point x="56.76" y="54.32" type="line"/>
      <point x="60.0" y="53.7" type="line"/>
      <point x="251.04" y="429.28" type="line"/>
      <point x="253.04" y="428.04" type="line"/>
      <point x="316.8" y="545.82" type="line"/>
    </contour>
    <contour>
      <point x="111.66" y="-10.0" type="curve" smooth="yes"/>
      <point x="238.54" y="-10.0"/>
      <point x="280.12" y="274.22"/>
      <point x="280.12" y="419.98" type="curve" smooth="yes"/>
      <point x="280.12" y="516.8"/>
      <point x="250.16" y="545.82"/>
      <point x="180.22" y="545.82" type="curve" smooth="yes"/>
      <point x="53.34" y="545.82"/>
      <point x="11.76" y="261.6"/>
      <point x="11.76" y="116.46000000000001" type="curve" smooth="yes"/>
      <point x="11.76" y="19.64"/>
      <point x="42.34" y="-10.0"/>
    </contour>
    <contour>
      <point x="112.9" y="48.54" type="curve" smooth="yes"/>
      <point x="83.0" y="48.54"/>
      <point x="68.82" y="63.4"/>
      <point x="68.82" y="117.56" type="curve" smooth="yes"/>
      <point x="68.82" y="192.34"/>
      <point x="103.34" y="487.28"/>
      <point x="179.6" y="487.28" type="curve" smooth="yes"/>
      <point x="209.5" y="487.28"/>
      <point x="223.68" y="472.42"/>
      <point x="223.68" y="418.88" type="curve" smooth="yes"/>
      <point x="223.68" y="343.48"/>
      <point x="189.16" y="48.54"/>
    </contour>
  </outline>
</glyph>
<glyph name="thorn" format="2">
  <advance width="299.54"/>
  <unicode hex="00FE"/>
  <outline>
    <contour>
      <point x="-37.68" y="-210.0" type="line"/>
      <point x="24.65" y="-210.0" type="line"/>
      <point x="57.65" y="-3.0" type="line"/>
      <point x="70.72" y="-7.07"/>
      <point x="84.34" y="-9.38"/>
      <point x="102.44" y="-9.38" type="curve" smooth="yes"/>
      <point x="219.12" y="-9.38"/>
      <point x="285.57" y="189.21"/>
      <point x="285.57" y="389.11" type="curve" smooth="yes"/>
      <point x="285.57" y="500.34"/>
      <point x="263.5" y="546.2"/>
      <point x="206.16" y="546.2" type="curve" smooth="yes"/>
      <point x="178.03" y="546.2"/>
      <point x="158.48" y="534.24"/>
      <point x="140.96" y="522.69" type="curve"/>
      <point x="175.65" y="740.0" type="line"/>
      <point x="112.32" y="740.0" type="line"/>
    </contour>
    <contour>
      <point x="95.17" y="49.54" type="curve" smooth="yes"/>
      <point x="85.58" y="49.54"/>
      <point x="75.68" y="50.92"/>
      <point x="67.16" y="55.37" type="curve"/>
      <point x="132.38" y="467.59000000000003" type="line"/>
      <point x="143.35" y="474.8"/>
      <point x="163.6" y="482.01"/>
      <point x="176.57" y="482.01" type="curve" smooth="yes"/>
      <point x="206.03" y="482.01"/>
      <point x="220.69" y="452.1"/>
      <point x="220.69" y="382.7" type="curve" smooth="yes"/>
      <point x="220.69" y="220.91"/>
      <point x="169.85" y="49.54"/>
    </contour>
  </outline>
</glyph>
<glyph name="Dcroat" format="2">
  <advance width="331.92"/>
  <unicode hex="0110"/>
  <outline>
    <contour>
      <point x="16.42" y="326.65" type="line"/>
      <point x="187.88" y="326.65" type="line"/>
      <point x="198.32" y="388.91" type="line"/>
      <point x="26.86" y="388.91" type="line"/>
    </contour>
    <component base="D" xOffset="8.55"/>
  </outline>
</glyph>
<glyph name="dcroat" format="2">
  <advance width="304.71"/>
  <unicode hex="0111"/>
  <outline>
    <contour>
      <point x="157.54" y="618.83" type="line"/>
      <point x="360.78" y="618.83" type="line"/>
      <point x="367.5" y="658.94" type="line"/>
      <point x="164.57" y="658.94" type="line"/>
    </contour>
    <component base="d"/>
  </outline>
</glyph>
<glyph name="Hbar" format="2">
  <advance width="336.34"/>
  <unicode hex="0126"/>
  <outline>
    <contour>
      <point x="37.97" y="502.0" type="line"/>
      <point x="370.37" y="502.0" type="line"/>
      <point x="379.19" y="557.92" type="line"/>
      <point x="46.79" y="557.92" type="line"/>
    </contour>
    <component base="H" xOffset="2.24"/>
  </outline>
</glyph>
<glyph name="hbar" format="2">
  <advance width="304.02"/>
  <unicode hex="0127"/>
  <outline>
    <contour>
      <point x="56.38" y="618.83" type="line"/>
      <point x="229.55" y="618.83" type="line"/>
      <point x="236.27" y="658.94" type="line"/>
      <point x="63.1" y="658.94" type="line"/>
    </contour>
    <component base="h" xOffset="2.48"/>
  </outline>
</glyph>
<glyph name="Idotaccent" format="2">
  <advance width="138.38"/>
  <unicode hex="0130"/>
  <outline>
    <contour>
      <point x="164.46" y="871.69" type="curve" smooth="yes"/>
      <point x="130.0" y="871.69"/>
      <point x="120.39" y="847.68"/>
      <point x="118.32" y="809.73" type="curve" smooth="yes"/>
      <point x="117.63" y="787.78"/>
      <point x="129.14" y="779.72"/>
      <point x="148.47" y="779.72" type="curve" smooth="yes"/>
      <point x="183.24" y="779.72"/>
      <point x="192.54" y="804.35"/>
      <point x="194.61" y="841.99" type="curve" smooth="yes"/>
      <point x="195.3" y="863.94"/>
      <point x="183.48" y="871.69"/>
    </contour>
    <component base="I"/>
  </outline>
</glyph>
<glyph name="dotlessi" format="2">
  <advance width="140.28"/>
  <unicode hex="0131"/>
  <anchor x="25.95" y="0.0" name="bottom"/>
  <anchor x="57.96" y="0.0" name="ogonek"/>
  <anchor x="110.88" y="536.2" name="top"/>
  <outline>
    <contour>
      <point x="57.96" y="0.0" type="line"/>
      <point x="142.89" y="536.2" type="line"/>
      <point x="79.56" y="536.2" type="line"/>
      <point x="-4.68" y="0.0" type="line"/>
    </contour>
  </outline>
</glyph>
<glyph name="kgreenlandic" format="2">
  <advance width="287.54"/>
  <unicode hex="0138"/>
  <anchor x="115.52" y="0.0" name="bottom"/>
  <anchor x="186.07999999999998" y="536.2" name="top"/>
  <outline>
    <contour>
      <point x="-5.0600000000000005" y="0.0" type="line"/>
      <point x="58.2" y="0.0" type="line"/>
      <point x="142.82" y="536.2" type="line"/>
      <point x="79.56" y="536.2" type="line"/>
    </contour>
    <contour>
      <point x="230.32" y="-10.0" type="curve" smooth="yes"/>
      <point x="239.42" y="-10.0"/>
      <point x="248.52" y="-9.0"/>
      <point x="258.62" y="-4.76" type="curve"/>
      <point x="264.92" y="60.839999999999996" type="line"/>
      <point x="258.3" y="59.46"/>
      <point x="253.3" y="59.08"/>
      <point x="248.68" y="59.7" type="curve" smooth="yes"/>
      <point x="223.92000000000002" y="62.8"/>
      <point x="203.54" y="89.97999999999999"/>
      <point x="163.06" y="197.57999999999998" type="curve" smooth="yes"/>
      <point x="104.72" y="354.08" type="line"/>
      <point x="86.52" y="257.44" type="line"/>
      <point x="137.7" y="114.98" type="line" smooth="yes"/>
      <point x="171.07999999999998" y="22.72"/>
      <point x="192.84" y="-10.0"/>
    </contour>
    <contour>
      <point x="141.46" y="239.42" type="line"/>
      <point x="213.94" y="307.72"/>
      <point x="279.94" y="420.3"/>
      <point x="315.36" y="536.34" type="curve"/>
      <point x="256.82" y="545.82" type="line"/>
      <point x="221.5" y="427.64"/>
      <point x="170.74" y="350.18"/>
      <point x="111.03999999999999" y="290.04" type="curve"/>
    </contour>
  </outline>
</glyph>
<glyph name="Ldot" format="2">
  <advance width="237.27"/>
  <unicode hex="013F"/>
  <outline>
    <contour>
      <point x="172.00938" y="360.70822" type="curve" smooth="yes"/>
      <point x="170.62938" y="340.30362"/>
      <point x="175.86522" y="333.06809"/>
      <point x="194.68304999999998" y="333.06809" type="curve" smooth="yes"/>
      <point x="220.52641" y="333.06809"/>
      <point x="226.17548" y="353.38729"/>
      <point x="227.55548" y="377.85804" type="curve" smooth="yes"/>
      <point x="228.93547999999998" y="397.15941"/>
      <point x="224.38963999999999" y="405.08494"/>
      <point x="205.77827" y="405.08494" type="curve" smooth="yes"/>
      <point x="180.14168" y="405.08494"/>
      <point x="173.38938" y="385.17897"/>
    </contour>
    <component base="L"/>
  </outline>
</glyph>
<glyph name="ldot" format="2">
  <advance width="210.74"/>
  <unicode hex="0140"/>
  <outline>
    <contour>
      <point x="164.19451" y="354.64059" type="curve" smooth="yes"/>
      <point x="162.81450999999998" y="334.38014"/>
      <point x="167.94929" y="327.21374000000003"/>
      <point x="186.53338000000002" y="327.21374000000003" type="curve" smooth="yes"/>
      <point x="211.98645" y="327.21374000000003"/>
      <point x="217.52547" y="347.27006"/>
      <point x="218.90547" y="371.5607" type="curve" smooth="yes"/>
      <point x="220.28547" y="390.7235"/>
      <point x="215.84069" y="398.5799"/>
      <point x="197.45872" y="398.5799" type="curve" smooth="yes"/>
      <point x="172.20746" y="398.5799"/>
      <point x="165.57451" y="378.93122999999997"/>
    </contour>
    <component base="l"/>
  </outline>
</glyph>
<glyph name="Lslash" format="2">
  <advance width="249.47"/>
  <unicode hex="0141"/>
  <outline>
    <contour>
      <point x="4.0" y="0.0" type="line"/>
      <point x="198.23" y="0.0" type="line"/>
      <point x="208.05" y="62.089999999999996" type="line"/>
      <point x="76.84" y="62.089999999999996" type="line"/>
      <point x="113.5" y="292.05" type="line"/>
      <point x="220.57999999999998" y="378.28" type="line"/>
      <point x="232.32999999999998" y="448.92" type="line"/>
      <point x="124.63" y="362.38" type="line"/>
      <point x="178.32999999999998" y="700.0" type="line"/>
      <point x="115.31" y="700.0" type="line"/>
      <point x="55.51" y="323.15999999999997" type="line"/>
      <point x="11.2" y="288.74" type="line"/>
      <point x="-0.31" y="217.41" type="line"/>
      <point x="43.69" y="251.83" type="line"/>
    </contour>
  </outline>
</glyph>
<glyph name="lslash" format="2">
  <advance width="158.82"/>
  <unicode hex="0142"/>
  <outline>
    <contour>
      <point x="-3.31" y="203.3" type="line"/>
      <point x="175.82" y="362.5" type="line"/>
      <point x="186.02" y="428.32" type="line"/>
      <point x="6.58" y="269.12" type="line"/>
    </contour>
    <component base="l" xOffset="6.2"/>
  </outline>
</glyph>
<glyph name="Eng" format="2">
  <advance width="332.61"/>
  <unicode hex="014A"/>
  <outline>
    <contour>
      <point x="-7.51" y="0.0" type="line"/>
      <point x="50.55" y="0.0" type="line"/>
      <point x="135.5" y="539.54" type="line"/>
      <point x="188.86" y="-0.7199999999999998" type="line"/>
      <point x="181.41" y="-64.88"/>
      <point x="154.02" y="-86.06"/>
      <point x="113.9" y="-86.06" type="curve" smooth="yes"/>
      <point x="102.69" y="-86.06"/>
      <point x="91.1" y="-83.99"/>
      <point x="80.13" y="-80.53999999999999" type="curve"/>
      <point x="68.0" y="-150.76" type="line"/>
      <point x="83.21000000000001" y="-154.82999999999998"/>
      <point x="97.59" y="-156.21"/>
      <point x="112.21000000000001" y="-156.21" type="curve" smooth="yes"/>
      <point x="199.82999999999998" y="-154.35"/>
      <point x="237.4" y="-98.56"/>
      <point x="252.19" y="-4.96" type="curve" smooth="yes"/>
      <point x="363.81" y="700.0" type="line"/>
      <point x="305.75" y="700.0" type="line"/>
      <point x="220.01" y="156.51" type="line"/>
      <point x="169.89" y="700.0" type="line"/>
      <point x="102.8" y="700.0" type="line"/>
    </contour>
  </outline>
</glyph>
<glyph name="eng" format="2">
  <advance width="298.92"/>
  <unicode hex="014B"/>
  <outline>
    <contour>
      <point x="208.39" y="-43.1" type="curve" smooth="yes"/>
      <point x="267.35" y="336.12"/>
      <point x="290.29" y="467.91"/>
      <point x="290.29" y="479.35" type="curve" smooth="yes"/>
      <point x="290.29" y="519.72"/>
      <point x="266.81" y="546.2"/>
      <point x="223.16" y="546.2" type="curve" smooth="yes"/>
      <point x="195.37" y="546.2"/>
      <point x="161.82" y="535.13"/>
      <point x="134.0" y="514.69" type="curve"/>
      <point x="137.62" y="536.2" type="line"/>
      <point x="79.56" y="536.2" type="line"/>
      <point x="-5.369999999999999" y="0.0" type="line"/>
      <point x="57.27" y="0.0" type="line"/>
      <point x="131.31" y="462.52" type="line"/>
      <point x="146.97" y="474.42"/>
      <point x="171.67" y="483.32"/>
      <point x="186.64" y="483.32" type="curve" smooth="yes"/>
      <point x="212.27" y="483.32"/>
      <point x="223.55" y="471.73"/>
      <point x="223.55" y="449.86" type="curve" smooth="yes"/>
      <point x="223.55" y="445.86"/>
      <point x="222.93" y="439.38"/>
      <point x="146.99" y="-41.510000000000005" type="curve" smooth="yes"/>
      <point x="137.09" y="-103.97999999999999"/>
      <point x="120.05" y="-147.82"/>
      <point x="77.55" y="-147.82" type="curve" smooth="yes"/>
      <point x="70.34" y="-147.82"/>
      <point x="64.27000000000001" y="-147.13"/>
      <point x="56.44" y="-145.13" type="curve"/>
      <point x="40.59" y="-215.76" type="line"/>
      <point x="52.14" y="-218.38"/>
      <point x="65.0" y="-220.0"/>
      <point x="81.72" y="-220.0" type="curve" smooth="yes"/>
      <point x="144.41" y="-220.0"/>
      <point x="190.29" y="-171.1"/>
    </contour>
  </outline>
</glyph>
<glyph name="OE" format="2">
  <advance width="449.13"/>
  <unicode hex="0152"/>
  <outline>
    <contour>
      <point x="394.44" y="0.0" type="line"/>
      <point x="404.26" y="62.089999999999996" type="line"/>
      <point x="253.53" y="62.089999999999996" type="line"/>
      <point x="295.68" y="329.2" type="line"/>
      <point x="420.93" y="329.2" type="line"/>
      <point x="430.75" y="388.19" type="line"/>
      <point x="305.5" y="388.19" type="line"/>
      <point x="344.2" y="636.36" type="line"/>
      <point x="485.62" y="636.36" type="line"/>
      <point x="496.75" y="700.0" type="line"/>
      <point x="350.26" y="700.0" type="line"/>
      <point x="327.40999999999997" y="703.93"/>
      <point x="294.5" y="710.0"/>
      <point x="267.33" y="710.0" type="curve" smooth="yes"/>
      <point x="94.58" y="710.0"/>
      <point x="22.11" y="452.86"/>
      <point x="22.11" y="169.89" type="curve" smooth="yes"/>
      <point x="22.11" y="40.68"/>
      <point x="62.52" y="-10.0"/>
      <point x="160.71" y="-10.0" type="curve" smooth="yes"/>
      <point x="175.6" y="-10.0"/>
      <point x="203.35" y="-6.93"/>
      <point x="236.99" y="0.0" type="curve"/>
    </contour>
    <contour>
      <point x="189.2" y="56.78" type="line"/>
      <point x="177.3" y="52.71"/>
      <point x="167.16" y="51.71"/>
      <point x="159.09" y="51.71" type="curve" smooth="yes"/>
      <point x="100.47999999999999" y="51.71"/>
      <point x="85.13" y="94.1"/>
      <point x="85.13" y="177.82" type="curve" smooth="yes"/>
      <point x="85.13" y="426.62"/>
      <point x="156.73" y="646.81"/>
      <point x="254.07" y="646.81" type="curve" smooth="yes"/>
      <point x="267.66" y="646.81"/>
      <point x="276.11" y="643.05"/>
      <point x="281.87" y="641.67" type="curve"/>
    </contour>
  </outline>
</glyph>
<glyph name="oe" format="2">
  <advance width="468.46"/>
  <unicode hex="0153"/>
  <outline>
    <contour>
      <point x="111.03999999999999" y="-10.0" type="curve" smooth="yes"/>
      <point x="160.56" y="-10.0"/>
      <point x="197.18" y="41.54"/>
      <point x="217.94" y="104.02000000000001" type="curve"/>
      <point x="233.1" y="29.88"/>
      <point x="269.72" y="-10.0"/>
      <point x="327.38" y="-10.0" type="curve" smooth="yes"/>
      <point x="361.34" y="-10.0"/>
      <point x="397.4" y="-1.76"/>
      <point x="423.84" y="15.2" type="curve"/>
      <point x="410.02" y="75.22" type="line"/>
      <point x="382.3" y="61.36"/>
      <point x="358.58" y="54.74"/>
      <point x="335.96" y="54.74" type="curve" smooth="yes"/>
      <point x="291.26" y="54.74"/>
      <point x="263.84" y="97.0"/>
      <point x="263.84" y="184.46" type="curve" smooth="yes"/>
      <point x="263.84" y="361.94"/>
      <point x="316.44" y="487.04"/>
      <point x="382.46" y="487.04" type="curve" smooth="yes"/>
      <point x="408.16" y="487.04"/>
      <point x="419.3" y="471.1"/>
      <point x="419.3" y="438.68" type="curve" smooth="yes"/>
      <point x="419.3" y="384.36"/>
      <point x="382.6" y="333.86"/>
      <point x="327.52" y="302.06" type="curve" smooth="yes"/>
      <point x="305.86" y="289.54"/>
      <point x="280.96" y="281.02"/>
      <point x="254.06" y="277.5" type="curve"/>
      <point x="242.38" y="222.92000000000002" type="line"/>
      <point x="275.1" y="226.44"/>
      <point x="308.58" y="235.82"/>
      <point x="338.06" y="250.2" type="curve" smooth="yes"/>
      <point x="419.88" y="289.72"/>
      <point x="477.6" y="365.3"/>
      <point x="477.6" y="451.6" type="curve" smooth="yes"/>
      <point x="477.6" y="509.52"/>
      <point x="448.4" y="546.2"/>
      <point x="391.9" y="546.2" type="curve" smooth="yes"/>
      <point x="341.0" y="546.2"/>
      <point x="299.58" y="510.6"/>
      <point x="270.2" y="455.88" type="curve"/>
      <point x="262.9" y="518.5"/>
      <point x="239.74" y="545.82"/>
      <point x="179.6" y="545.82" type="curve" smooth="yes"/>
      <point x="52.34" y="545.82"/>
      <point x="11.14" y="261.6"/>
      <point x="11.14" y="116.46000000000001" type="curve" smooth="yes"/>
      <point x="11.14" y="19.64"/>
      <point x="41.72" y="-10.0"/>
    </contour>
    <contour>
      <point x="112.28" y="51.02" type="curve" smooth="yes"/>
      <point x="87.96000000000001" y="51.02"/>
      <point x="72.53999999999999" y="60.92"/>
      <point x="72.53999999999999" y="115.7" type="curve" smooth="yes"/>
      <point x="72.53999999999999" y="190.48"/>
      <point x="107.06" y="484.8"/>
      <point x="178.98" y="484.8" type="curve" smooth="yes"/>
      <point x="203.3" y="484.8"/>
      <point x="218.72" y="475.52"/>
      <point x="218.72" y="420.74" type="curve" smooth="yes"/>
      <point x="218.72" y="345.34"/>
      <point x="184.2" y="51.02"/>
    </contour>
  </outline>
</glyph>
<glyph name="uni0162" format="2">
  <advance width="262.02"/>
  <unicode hex="0162"/>
  <anchor x="87.16159" y="0.0" name="_bottom"/>
  <anchor x="41.120000000000005" y="-220.0" name="bottom"/>
  <outline>
    <contour>
      <point x="0.5099999999999998" y="-209.69" type="line"/>
      <point x="12.99" y="-217.38"/>
      <point x="26.85" y="-220.0"/>
      <point x="41.120000000000005" y="-220.0" type="curve" smooth="yes"/>
      <point x="95.59" y="-220.0"/>
      <point x="124.06" y="-161.38"/>
      <point x="124.06" y="-96.91" type="curve" smooth="yes"/>
      <point x="124.06" y="-63.08"/>
      <point x="119.68" y="-27.8"/>
      <point x="112.06" y="2.48" type="curve"/>
      <point x="69.88" y="2.17" type="line"/>
      <point x="76.57" y="-30.7"/>
      <point x="80.95" y="-59.64"/>
      <point x="80.95" y="-88.47" type="curve" smooth="yes"/>
      <point x="80.95" y="-140.65"/>
      <point x="62.4" y="-169.82999999999998"/>
      <point x="36.47" y="-169.82999999999998" type="curve" smooth="yes"/>
      <point x="27.54" y="-169.82999999999998"/>
      <point x="20.16" y="-167.45"/>
      <point x="12.23" y="-163.07" type="curve"/>
    </contour>
    <component base="T"/>
  </outline>
</glyph>
<glyph name="Tbar" format="2">
  <advance width="264.78"/>
  <unicode hex="0166"/>
  <outline>
    <contour>
      <point x="316.34" y="639.77" type="line"/>
      <point x="326.15999999999997" y="700.0" type="line"/>
      <point x="72.93" y="700.0" type="line"/>
      <point x="63.11" y="639.77" type="line"/>
      <point x="158.18" y="639.77" type="line"/>
      <point x="118.62" y="395.27" type="line"/>
      <point x="48.61" y="395.27" type="line"/>
      <point x="37.55" y="332.7" type="line"/>
      <point x="109.18" y="332.7" type="line"/>
      <point x="56.38" y="0.0" type="line"/>
      <point x="119.09" y="0.0" type="line"/>
      <point x="171.89" y="332.7" type="line"/>
      <point x="244.59" y="332.7" type="line"/>
      <point x="255.65" y="395.27" type="line"/>
      <point x="182.02" y="395.27" type="line"/>
      <point x="220.89" y="639.77" type="line"/>
    </contour>
  </outline>
</glyph>
<glyph name="uogonek" format="2">
  <advance width="305.06"/>
  <unicode hex="0173"/>
  <outline>
    <contour>
      <point x="203.86" y="-215.35" type="curve" smooth="yes"/>
      <point x="220.34" y="-215.35"/>
      <point x="234.82" y="-210.04"/>
      <point x="245.85" y="-202.73" type="curve"/>
      <point x="246.74" y="-151.91" type="line"/>
      <point x="242.6" y="-154.67000000000002"/>
      <point x="234.91" y="-158.05"/>
      <point x="225.84" y="-158.05" type="curve" smooth="yes"/>
      <point x="214.46" y="-158.05"/>
      <point x="207.7" y="-148.29"/>
      <point x="207.7" y="-131.39" type="curve" smooth="yes"/>
      <point x="207.7" y="-95.59"/>
      <point x="232.36" y="-43.989999999999995"/>
      <point x="270.34" y="4.65" type="curve"/>
      <point x="273.71" y="58.64" type="line"/>
      <point x="264.5" y="54.88"/>
      <point x="254.98" y="52.81"/>
      <point x="249.53" y="52.81" type="curve" smooth="yes"/>
      <point x="235.63" y="52.81"/>
      <point x="231.94" y="61.26"/>
      <point x="231.94" y="72.25999999999999" type="curve" smooth="yes"/>
      <point x="231.94" y="81.4"/>
      <point x="234.32" y="98.37"/>
      <point x="304.36" y="536.2" type="curve"/>
      <point x="241.96" y="536.2" type="line"/>
      <point x="168.99" y="75.82" type="line"/>
      <point x="148.5" y="59.78"/>
      <point x="123.42" y="52.26"/>
      <point x="109.52" y="52.26" type="curve" smooth="yes"/>
      <point x="87.03" y="52.26"/>
      <point x="75.44" y="66.16"/>
      <point x="76.06" y="87.89" type="curve" smooth="yes"/>
      <point x="81.64" y="133.51"/>
      <point x="90.15" y="185.74"/>
      <point x="145.03" y="536.2" type="curve"/>
      <point x="82.32" y="536.2" type="line"/>
      <point x="33.18" y="231.98"/>
      <point x="10.63" y="107.98"/>
      <point x="10.63" y="59.16" type="curve" smooth="yes"/>
      <point x="10.63" y="17.2"/>
      <point x="36.49" y="-10.0"/>
      <point x="80.55" y="-10.0" type="curve" smooth="yes"/>
      <point x="111.58" y="-10.0"/>
      <point x="137.58" y="2.17"/>
      <point x="168.75" y="28.060000000000002" type="curve"/>
      <point x="173.92" y="4.27"/>
      <point x="193.5" y="-10.0"/>
      <point x="219.32" y="-10.0" type="curve" smooth="yes"/>
      <point x="228.28" y="-10.0"/>
      <point x="235.45" y="-1.25"/>
      <point x="235.56" y="7.1899999999999995" type="curve"/>
      <point x="185.6" y="-48.989999999999995"/>
      <point x="150.02" y="-104.06"/>
      <point x="150.02" y="-157.78" type="curve" smooth="yes"/>
      <point x="150.02" y="-193.56"/>
      <point x="171.7" y="-215.35"/>
    </contour>
  </outline>
</glyph>
<glyph name="longs" format="2">
  <advance width="161.62"/>
  <unicode hex="017F"/>
  <outline>
    <contour>
      <point x="-64.12" y="-220.0" type="curve" smooth="yes"/>
      <point x="14.690000000000001" y="-220.0"/>
      <point x="51.44" y="-162.04"/>
      <point x="69.22999999999999" y="-48.989999999999995" type="curve" smooth="yes"/>
      <point x="155.99" y="497.95" type="line" smooth="yes"/>
      <point x="177.48" y="635.34"/>
      <point x="204.04" y="685.12"/>
      <point x="253.02" y="685.12" type="curve" smooth="yes"/>
      <point x="265.09" y="685.12"/>
      <point x="279.16" y="682.12"/>
      <point x="291.47" y="678.5" type="curve"/>
      <point x="311.18" y="736.18" type="line"/>
      <point x="291.15" y="744.59"/>
      <point x="272.19" y="750.0"/>
      <point x="248.41" y="750.0" type="curve" smooth="yes"/>
      <point x="168.62" y="750.0"/>
      <point x="119.87" y="676.69"/>
      <point x="92.66" y="497.95" type="curve"/>
      <point x="40.55" y="491.64" type="line"/>
      <point x="31.73" y="438.34" type="line"/>
      <point x="83.15" y="438.34" type="line"/>
      <point x="8.14" y="-37.17" type="line" smooth="yes"/>
      <point x="-3.0" y="-106.77000000000001"/>
      <point x="-21.45" y="-149.82"/>
      <point x="-67.36" y="-149.82" type="curve" smooth="yes"/>
      <point x="-79.88" y="-149.82"/>
      <point x="-89.64" y="-148.44"/>
      <point x="-105.02" y="-143.44" type="curve"/>
      <point x="-124.52" y="-209.59" type="line"/>
      <point x="-105.25" y="-216.76"/>
      <point x="-85.91" y="-220.0"/>
    </contour>
  </outline>
</glyph>
<glyph name="uni018F" format="2">
  <advance width="319.82"/>
  <unicode hex="018F"/>
  <outline>
    <contour>
      <point x="100.08" y="-10.0" type="curve" smooth="yes"/>
      <point x="227.06" y="-10.0"/>
      <point x="320.06" y="214.34"/>
      <point x="320.06" y="513.3" type="curve" smooth="yes"/>
      <point x="320.06" y="656.12"/>
      <point x="274.62" y="710.0"/>
      <point x="194.5" y="710.0" type="curve" smooth="yes"/>
      <point x="147.58" y="710.0"/>
      <point x="101.86" y="698.38"/>
      <point x="59.8" y="674.04" type="curve"/>
      <point x="76.48" y="612.78" type="line"/>
      <point x="109.48" y="631.64"/>
      <point x="141.34" y="643.02"/>
      <point x="177.72" y="643.02" type="curve" smooth="yes"/>
      <point x="240.56" y="643.02"/>
      <point x="257.04" y="597.42"/>
      <point x="257.04" y="491.14" type="curve" smooth="yes"/>
      <point x="257.04" y="272.08"/>
      <point x="187.78" y="56.36"/>
      <point x="110.38" y="56.36" type="curve" smooth="yes"/>
      <point x="75.82" y="56.36"/>
      <point x="57.4" y="85.4"/>
      <point x="57.4" y="134.86" type="curve" smooth="yes"/>
      <point x="57.4" y="253.3"/>
      <point x="122.24000000000001" y="334.74"/>
      <point x="219.72" y="334.74" type="curve" smooth="yes"/>
      <point x="230.1" y="334.74"/>
      <point x="241.24" y="334.36"/>
      <point x="253.38" y="333.36" type="curve"/>
      <point x="256.62" y="395.38" type="line"/>
      <point x="246.86" y="396.76"/>
      <point x="237.48" y="396.76"/>
      <point x="227.1" y="396.76" type="curve" smooth="yes"/>
      <point x="81.24" y="396.76"/>
      <point x="-5.0" y="288.86"/>
      <point x="-5.0" y="121.94" type="curve" smooth="yes"/>
      <point x="-5.0" y="42.16"/>
      <point x="34.44" y="-10.0"/>
    </contour>
  </outline>
</glyph>
<glyph name="florin" format="2">
  <advance width="302.7"/>
  <unicode hex="0192"/>
  <outline>
    <contour>
      <point x="181.26" y="333.14" type="line"/>
      <point x="240.2" y="333.14" type="line"/>
      <point x="249.71" y="392.06" type="line"/>
      <point x="190.77" y="392.06" type="line"/>
      <point x="201.07999999999998" y="455.16" type="line" smooth="yes"/>
      <point x="222.26" y="589.14"/>
      <point x="242.3" y="641.16"/>
      <point x="283.0" y="641.16" type="curve" smooth="yes"/>
      <point x="293.0" y="641.16"/>
      <point x="300.69" y="639.16"/>
      <point x="311.62" y="634.85" type="curve"/>
      <point x="334.5" y="696.18" type="line"/>
      <point x="317.23" y="704.59"/>
      <point x="300.34" y="710.0"/>
      <point x="277.94" y="710.0" type="curve" smooth="yes"/>
      <point x="207.81" y="710.0"/>
      <point x="168.96" y="645.66"/>
      <point x="139.37" y="462.6" type="curve" smooth="yes"/>
      <point x="127.82" y="392.06" type="line"/>
      <point x="75.02" y="389.89" type="line"/>
      <point x="65.51" y="333.14" type="line"/>
      <point x="118.31" y="333.14" type="line"/>
      <point x="32.96" y="-210.0" type="line"/>
      <point x="95.91" y="-210.0" type="line"/>
    </contour>
  </outline>
</glyph>
<glyph name="uni0237" format="2">
  <advance width="147.49"/>
  <unicode hex="0237"/>
  <anchor x="-67.4" y="-210.0" name="bottom"/>
  <anchor x="117.78" y="536.2" name="top"/>
  <outline>
    <contour>
      <point x="150.41" y="536.2" type="line"/>
      <point x="86.77" y="536.2" type="line"/>
      <point x="-3.8200000000000003" y="-35.93" type="line" smooth="yes"/>
      <point x="-14.96" y="-105.53"/>
      <point x="-34.48" y="-149.06"/>
      <point x="-80.39" y="-149.06" type="curve" smooth="yes"/>
      <point x="-93.22" y="-149.06"/>
      <point x="-102.98" y="-147.68"/>
      <point x="-118.05" y="-142.68" type="curve"/>
      <point x="-136.0" y="-210.21" type="line"/>
      <point x="-116.73" y="-217.38"/>
      <point x="-95.22" y="-220.0"/>
      <point x="-74.98" y="-220.0" type="curve" smooth="yes"/>
      <point x="3.8299999999999983" y="-220.0"/>
      <point x="39.48" y="-163.04"/>
      <point x="57.58" y="-47.44" type="curve" smooth="yes"/>
    </contour>
  </outline>
</glyph>
<glyph name="uni0259" format="2">
  <advance width="287.58"/>
  <unicode hex="0259"/>
  <outline>
    <contour>
      <point x="223.82" y="267.94" type="curve"/>
      <point x="233.12" y="318.42" type="line"/>
      <point x="198.64" y="314.9"/>
      <point x="161.02" y="305.52"/>
      <point x="129.16" y="289.38" type="curve" smooth="yes"/>
      <point x="47.34" y="249.24"/>
      <point x="-10.38" y="174.66"/>
      <point x="-10.38" y="85.6" type="curve" smooth="yes"/>
      <point x="-10.38" y="28.68"/>
      <point x="18.82" y="-10.0"/>
      <point x="78.7" y="-10.0" type="curve" smooth="yes"/>
      <point x="199.78" y="-10.0"/>
      <point x="269.3" y="167.48"/>
      <point x="269.3" y="376.84" type="curve" smooth="yes"/>
      <point x="269.3" y="502.18"/>
      <point x="222.57999999999998" y="546.2"/>
      <point x="152.98" y="546.2" type="curve" smooth="yes"/>
      <point x="111.78" y="546.2"/>
      <point x="77.72" y="535.96"/>
      <point x="53.04" y="521.62" type="curve"/>
      <point x="66.86" y="462.84000000000003" type="line"/>
      <point x="91.82" y="475.32"/>
      <point x="114.53999999999999" y="482.7"/>
      <point x="140.54" y="482.7" type="curve" smooth="yes"/>
      <point x="176.96" y="482.7"/>
      <point x="209.52" y="462.28"/>
      <point x="209.52" y="367.54" type="curve" smooth="yes"/>
      <point x="209.52" y="190.06"/>
      <point x="154.78" y="47.92"/>
      <point x="88.75999999999999" y="47.92" type="curve" smooth="yes"/>
      <point x="59.06" y="47.92"/>
      <point x="48.54" y="68.96000000000001"/>
      <point x="48.54" y="98.52" type="curve" smooth="yes"/>
      <point x="48.54" y="155.6"/>
      <point x="85.24000000000001" y="209.2"/>
      <point x="139.7" y="241.0" type="curve" smooth="yes"/>
      <point x="163.74" y="255.28"/>
      <point x="192.78" y="264.42"/>
    </contour>
  </outline>
</glyph>
<glyph name="gravecomb" format="2">
  <unicode hex="0300"/>
  <anchor x="-105.73" y="536.2" name="_top"/>
  <anchor x="-106.84" y="734.49" name="top"/>
  <outline>
    <contour>
      <point x="-114.06" y="595.69" type="line"/>
      <point x="-64.89" y="595.69" type="line"/>
      <point x="-97.83" y="789.69" type="line"/>
      <point x="-161.54" y="789.69" type="line"/>
    </contour>
  </outline>
</glyph>
<glyph name="acutecomb" format="2">
  <unicode hex="0301"/>
  <anchor x="-105.73" y="536.2" name="_top"/>
  <anchor x="-42.42" y="734.49" name="top"/>
  <outline>
    <contour>
      <point x="-129.19" y="595.69" type="line"/>
      <point x="-79.09" y="595.69" type="line"/>
      <point x="29.6" y="789.69" type="line"/>
      <point x="-36.66" y="789.69" type="line"/>
    </contour>
  </outline>
</glyph>
<glyph name="uni0302" format="2">
  <unicode hex="0302"/>
  <anchor x="-105.73" y="536.2" name="_top"/>
  <anchor x="-70.11" y="754.78" name="top"/>
  <anchor x="30.369999999999997" y="665.49" name="top_viet"/>
  <outline>
    <contour>
      <point x="-187.91" y="595.69" type="line"/>
      <point x="-135.64" y="595.69" type="line"/>
      <point x="-71.07" y="749.02" type="line"/>
      <point x="-55.61" y="595.69" type="line"/>
      <point x="-4.03" y="595.69" type="line"/>
      <point x="-30.86" y="789.69" type="line"/>
      <point x="-99.15" y="789.69" type="line"/>
    </contour>
  </outline>
</glyph>
<glyph name="tildecomb" format="2">
  <unicode hex="0303"/>
  <anchor x="-106.03999999999999" y="536.2" name="_top"/>
  <anchor x="-85.22" y="662.98" name="top"/>
  <outline>
    <contour>
      <point x="-191.6" y="601.52" type="curve"/>
      <point x="-151.18" y="601.52" type="line"/>
      <point x="-151.18" y="603.28"/>
      <point x="-151.18" y="607.9"/>
      <point x="-151.18" y="609.66" type="curve" smooth="yes"/>
      <point x="-151.18" y="645.02"/>
      <point x="-138.28" y="677.16"/>
      <point x="-119.52" y="677.16" type="curve" smooth="yes"/>
      <point x="-95.68" y="677.16"/>
      <point x="-101.03999999999999" y="603.38"/>
      <point x="-54.32" y="603.38" type="curve" smooth="yes"/>
      <point x="-12.5" y="603.38"/>
      <point x="14.32" y="647.66"/>
      <point x="19.28" y="719.96" type="curve" smooth="yes"/>
      <point x="19.9" y="726.3"/>
      <point x="20.52" y="732.26"/>
      <point x="21.14" y="739.22" type="curve"/>
      <point x="-19.28" y="739.22" type="line"/>
      <point x="-19.28" y="736.84"/>
      <point x="-19.9" y="731.74"/>
      <point x="-19.9" y="730.6" type="curve" smooth="yes"/>
      <point x="-21.759999999999998" y="708.32"/>
      <point x="-27.28" y="659.82"/>
      <point x="-48.84" y="659.82" type="curve" smooth="yes"/>
      <point x="-72.4" y="659.82"/>
      <point x="-66.9" y="732.22"/>
      <point x="-117.14" y="732.22" type="curve" smooth="yes"/>
      <point x="-158.82" y="732.22"/>
      <point x="-184.78" y="690.36"/>
      <point x="-189.74" y="625.68" type="curve" smooth="yes"/>
      <point x="-190.36" y="618.58"/>
      <point x="-190.98" y="609.86"/>
    </contour>
  </outline>
</glyph>
<glyph name="uni0304" format="2">
  <unicode hex="0304"/>
  <anchor x="-106.03999999999999" y="536.2" name="_top"/>
  <anchor x="-76.8" y="720.5" name="top"/>
  <outline>
    <contour>
      <point x="-168.12" y="658.96" type="line"/>
      <point x="-4.5" y="658.96" type="line"/>
      <point x="4.08" y="714.3" type="line"/>
      <point x="-159.54" y="714.3" type="line"/>
    </contour>
  </outline>
</glyph>
<glyph name="uni0306" format="2">
  <unicode hex="0306"/>
  <anchor x="-105.73" y="536.2" name="_top"/>
  <anchor x="-77.87" y="716.46" name="top"/>
  <outline>
    <contour>
      <point x="-95.59" y="602.76" type="curve" smooth="yes"/>
      <point x="-23.61" y="602.76"/>
      <point x="9.969999999999999" y="641.0"/>
      <point x="21.59" y="740.19" type="curve"/>
      <point x="-18.28" y="740.19" type="line"/>
      <point x="-25.04" y="687.21"/>
      <point x="-45.53" y="653.24"/>
      <point x="-87.32" y="653.24" type="curve" smooth="yes"/>
      <point x="-121.8" y="653.24"/>
      <point x="-134.63" y="672.69"/>
      <point x="-134.63" y="707.63" type="curve" smooth="yes"/>
      <point x="-134.63" y="719.91"/>
      <point x="-133.94" y="729.12"/>
      <point x="-131.25" y="740.19" type="curve"/>
      <point x="-170.43" y="740.19" type="line"/>
      <point x="-174.36" y="723.61"/>
      <point x="-176.67000000000002" y="702.44"/>
      <point x="-176.67000000000002" y="684.51" type="curve" smooth="yes"/>
      <point x="-176.67000000000002" y="622.66"/>
      <point x="-146.82" y="602.76"/>
    </contour>
  </outline>
</glyph>
<glyph name="uni0307" format="2">
  <unicode hex="0307"/>
  <anchor x="-105.73" y="536.2" name="_top"/>
  <anchor x="-83.53" y="668.27" name="top"/>
  <outline>
    <contour>
      <point x="-88.0" y="649.03" type="curve" smooth="yes"/>
      <point x="-58.879999999999995" y="649.03"/>
      <point x="-50.230000000000004" y="677.08"/>
      <point x="-50.230000000000004" y="701.48" type="curve" smooth="yes"/>
      <point x="-50.230000000000004" y="720.64"/>
      <point x="-59.05" y="727.81"/>
      <point x="-76.18" y="727.81" type="curve" smooth="yes"/>
      <point x="-104.3" y="727.81"/>
      <point x="-113.25999999999999" y="698.45"/>
      <point x="-113.25999999999999" y="673.67" type="curve" smooth="yes"/>
      <point x="-113.25999999999999" y="655.2"/>
      <point x="-103.75" y="649.03"/>
    </contour>
  </outline>
</glyph>
<glyph name="uni0308" format="2">
  <unicode hex="0308"/>
  <anchor x="-105.73" y="536.2" name="_top"/>
  <anchor x="-85.39" y="668.27" name="top"/>
  <outline>
    <contour>
      <point x="-31.46" y="650.89" type="curve" smooth="yes"/>
      <point x="-11.47" y="650.89"/>
      <point x="0.5899999999999999" y="663.44"/>
      <point x="4.0" y="694.11" type="curve" smooth="yes"/>
      <point x="7.72" y="720.95"/>
      <point x="-1.1" y="729.67"/>
      <point x="-19.02" y="729.67" type="curve" smooth="yes"/>
      <point x="-38.7" y="729.67"/>
      <point x="-51.07" y="715.43"/>
      <point x="-54.79" y="684.45" type="curve" smooth="yes"/>
      <point x="-58.2" y="658.61"/>
      <point x="-48.45" y="650.89"/>
    </contour>
    <contour>
      <point x="-145.61" y="650.89" type="curve" smooth="yes"/>
      <point x="-125.62" y="650.89"/>
      <point x="-113.25" y="663.44"/>
      <point x="-109.84" y="694.11" type="curve" smooth="yes"/>
      <point x="-106.12" y="720.95"/>
      <point x="-115.87" y="729.67"/>
      <point x="-133.17000000000002" y="729.67" type="curve" smooth="yes"/>
      <point x="-153.54" y="729.67"/>
      <point x="-164.91" y="713.36"/>
      <point x="-168.63" y="684.45" type="curve" smooth="yes"/>
      <point x="-172.04" y="658.61"/>
      <point x="-163.22" y="650.89"/>
    </contour>
  </outline>
</glyph>
<glyph name="hookabovecomb" format="2">
  <unicode hex="0309"/>
  <anchor x="-106.03999999999999" y="536.2" name="_top"/>
  <anchor x="-65.0" y="797.72" name="top"/>
  <outline>
    <contour>
      <point x="-106.82" y="603.66" type="line"/>
      <point x="-32.5" y="633.44"/>
      <point x="-7.4" y="673.58"/>
      <point x="-7.4" y="723.88" type="curve" smooth="yes"/>
      <point x="-7.4" y="764.46"/>
      <point x="-32.6" y="794.0"/>
      <point x="-75.96000000000001" y="794.0" type="curve" smooth="yes"/>
      <point x="-95.82" y="794.0"/>
      <point x="-114.82" y="788.86"/>
      <point x="-132.06" y="775.54" type="curve"/>
      <point x="-127.5" y="728.34" type="line"/>
      <point x="-112.02000000000001" y="737.28"/>
      <point x="-102.12" y="740.42"/>
      <point x="-89.12" y="740.42" type="curve" smooth="yes"/>
      <point x="-70.88" y="740.42"/>
      <point x="-60.74" y="728.52"/>
      <point x="-60.74" y="711.34" type="curve" smooth="yes"/>
      <point x="-60.74" y="685.4"/>
      <point x="-76.02000000000001" y="665.1"/>
      <point x="-113.47999999999999" y="641.56" type="curve"/>
    </contour>
  </outline>
</glyph>
<glyph name="uni030A" format="2">
  <unicode hex="030A"/>
  <anchor x="-105.73" y="536.2" name="_top"/>
  <anchor x="-71.18" y="754.81" name="top"/>
  <outline>
    <contour>
      <point x="-89.8" y="607.7" type="curve" smooth="yes"/>
      <point x="-43.33" y="607.7"/>
      <point x="-12.16" y="647.42"/>
      <point x="-12.16" y="711.21" type="curve" smooth="yes"/>
      <point x="-12.16" y="756.17"/>
      <point x="-34.29" y="781.68"/>
      <point x="-70.83" y="781.68" type="curve" smooth="yes"/>
      <point x="-117.99000000000001" y="781.68"/>
      <point x="-148.47" y="741.27"/>
      <point x="-148.47" y="676.1" type="curve" smooth="yes"/>
      <point x="-148.47" y="632.52"/>
      <point x="-126.34" y="607.7"/>
    </contour>
    <contour>
      <point x="-86.8" y="645.78" type="curve" smooth="yes"/>
      <point x="-102.25" y="645.78"/>
      <point x="-110.01" y="657.23"/>
      <point x="-110.01" y="675.51" type="curve" smooth="yes"/>
      <point x="-110.01" y="717.04"/>
      <point x="-95.42" y="743.6"/>
      <point x="-73.83" y="743.6" type="curve" smooth="yes"/>
      <point x="-58.379999999999995" y="743.6"/>
      <point x="-50.620000000000005" y="731.46"/>
      <point x="-50.620000000000005" y="712.49" type="curve" smooth="yes"/>
      <point x="-50.620000000000005" y="671.65"/>
      <point x="-65.9" y="645.78"/>
    </contour>
  </outline>
</glyph>
<glyph name="uni030B" format="2">
  <unicode hex="030B"/>
  <anchor x="-105.73" y="536.2" name="_top"/>
  <anchor x="-37.379999999999995" y="789.69" name="top"/>
  <outline>
    <contour>
      <point x="-76.9" y="595.69" type="line"/>
      <point x="-34.24" y="595.69" type="line"/>
      <point x="65.87" y="789.69" type="line"/>
      <point x="10.840000000000003" y="789.69" type="line"/>
    </contour>
    <contour>
      <point x="-171.63" y="595.69" type="line"/>
      <point x="-128.97" y="595.69" type="line"/>
      <point x="-28.86" y="789.69" type="line"/>
      <point x="-84.2" y="789.69" type="line"/>
    </contour>
  </outline>
</glyph>
<glyph name="uni030F" format="2">
  <unicode hex="030F"/>
  <anchor x="-105.73" y="536.2" name="_top"/>
  <anchor x="-106.35" y="789.69" name="top"/>
  <outline>
    <contour>
      <point x="-163.56" y="595.69" type="line"/>
      <point x="-120.59" y="595.69" type="line"/>
      <point x="-146.63" y="789.69" type="line"/>
      <point x="-204.14" y="789.69" type="line"/>
    </contour>
    <contour>
      <point x="-67.35" y="595.69" type="line"/>
      <point x="-24.38" y="595.69" type="line"/>
      <point x="-50.42" y="789.69" type="line"/>
      <point x="-107.93" y="789.69" type="line"/>
    </contour>
  </outline>
</glyph>
